<?xml version="1.0" encoding="UTF-8"?>
<svg xmlns="http://www.w3.org/2000/svg" version="1.1" viewBox="0 0 853.8 853.8">
  <defs>
    <style>
      .cls-1 {
        fill: #263238;
      }

      .cls-1, .cls-2, .cls-3, .cls-4, .cls-5, .cls-6, .cls-7, .cls-8, .cls-9 {
        stroke-width: 0px;
      }

      .cls-2 {
        fill: #729a90;
      }

      .cls-3 {
        fill: #fff;
        opacity: .7;
      }

      .cls-4 {
        fill: #f0e4cc;
      }

      .cls-5 {
        fill: #fff7e9;
      }

      .cls-6 {
        fill: #a6001e;
      }

      .cls-7 {
        fill: #fdfaf3;
      }

      .cls-8 {
        fill: #e0e0e0;
      }

      .cls-9 {
        fill: #f7efe4;
      }

      .cls-10 {
        display: none;
      }
    </style>
  </defs>
  <g id="Background_Simple" data-name="Background Simple" class="cls-10">
    <path class="cls-8" d="M615,301.7h0c-17.5-28.4-46.6-48-79.7-52.5-12.9-1.7-26-1.3-38.7,1.3-37.9,8-70.9,36.3-84.5,72.5-8,21.3-10.3,45.9-25.5,62.8-19.9,22-53.6,22.7-83.2,21.8-29.6-.9-63.4-.1-83.1,22-12.4,13.8-16.3,33.5-15.3,52.1,2.6,49.1,37.3,93,81.3,114.8,44,21.8,95.9,23.8,144.1,14.2,67.5-13.4,131.8-50.4,170.4-107.4,36.8-54.3,47.4-127.4,21.6-187.4-2.1-4.9-4.6-9.6-7.4-14.2Z"/>
  </g>
  <g id="Device">
    <g>
      <g>
        <g>
          <g>
            <g>
              <rect class="cls-4" x="156" y="563.8" width="133.3" height="253"/>
              <rect class="cls-9" x="226.8" y="563.8" width="62.5" height="253"/>
            </g>
            <g>
              <rect class="cls-5" x="183.9" y="587.6" width="12" height="29.1"/>
              <rect class="cls-5" x="183.9" y="701.6" width="12" height="29.1"/>
              <path class="cls-5" d="M226.8,628.2c0,.3-15.9.5-35.4.5s-35.4-.2-35.4-.5,15.9-.5,35.4-.5,35.4.2,35.4.5Z"/>
            </g>
            <g>
              <rect class="cls-5" x="183.9" y="645.1" width="12" height="29.1"/>
              <path class="cls-5" d="M226.8,685.6c0,.3-15.9.5-35.4.5s-35.4-.2-35.4-.5,15.9-.5,35.4-.5,35.4.2,35.4.5Z"/>
            </g>
            <rect class="cls-4" x="240.1" y="587.6" width="12" height="29.1"/>
            <rect class="cls-4" x="266.1" y="587.6" width="12" height="29.1"/>
            <rect class="cls-4" x="240.1" y="642.9" width="12" height="29.1"/>
            <rect class="cls-4" x="266.1" y="642.9" width="12" height="29.1"/>
            <rect class="cls-4" x="240.1" y="698.2" width="12" height="29.1"/>
            <rect class="cls-4" x="266.1" y="698.2" width="12" height="29.1"/>
            <rect class="cls-4" x="146" y="557.7" width="153.4" height="6.3"/>
            <path class="cls-9" d="M290.2,564.7c0,.3-29.8.5-66.6.5s-66.6-.2-66.6-.5,29.8-.5,66.6-.5,66.6.2,66.6.5Z"/>
          </g>
          <g>
            <g>
              <rect class="cls-9" x="68.4" y="658.7" width="119.4" height="157.4"/>
              <rect class="cls-4" x="131.8" y="658.7" width="56" height="157.4"/>
            </g>
            <g>
              <rect class="cls-5" x="93.4" y="680.1" width="10.7" height="26.1"/>
              <rect class="cls-5" x="93.4" y="782.1" width="10.7" height="26.1"/>
              <path class="cls-5" d="M131.8,716.4c0,.3-14.2.5-31.7.5s-31.7-.2-31.7-.5,14.2-.5,31.7-.5,31.7.2,31.7.5Z"/>
            </g>
            <g>
              <rect class="cls-5" x="93.4" y="731.5" width="10.7" height="26.1"/>
              <path class="cls-5" d="M131.8,767.8c0,.3-14.2.5-31.7.5s-31.7-.2-31.7-.5,14.2-.5,31.7-.5,31.7.2,31.7.5Z"/>
            </g>
            <rect class="cls-5" x="143.6" y="680.1" width="10.7" height="26.1"/>
            <rect class="cls-5" x="166.9" y="680.1" width="10.7" height="26.1"/>
            <rect class="cls-5" x="143.6" y="729.5" width="10.7" height="26.1"/>
            <rect class="cls-5" x="166.9" y="729.5" width="10.7" height="26.1"/>
            <rect class="cls-5" x="143.6" y="779" width="10.7" height="26.1"/>
            <rect class="cls-5" x="166.9" y="779" width="10.7" height="26.1"/>
            <rect class="cls-4" x="59.4" y="653.3" width="137.3" height="5.7"/>
            <path class="cls-9" d="M188.6,659.5c0,.3-26.7.5-59.6.5s-59.6-.2-59.6-.5,26.7-.5,59.6-.5,59.6.2,59.6.5Z"/>
          </g>
        </g>
        <g>
          <g>
            <g>
              <rect class="cls-4" x="564.5" y="563.8" width="133.3" height="253" transform="translate(1262.3 1380.7) rotate(-180)"/>
              <rect class="cls-9" x="564.5" y="563.8" width="62.5" height="253"/>
            </g>
            <g>
              <rect class="cls-5" x="657.9" y="587.6" width="12" height="29.1" transform="translate(1327.7 1204.4) rotate(-180)"/>
              <rect class="cls-5" x="657.9" y="701.6" width="12" height="29.1" transform="translate(1327.7 1432.4) rotate(-180)"/>
              <path class="cls-5" d="M627,628.2c0,.3,15.9.5,35.4.5,19.6,0,35.4-.2,35.4-.5s-15.9-.5-35.4-.5c-19.6,0-35.4.2-35.4.5Z"/>
            </g>
            <g>
              <rect class="cls-5" x="657.9" y="645.1" width="12" height="29.1" transform="translate(1327.7 1319.3) rotate(-180)"/>
              <path class="cls-5" d="M627,685.6c0,.3,15.9.5,35.4.5,19.6,0,35.4-.2,35.4-.5s-15.9-.5-35.4-.5c-19.6,0-35.4.2-35.4.5Z"/>
            </g>
            <rect class="cls-4" x="601.7" y="587.6" width="12" height="29.1" transform="translate(1215.4 1204.4) rotate(-180)"/>
            <rect class="cls-4" x="575.7" y="587.6" width="12" height="29.1" transform="translate(1163.4 1204.4) rotate(-180)"/>
            <rect class="cls-4" x="601.7" y="642.9" width="12" height="29.1" transform="translate(1215.4 1315) rotate(-180)"/>
            <rect class="cls-4" x="575.7" y="642.9" width="12" height="29.1" transform="translate(1163.4 1315) rotate(-180)"/>
            <rect class="cls-4" x="601.7" y="698.2" width="12" height="29.1" transform="translate(1215.4 1425.5) rotate(-180)"/>
            <rect class="cls-4" x="575.7" y="698.2" width="12" height="29.1" transform="translate(1163.4 1425.5) rotate(-180)"/>
            <rect class="cls-4" x="554.4" y="557.7" width="153.4" height="6.3" transform="translate(1262.3 1121.8) rotate(-180)"/>
            <path class="cls-9" d="M563.5,564.7c0,.3,29.8.5,66.6.5,36.8,0,66.6-.2,66.6-.5s-29.8-.5-66.6-.5c-36.8,0-66.6.2-66.6.5Z"/>
          </g>
          <g>
            <g>
              <rect class="cls-9" x="666.1" y="658.7" width="119.4" height="157.4" transform="translate(1451.5 1474.9) rotate(-180)"/>
              <rect class="cls-4" x="666.1" y="658.7" width="56" height="157.4"/>
            </g>
            <g>
              <rect class="cls-5" x="749.7" y="680.1" width="10.7" height="26.1" transform="translate(1510.1 1386.2) rotate(-180)"/>
              <rect class="cls-5" x="749.7" y="782.1" width="10.7" height="26.1" transform="translate(1510.1 1590.3) rotate(-180)"/>
              <path class="cls-5" d="M722,716.4c0,.3,14.2.5,31.7.5s31.7-.2,31.7-.5-14.2-.5-31.7-.5-31.7.2-31.7.5Z"/>
            </g>
            <g>
              <rect class="cls-5" x="749.7" y="731.5" width="10.7" height="26.1" transform="translate(1510.1 1489) rotate(-180)"/>
              <path class="cls-5" d="M722,767.8c0,.3,14.2.5,31.7.5s31.7-.2,31.7-.5-14.2-.5-31.7-.5-31.7.2-31.7.5Z"/>
            </g>
            <rect class="cls-5" x="699.4" y="680.1" width="10.7" height="26.1" transform="translate(1409.6 1386.2) rotate(-180)"/>
            <rect class="cls-5" x="676.1" y="680.1" width="10.7" height="26.1" transform="translate(1363 1386.2) rotate(-180)"/>
            <rect class="cls-5" x="699.4" y="729.5" width="10.7" height="26.1" transform="translate(1409.6 1485.1) rotate(-180)"/>
            <rect class="cls-5" x="676.1" y="729.5" width="10.7" height="26.1" transform="translate(1363 1485.1) rotate(-180)"/>
            <rect class="cls-5" x="699.4" y="779" width="10.7" height="26.1" transform="translate(1409.6 1584.1) rotate(-180)"/>
            <rect class="cls-5" x="676.1" y="779" width="10.7" height="26.1" transform="translate(1363 1584.1) rotate(-180)"/>
            <rect class="cls-4" x="657.1" y="653.3" width="137.3" height="5.7" transform="translate(1451.5 1312.2) rotate(-180)"/>
            <path class="cls-9" d="M665.2,659.5c0,.3,26.7.5,59.6.5,32.9,0,59.6-.2,59.6-.5s-26.7-.5-59.6-.5c-32.9,0-59.6.2-59.6.5Z"/>
          </g>
        </g>
      </g>
      <g>
        <path class="cls-9" d="M102.2,66.9s-19,5.7-1.5,46.5c17.5,40.8,30.2,61.3,30.2,61.3,0,0,3,9.4-4.8,10.3-7.8.9-24.6-2.9-28.7,6.3-4.2,9.6,2.3,19.3,16.2,28.3,13.9,9.1,43.6,30,46.3,31.9,2.6,1.9,5.1,6.3-.1,7.8s-43.7,2.9-41.9,21.2c1.8,18.2,44.6,37.1,49.3,39.3,4.6,2.2,5.6,4.2,5.1,6.8-.6,2.6-13.5,1.9-24.5,2.7-10.9.9-23.4,3.8-21.5,14.2,1.9,10.4,26.5,33.7,89.2,44.1l29.4,2.9,17.7-23.8c34.7-53.3,34.1-87.1,27.7-95.5-6.4-8.4-17-1.2-25,6.3s-16.2,17.5-18.5,16.2c-2.3-1.3-3.2-3.5-1.6-8.4,1.5-4.9,16.5-49.2,4.3-62.8-12.2-13.6-39.3,13.8-43.9,16.6-4.6,2.9-6.2-2-5.8-5.2.4-3.3,5-39.3,7.7-55.7,2.7-16.4,0-27.7-10-31.1-9.5-3.2-18.1,11.8-24,16.9-5.9,5.1-10.9-3.4-10.9-3.4,0,0-6.5-23.2-24.8-63.7-18.3-40.5-35.7-30-35.7-30"/>
        <path class="cls-4" d="M245.7,397.6c-13.3-29.8-36-83.1-55.8-128.9-19.8-45.7-37.7-87-50.8-116.9-6.6-14.9-11.9-27-15.6-35.3-1.8-4.1-3.3-7.4-4.2-9.6-.5-1.1-.8-1.9-1.1-2.5-.2-.6-.3-.9-.3-.9,0,0,.2.3.4.8.3.6.7,1.4,1.2,2.5,1,2.2,2.5,5.4,4.4,9.5,3.8,8.3,9.2,20.3,15.9,35.2,13.3,29.8,31.3,71.1,51.1,116.8,19.8,45.7,42.4,99.1,55.6,129"/>
        <path class="cls-4" d="M120.7,197.7c0,0,.7.2,2,.7,1.3.5,3.1,1.3,5.3,2.3,4.5,2,10.6,4.9,17.3,8.2,6.6,3.3,12.6,6.3,17.1,8.6,2.1,1,3.8,1.9,5.2,2.6,1.2.6,1.9,1,1.9,1s-.7-.2-2-.7c-1.3-.5-3.1-1.3-5.3-2.3-4.5-2-10.5-5-17.2-8.4-6.6-3.3-12.6-6.2-17.2-8.5-2.1-1-3.8-1.9-5.2-2.5-1.2-.6-1.9-1-1.9-1Z"/>
        <path class="cls-4" d="M171.6,219.3c-.2-.1,5.2-13,12.1-28.8,6.9-15.8,12.8-28.5,13-28.4.2.1-5.2,13-12.1,28.8-6.9,15.8-12.7,28.5-13,28.4Z"/>
        <path class="cls-4" d="M198.8,290.8s.4-.7,1.3-1.7c1-1.2,2.3-2.7,3.8-4.5,3.2-3.8,7.6-9.2,12.3-15.2,4.7-6,8.7-11.6,11.6-15.7,1.4-1.9,2.5-3.5,3.4-4.8.8-1.1,1.3-1.8,1.3-1.7,0,0-.3.7-1,1.9-.7,1.2-1.8,2.9-3.2,5-2.8,4.2-6.7,9.9-11.4,15.9-4.7,6.1-9.2,11.3-12.5,15.1-1.7,1.9-3,3.4-4,4.4-1,1-1.5,1.5-1.6,1.5Z"/>
        <path class="cls-4" d="M148.4,281.4c0,0,.7,0,2,.2,1.5.2,3.3.5,5.4.8,4.6.7,10.9,1.8,17.8,3,7,1.2,13.2,2.4,17.8,3.2,2.1.4,3.9.8,5.4,1.1,1.3.3,2,.5,1.9.5,0,0-.7,0-2-.2-1.5-.2-3.3-.5-5.4-.8-4.6-.7-10.9-1.8-17.8-3-7-1.2-13.2-2.4-17.8-3.2-2.1-.4-3.9-.8-5.4-1.1-1.3-.3-2-.5-1.9-.5Z"/>
        <path class="cls-4" d="M164.4,347.6c0,0,.9,0,2.6.2,1.8.3,4.1.6,6.9,1,5.9.9,13.9,2.1,22.9,3.6,8.9,1.5,17,2.8,22.8,3.9,2.8.5,5.1.9,6.9,1.3,1.6.3,2.5.5,2.5.6,0,0-.9,0-2.6-.2-1.8-.3-4.1-.6-6.9-1-5.9-.9-13.9-2.1-22.9-3.6-8.9-1.5-17-2.8-22.8-3.9-2.8-.5-5.1-.9-6.9-1.3-1.6-.3-2.5-.5-2.5-.6Z"/>
        <path class="cls-4" d="M227.5,357.5s.5-.8,1.6-2.2c1.2-1.5,2.7-3.5,4.6-5.9,3.9-5,9.2-12,14.9-19.8,5.7-7.8,10.7-15,14.2-20.3,1.7-2.5,3.1-4.6,4.2-6.2,1-1.5,1.6-2.3,1.6-2.2,0,0-.4.9-1.3,2.4-.9,1.5-2.3,3.7-4,6.4-3.4,5.3-8.3,12.6-14,20.5-5.7,7.8-11.1,14.7-15.2,19.7-2,2.5-3.7,4.4-4.8,5.8-1.2,1.3-1.8,2.1-1.9,2Z"/>
      </g>
      <g>
        <path class="cls-5" d="M591.3,492.3c-39.3-27.4-48.2-78.3-46.6-124.1.3-7.6-.6-15.7,3.1-22.4,3.6-6.7,12.1-11.3,19-8.1,5.7,2.7,8.1,9.3,11.3,14.7,4.2,7.3,10.5,13.3,17.9,17.1,4.9,2.5,10.9,4.1,15.7,1.4,6.6-3.6,7.4-12.7,7.3-20.3,0-14.2-.2-28.3-.3-42.5,0-7.6,0-15.4,2.3-22.6,2.4-7.2,7.6-13.9,14.8-15.9,7.2-2,16.2,2.1,17.7,9.6.6,3.1,0,6.3.2,9.5.2,3.2,1.7,6.6,4.7,7.5,3,.9,6.1-1.3,8.3-3.5,7.8-7.7,13.2-17.6,18.1-27.4,5-9.8,9.8-19.9,16.9-28.3,7.1-8.4,17-15,27.8-15.6,10.9-.6,22.5,6.1,25.2,16.8,2.8,10.7-3.5,21.6-10.3,30.3-10.1,12.9-22,24.2-35.3,33.7-2.4,1.7-5,3.5-5.9,6.4-1.7,5.1,3.1,10.1,8.2,11.8,5.7,1.9,11.8,1.3,17.7,2,5.9.7,12.3,3.3,14.6,8.9,3.1,7.8-3.4,15.9-9.8,21.2-12.8,10.7-27.4,19.1-43,24.8-5.6,2-11.5,3.8-16,7.8-4.5,3.9-7.2,10.8-4.5,16.1,2.7,5.4,9.7,7.1,15.6,6,5.9-1.1,11.1-4.3,16.7-6.4,10.4-3.9,23.9-3.2,30.6,5.8,4.4,5.9,4.8,14.2,2.6,21.3-2.2,7.1-6.7,13.2-11.5,18.8-16.7,19.6-38.2,35.4-62.4,43.8-24.2,8.4-46.7,10.7-70.7,1.9"/>
        <path class="cls-4" d="M590.7,526.3c1.7-18.1,5.6-39.5,12.4-62.6,6.7-23.1,16.2-47.8,27-73.3,2.7-6.4,5.4-12.7,8.1-18.9,2.7-6.2,5.3-12.3,8.3-18.1,5.9-11.7,12.4-22.5,18.9-32.6,6.5-10.1,13.1-19.4,19.2-28,6.2-8.7,12.1-16.6,17.9-23.6,11.4-14.1,21.9-24.4,29.4-31.1,3.7-3.4,6.7-5.9,8.8-7.6,1-.8,1.8-1.4,2.3-1.9.5-.4.8-.6.8-.6,0,0-.2.3-.7.7-.6.5-1.3,1.2-2.3,2-2,1.8-4.9,4.4-8.6,7.8-7.4,6.9-17.8,17.2-29,31.3-5.7,7-11.5,15-17.7,23.7-6.1,8.7-12.6,18-19.1,28.1-6.5,10.1-12.9,20.8-18.7,32.5-2.9,5.8-5.5,11.9-8.2,18.1-2.7,6.2-5.3,12.5-8.1,18.8-10.8,25.5-20.3,50.1-27.1,73.1-6.8,23-10.9,44.3-12.7,62.4"/>
        <path class="cls-4" d="M646.8,353.3c0,0-.4-1.1-.7-3.2-.4-2.1-.9-5.2-1.4-8.9-1.1-7.6-2.2-18.1-3.4-29.6-1.2-11.6-2.5-22-3.7-29.6-.6-3.8-1.1-6.8-1.5-8.9-.4-2.1-.5-3.3-.4-3.3,0,0,.4,1.1,1,3.2.5,2.1,1.2,5.1,1.9,8.9,1.4,7.5,2.9,18,4.1,29.6,1.2,11.4,2.2,21.8,3,29.7.4,3.6.7,6.6,1,9,.2,2.1.3,3.3.2,3.3Z"/>
        <path class="cls-4" d="M744.5,335c0,0-1.4.3-3.9.5-2.5.2-6.1.5-10.6,1-8.9,1-21.3,2.7-34.8,5.3-13.5,2.6-25.6,5.4-34.3,7.7-4.4,1.1-7.9,2.1-10.3,2.8-2.4.7-3.8,1-3.8.9,0,0,1.3-.6,3.7-1.5,2.4-.8,5.9-2,10.2-3.2,8.7-2.6,20.8-5.6,34.3-8.2,13.5-2.5,25.9-4.2,34.9-4.9,4.5-.4,8.1-.5,10.7-.6,2.5,0,3.9,0,3.9,0Z"/>
        <path class="cls-4" d="M604.3,461.9s-.3-.4-.7-1.2c-.5-1-1-2.1-1.7-3.5-1.4-3.1-3.4-7.6-5.8-13.2-4.7-11.2-10.7-26.9-17.2-44.2-6.4-17.4-12.3-33.1-16.8-44.4-2.2-5.5-4-10-5.3-13.3-.6-1.5-1-2.7-1.4-3.6-.3-.8-.5-1.3-.4-1.3,0,0,.3.4.7,1.2.5,1,1,2.1,1.7,3.5,1.4,3.1,3.4,7.6,5.8,13.2,4.7,11.2,10.7,26.9,17.2,44.2,6.4,17.4,12.3,33.1,16.8,44.3,2.2,5.5,4,10,5.3,13.3.6,1.5,1,2.7,1.4,3.6.3.8.5,1.3.4,1.3Z"/>
        <path class="cls-4" d="M734.1,420s-.4.2-1.3.5c-1,.3-2.3.8-3.8,1.3-3.5,1.1-8.2,2.7-13.9,4.5-11.7,3.8-27.9,9.3-45.7,15.3-17.8,6-34.1,11.3-45.9,14.9-5.9,1.8-10.7,3.2-14,4.1-1.5.4-2.8.7-3.8,1-.9.2-1.4.3-1.4.3,0,0,.4-.2,1.3-.5,1-.3,2.3-.8,3.8-1.3,3.5-1.1,8.2-2.7,13.9-4.5,11.7-3.8,27.9-9.3,45.7-15.3,17.8-6,34.1-11.3,45.9-14.9,5.9-1.8,10.7-3.2,14-4.1,1.5-.4,2.8-.7,3.8-1,.9-.2,1.4-.3,1.4-.3Z"/>
      </g>
      <path class="cls-1" d="M853.8,819.7c0,.3-191.1.5-426.9.5S0,819.9,0,819.7s191.1-.5,426.9-.5,426.9.2,426.9.5Z"/>
      <g>
        <path class="cls-2" d="M235.6,518.7c30.8-31.1,30.5-78.4,21.6-119.3-1.5-6.8-2-14.2-6.4-19.6-4.4-5.4-12.7-8.2-18.4-4.1-4.7,3.3-5.8,9.7-7.8,15.1-2.6,7.2-7.3,13.7-13.3,18.3-4,3.1-9.1,5.4-13.9,3.8-6.5-2.2-8.7-10.3-9.9-17.1-2.2-12.8-4.5-25.5-6.7-38.3-1.2-6.8-2.5-13.8-5.8-19.9-3.3-6.1-9.1-11.3-15.9-11.9-6.8-.6-14.2,4.6-14.3,11.5,0,2.9,1,5.7,1.4,8.5.3,2.9-.4,6.3-3,7.5-2.6,1.3-5.7-.1-8.1-1.8-8.3-5.6-14.7-13.6-20.8-21.7-6.1-8-12.1-16.3-19.8-22.6-7.8-6.4-17.7-10.7-27.6-9.5-9.9,1.2-19.2,9.2-19.9,19.2-.7,10.1,6.7,18.8,14.2,25.5,11.2,9.9,23.8,18.2,37.3,24.5,2.4,1.1,5.1,2.4,6.4,4.7,2.3,4.3-1.2,9.6-5.4,11.9-4.8,2.6-10.4,3.1-15.6,4.7-5.2,1.6-10.6,5-11.7,10.4-1.5,7.5,5.6,13.8,12.3,17.5,13.3,7.5,27.8,12.7,42.7,15.3,5.4.9,10.9,1.6,15.6,4.4,4.7,2.8,8.3,8.5,6.7,13.7-1.6,5.3-7.6,8-13,7.9-5.4,0-10.7-2-16-3-10-1.8-22,1-26.6,10.2-3,6.1-2,13.5,1.2,19.5,3.2,6,8.2,10.7,13.4,15,18.3,14.9,40.1,25.6,63.3,29.2,23.2,3.6,43.7,2,63.9-9.9"/>
        <path class="cls-1" d="M241.7,549.1c-4.5-16-11.5-34.6-21.4-54.3-9.8-19.7-22.4-40.3-36.3-61.5-3.5-5.3-6.9-10.5-10.3-15.6-3.4-5.1-6.8-10.2-10.4-15-7.2-9.6-14.8-18.2-22.3-26.2-7.5-8-14.9-15.3-21.9-22.1-7-6.8-13.6-13-19.9-18.3-12.6-10.8-23.7-18.3-31.6-23.1-3.9-2.4-7-4.2-9.2-5.4-1-.6-1.8-1-2.4-1.3-.5-.3-.8-.4-.8-.4,0,0,.3.2.8.5.6.4,1.4.8,2.4,1.4,2.1,1.3,5.1,3.1,9,5.6,7.8,5,18.8,12.6,31.2,23.4,6.2,5.4,12.8,11.6,19.8,18.4,6.9,6.8,14.3,14.1,21.8,22.1,7.5,8,15,16.6,22.2,26.1,3.6,4.7,6.9,9.8,10.3,14.9,3.4,5.1,6.8,10.4,10.3,15.6,13.9,21.1,26.5,41.7,36.3,61.3,9.9,19.6,17,38.1,21.6,54"/>
        <path class="cls-1" d="M162.9,402.8c0,0,.1-1.1.1-3,0-2,0-4.8-.2-8.3-.3-7-1-16.6-1.8-27.2-.8-10.6-1.4-20.2-1.6-27.2,0-3.5-.1-6.3-.1-8.3,0-1.9,0-3-.2-3,0,0-.2,1.1-.3,3-.1,1.9-.2,4.8-.3,8.3,0,7,.4,16.6,1.2,27.3.8,10.5,1.6,19.9,2.2,27.2.2,3.3.4,6,.6,8.2.1,1.9.3,3,.4,3Z"/>
        <path class="cls-1" d="M72,402.3c0,0,1.3,0,3.6-.2,2.3-.2,5.6-.5,9.7-.8,8.2-.6,19.6-1,32.1-.9,12.6,0,23.9.7,32.1,1.3,4.1.3,7.4.6,9.7.8,2.3.2,3.6.3,3.6.2,0,0-1.2-.3-3.5-.7-2.3-.4-5.6-.8-9.7-1.3-8.2-.9-19.6-1.6-32.2-1.7-12.6,0-24,.5-32.2,1.3-4.1.4-7.4.8-9.7,1.2-2.3.4-3.5.6-3.5.7Z"/>
        <path class="cls-1" d="M218.9,493.4s.2-.4.4-1.2c.2-.9.6-2.1.9-3.5.8-3,1.8-7.4,3-12.8,2.4-10.8,5.3-25.9,8.2-42.6,2.9-16.7,5.6-31.8,7.8-42.6,1.1-5.3,2-9.6,2.6-12.9.3-1.4.5-2.6.7-3.5.1-.8.2-1.2.2-1.2,0,0-.2.4-.4,1.2-.2.9-.6,2.1-.9,3.5-.8,3-1.8,7.4-3,12.8-2.4,10.8-5.3,25.9-8.2,42.6-2.9,16.7-5.6,31.8-7.8,42.6-1.1,5.3-2,9.6-2.6,12.9-.3,1.4-.5,2.6-.7,3.5-.1.8-.2,1.2-.2,1.2Z"/>
        <path class="cls-1" d="M95.3,477.1s.4.1,1.2.3c1,.1,2.2.3,3.6.5,3.3.4,7.8,1,13.2,1.8,11.2,1.5,26.6,3.8,43.6,6.3,17,2.5,32.5,4.6,43.7,5.9,5.6.6,10.1,1.1,13.3,1.4,1.5.1,2.6.2,3.6.3.8,0,1.3,0,1.3,0,0,0-.4-.1-1.2-.3-1-.1-2.2-.3-3.6-.5-3.3-.4-7.8-1-13.2-1.8-11.2-1.5-26.6-3.8-43.6-6.3-17-2.5-32.5-4.6-43.7-5.9-5.6-.6-10.1-1.1-13.3-1.4-1.5-.1-2.6-.2-3.6-.3-.8,0-1.3,0-1.3,0Z"/>
      </g>
      <g>
        <path class="cls-1" d="M554.9,819.4l-259.5-1.2c-31.2-.1-56.4-26.3-56.3-58.3l2.8-668.5c.1-32.1,25.6-58,56.8-57.8l259.5,1.2c31.2.1,56.4,26.3,56.3,58.3l-2.8,668.5c-.1,32.1-25.6,58-56.8,57.8Z"/>
        <g>
          <g>
            <g>
              <path class="cls-4" d="M594,644.2c0,3.2-2.6,5.7-5.7,5.7s-5.7-2.6-5.7-5.7,2.6-5.7,5.7-5.7,5.7,2.6,5.7,5.7Z"/>
              <path class="cls-4" d="M588.3,656.8c-.3,0-.5-2.8-.5-6.3s.2-6.3.5-6.3.5,2.8.5,6.3-.2,6.3-.5,6.3Z"/>
            </g>
            <g>
              <path class="cls-7" d="M563.5,56.9l-51.9-.2c-7,0-12.6,5.8-12.7,13.1v9.4c0,7.3-5.7,13.1-12.7,13.1l-101.1-.5c-7,0-12.6-6-12.5-13.2v-9.4c0-7.3-5.5-13.2-12.5-13.2h-18.3c0,0-45.4-.3-45.4-.3-22.6-.1-40.9,18.1-41,40.7l-2.8,654.9c0,22.5,18.1,40.9,40.6,41l267.1,1.2c22.6.1,40.9-18.1,41-40.7l2.8-654.9c0-22.5-18.1-40.9-40.6-41Z"/>
              <path class="cls-9" d="M270.3,573.7c2.3-1.7,114-50.9,114-50.9l-130.5-65.1-.4,104.8,16.9,11.2Z"/>
              <polygon class="cls-2" points="277.2 455.7 372.3 407.3 270.1 350.6 254.3 354.5 253.9 446.3 277.2 455.7"/>
              <polygon class="cls-3" points="277.2 455.7 372.3 407.3 270.1 350.6 254.3 354.5 253.9 446.3 277.2 455.7"/>
              <polygon class="cls-9" points="257.7 344 551.1 207 260.4 112 257.7 344"/>
              <polygon class="cls-9" points="254.3 700.9 388.4 632.1 588 749.5 540.4 791.2 370.1 791.2 254.3 720.4 254.3 700.9"/>
              <polygon class="cls-9" points="414.8 624.6 580.6 722.9 599.1 720.8 599.1 626.3 508.2 578.2 414.8 624.6"/>
              <polygon class="cls-9" points="442 530.8 598.4 618.7 598.4 503.7 541.8 479.5 442 530.8"/>
              <polygon class="cls-9" points="275.1 579.2 366.8 629.5 478.1 571.9 389.6 526.9 275.1 579.2"/>
              <polygon class="cls-9" points="412.7 406.7 542.6 471 602.9 440.3 603.3 397.1 515.5 354.5 412.7 406.7"/>
              <polygon class="cls-9" points="279.9 462.8 409.8 527.2 470 496.4 470.4 453.3 382.6 410.7 279.9 462.8"/>
              <polygon class="cls-9" points="297.9 347.1 403.7 400.1 502.5 347.1 400.2 300.4 297.9 347.1"/>
              <path class="cls-6" d="M502.5,685.9s-.7-.3-1.9-1c-1.2-.7-3.1-1.7-5.5-3.1-4.8-2.8-11.9-6.9-21-12.2-18.3-10.7-44.8-26.2-77.9-45.6l-1.6-.9,1.7-.9c29-14.7,63.6-32.3,102.1-51.9v2.4c-23.6-12.6-49.4-26.3-76.3-40.6l-2.4-1.3,2.4-1.3c33.1-17.4,68.9-36.2,105.9-55.6v2.7c-4-2-8.3-4.2-12.6-6.4-88.8-45-170.9-86.7-237.2-120.4l-2.2-1.1,2.3-1.1c52.5-25,95.8-45.7,125.9-60,15.1-7.1,26.9-12.7,34.9-16.5,4-1.8,7.1-3.3,9.2-4.2,1-.5,1.8-.8,2.4-1,.5-.2.8-.3.8-.3s-.2.2-.7.5c-.5.3-1.3.7-2.3,1.2-2.1,1-5.1,2.6-9,4.6-8,3.9-19.7,9.7-34.7,17.1-30,14.6-73.1,35.6-125.4,61v-2.2c66.5,33.5,148.7,75,237.5,119.9,4.3,2.2,8.6,4.4,12.6,6.4l2.6,1.3-2.6,1.4c-37,19.4-72.8,38.1-106,55.5v-2.6c26.9,14.4,52.6,28.2,76.1,40.9l2.3,1.2-2.3,1.1c-38.6,19.4-73.3,36.8-102.4,51.4v-1.8c32.9,19.7,59.3,35.6,77.4,46.4,9,5.5,16,9.7,20.7,12.6,2.3,1.5,4.1,2.6,5.3,3.3,1.2.8,1.8,1.2,1.8,1.2Z"/>
              <path class="cls-6" d="M479.7,203.3c0-19.3-20.3-31.6-41-21.9-4.7,2.2-8.5,5.9-10.9,10.4-5.2,10.1-2.9,21.6,1.8,31.2l16.1,40.9c2.3,5.9,10.7,5.9,12.9,0l15.8-41.1c5.5-12.5,5.2-19.5,5.2-19.5ZM460.2,220.1c-13.9,8.1-28-6.9-20.4-21.6,1-2,2.6-3.6,4.4-4.7,13.9-8.1,28,6.9,20.4,21.6-1,2-2.6,3.6-4.4,4.7Z"/>
              <g>
                <polygon class="cls-5" points="448.8 414.8 448.3 392 507.8 420.8 507.8 444.5 448.8 414.8"/>
                <polygon class="cls-4" points="507.8 420.8 581.8 384.1 581.8 409.7 507.8 444.5 507.8 420.8"/>
                <polygon class="cls-5" points="448.3 392 520.8 355.7 581.8 384.1 507.8 420.8 448.3 392"/>
                <polygon class="cls-7" points="456.1 401.9 456.1 412.9 461.9 415.6 461.9 405 456.1 401.9"/>
                <polygon class="cls-7" points="465.4 406 465.4 417 471.2 419.7 471.2 409.1 465.4 406"/>
              </g>
              <g>
                <polygon class="cls-4" points="261.5 270.8 261.5 241 331.9 275.2 331.9 303.3 261.5 270.8"/>
                <polygon class="cls-5" points="331.9 275.2 419.5 231.7 419.5 262 331.9 303.3 331.9 275.2"/>
                <polygon class="cls-7" points="261.5 241 347.4 198.1 419.5 231.7 331.9 275.2 261.5 241"/>
                <polygon class="cls-7" points="270.7 252.7 270.7 265.8 277.6 268.9 277.6 256.4 270.7 252.7"/>
                <polygon class="cls-7" points="281.7 257.6 281.7 270.7 288.6 273.8 288.6 261.3 281.7 257.6"/>
              </g>
              <g>
                <path class="cls-4" d="M473.9,519.1v23.4l25.1,12.4v-24.2l-25.1-11.6Z"/>
                <polygon class="cls-4" points="531.1 515.4 499 530.8 499 554.9 531.1 537 531.1 515.4"/>
                <polygon class="cls-5" points="473.9 519.1 505.7 503.7 531.1 515.4 499 530.8 473.9 519.1"/>
                <polygon class="cls-7" points="482.8 535.9 482.8 547 488.6 549.6 488.6 539.1 482.8 535.9"/>
              </g>
              <g>
                <path class="cls-4" d="M271,507v23.4l25.1,12.4v-24.2l-25.1-11.6Z"/>
                <polygon class="cls-4" points="328.2 503.3 296.1 518.6 296.1 542.8 328.2 524.9 328.2 503.3"/>
                <polygon class="cls-5" points="271 507 302.8 491.6 328.2 503.3 296.1 518.6 271 507"/>
                <polygon class="cls-7" points="280 523.8 280 534.9 285.8 537.5 285.8 526.9 280 523.8"/>
              </g>
              <g>
                <path class="cls-5" d="M375.1,352.5v23.4l25.1,12.4v-24.2l-25.1-11.6Z"/>
                <polygon class="cls-4" points="432.3 348.8 400.2 364.1 400.2 388.3 432.3 370.4 432.3 348.8"/>
                <polygon class="cls-5" points="375.1 352.5 406.9 337.1 432.3 348.8 400.2 364.1 375.1 352.5"/>
                <polygon class="cls-4" points="384.1 369.3 384.1 380.4 389.9 383 389.9 372.4 384.1 369.3"/>
              </g>
              <g>
                <path class="cls-4" d="M347.2,553.1v23.4l25.1,12.4v-24.2l-25.1-11.6Z"/>
                <polygon class="cls-9" points="404.4 549.4 372.3 564.8 372.3 588.9 404.4 571 404.4 549.4"/>
                <polygon class="cls-5" points="347.2 553.1 379 537.7 404.4 549.4 372.3 564.8 347.2 553.1"/>
                <polygon class="cls-7" points="356.1 570 356.1 581 362 583.7 362 573.1 356.1 570"/>
              </g>
              <g>
                <path class="cls-5" d="M450.9,609.7v29.4l52.9,31.2v-30.3l-52.9-30.2Z"/>
                <polygon class="cls-4" points="544 618.2 503.8 639.9 503.8 670.2 544 647.8 544 618.2"/>
                <polygon class="cls-7" points="450.9 609.7 490.8 590.4 544 618.2 503.8 639.9 450.9 609.7"/>
                <polygon class="cls-7" points="470.9 636.9 470.9 650.8 478.2 655.1 478.2 641.4 470.9 636.9"/>
              </g>
              <g>
                <path class="cls-4" d="M323.6,670.2v29.4l52.9,31.2v-30.3l-52.9-30.2Z"/>
                <polygon class="cls-7" points="439.7 666.1 376.5 700.4 376.5 730.7 439.8 695.6 439.7 666.1"/>
                <polygon class="cls-5" points="323.6 670.2 390.4 637.8 439.8 666.3 376.5 700.4 323.6 670.2"/>
                <polygon class="cls-7" points="343.6 697.3 343.6 711.2 350.9 715.6 350.9 701.8 343.6 697.3"/>
              </g>
              <g>
                <polygon class="cls-5" points="523.9 560.4 523.9 677.6 556.9 694.7 556.9 575.9 523.9 560.4"/>
                <polygon class="cls-7" points="548.3 549.1 523.9 560.4 556.9 575.9 579.2 563.4 548.3 549.1"/>
                <polygon class="cls-4" points="556.9 575.9 556.9 694.7 577 683.9 579.2 563.4 556.9 575.9"/>
              </g>
              <g>
                <polygon class="cls-5" points="384.3 465.4 384.3 582.6 417.3 599.7 417.3 480.9 384.3 465.4"/>
                <polygon class="cls-7" points="408.7 454.1 384.3 465.4 417.3 480.9 439.6 468.4 408.7 454.1"/>
                <polygon class="cls-4" points="417.3 480.9 417.3 599.7 437.4 589.8 439.6 468.4 417.3 480.9"/>
              </g>
              <g>
                <path class="cls-4" d="M399.3,688.4v29.4l52.9,31.2v-30.3l-52.9-30.2Z"/>
                <polygon class="cls-7" points="492.5 696.9 452.2 718.6 452.2 748.9 492.5 726.5 492.5 696.9"/>
                <polygon class="cls-5" points="399.3 688.4 439.7 666.1 492.5 696.9 452.2 718.6 399.3 688.4"/>
                <polygon class="cls-7" points="419.3 715.6 419.3 729.4 426.6 733.8 426.6 720.1 419.3 715.6"/>
              </g>
              <path class="cls-4" d="M409.6,295.4"/>
              <polygon class="cls-9" points="517 338.3 420.6 294.8 554.8 226.5 598.9 292.2 517 338.3"/>
              <polygon class="cls-2" points="602.8 378.2 603.4 303 528.7 345.5 602.8 378.2"/>
              <g>
                <path class="cls-4" d="M546,453.5c0,3.2-2.6,5.7-5.7,5.7s-5.7-2.6-5.7-5.7,2.6-5.7,5.7-5.7,5.7,2.6,5.7,5.7Z"/>
                <path class="cls-4" d="M540.3,466c-.3,0-.5-2.8-.5-6.3s.2-6.3.5-6.3.5,2.8.5,6.3-.2,6.3-.5,6.3Z"/>
              </g>
              <g>
                <path class="cls-4" d="M390,439.5c0,3.2-2.6,5.7-5.7,5.7s-5.7-2.6-5.7-5.7,2.6-5.7,5.7-5.7,5.7,2.6,5.7,5.7Z"/>
                <path class="cls-4" d="M384.3,452c-.3,0-.5-2.8-.5-6.3s.2-6.3.5-6.3.5,2.8.5,6.3-.2,6.3-.5,6.3Z"/>
              </g>
              <g>
                <path class="cls-4" d="M313.6,519.3c0,3.2-2.6,5.7-5.7,5.7s-5.7-2.6-5.7-5.7,2.6-5.7,5.7-5.7,5.7,2.6,5.7,5.7Z"/>
                <path class="cls-4" d="M307.9,531.8c-.3,0-.5-2.8-.5-6.3s.2-6.3.5-6.3.5,2.8.5,6.3-.2,6.3-.5,6.3Z"/>
              </g>
              <g>
                <path class="cls-4" d="M319.4,457.7c0,3.2-2.6,5.7-5.7,5.7s-5.7-2.6-5.7-5.7,2.6-5.7,5.7-5.7,5.7,2.6,5.7,5.7Z"/>
                <path class="cls-4" d="M313.6,470.2c-.3,0-.5-2.8-.5-6.3s.2-6.3.5-6.3.5,2.8.5,6.3-.2,6.3-.5,6.3Z"/>
              </g>
              <g>
                <path class="cls-4" d="M460.5,452c0,3.2-2.6,5.7-5.7,5.7s-5.7-2.6-5.7-5.7,2.6-5.7,5.7-5.7,5.7,2.6,5.7,5.7Z"/>
                <path class="cls-4" d="M454.7,464.6c-.3,0-.5-2.8-.5-6.3s.2-6.3.5-6.3.5,2.8.5,6.3-.2,6.3-.5,6.3Z"/>
              </g>
              <g>
                <path class="cls-4" d="M550.8,494.9c0,3.2-2.6,5.7-5.7,5.7s-5.7-2.6-5.7-5.7,2.6-5.7,5.7-5.7,5.7,2.6,5.7,5.7Z"/>
                <path class="cls-4" d="M545,507.4c-.3,0-.5-2.8-.5-6.3s.2-6.3.5-6.3.5,2.8.5,6.3-.2,6.3-.5,6.3Z"/>
              </g>
              <g>
                <path class="cls-4" d="M554.4,528.5c0,3.2-2.6,5.7-5.7,5.7s-5.7-2.6-5.7-5.7,2.6-5.7,5.7-5.7,5.7,2.6,5.7,5.7Z"/>
                <path class="cls-4" d="M548.7,541c-.3,0-.5-2.8-.5-6.3s.2-6.3.5-6.3.5,2.8.5,6.3-.2,6.3-.5,6.3Z"/>
              </g>
              <g>
                <path class="cls-4" d="M394.1,598.3c0,3.2-2.6,5.7-5.7,5.7s-5.7-2.6-5.7-5.7,2.6-5.7,5.7-5.7,5.7,2.6,5.7,5.7Z"/>
                <path class="cls-4" d="M388.4,610.8c-.3,0-.5-2.8-.5-6.3s.2-6.3.5-6.3.5,2.8.5,6.3-.2,6.3-.5,6.3Z"/>
              </g>
              <g>
                <circle class="cls-4" cx="576.2" cy="698" r="5.7"/>
                <path class="cls-4" d="M576.2,710.5c-.3,0-.5-2.8-.5-6.3s.2-6.3.5-6.3.5,2.8.5,6.3-.2,6.3-.5,6.3Z"/>
              </g>
              <g>
                <path class="cls-4" d="M472.7,760.5c0,3.2-2.6,5.7-5.7,5.7s-5.7-2.6-5.7-5.7,2.6-5.7,5.7-5.7,5.7,2.6,5.7,5.7Z"/>
                <path class="cls-4" d="M467,773c-.3,0-.5-2.8-.5-6.3s.2-6.3.5-6.3.5,2.8.5,6.3-.2,6.3-.5,6.3Z"/>
              </g>
              <g>
                <path class="cls-4" d="M428.7,743.2c0,3.2-2.6,5.7-5.7,5.7s-5.7-2.6-5.7-5.7,2.6-5.7,5.7-5.7,5.7,2.6,5.7,5.7Z"/>
                <path class="cls-4" d="M422.9,755.8c-.3,0-.5-2.8-.5-6.3s.2-6.3.5-6.3.5,2.8.5,6.3-.2,6.3-.5,6.3Z"/>
              </g>
              <g>
                <path class="cls-4" d="M529.6,730.7c0,3.2-2.6,5.7-5.7,5.7s-5.7-2.6-5.7-5.7,2.6-5.7,5.7-5.7,5.7,2.6,5.7,5.7Z"/>
                <path class="cls-4" d="M523.9,743.2c-.3,0-.5-2.8-.5-6.3s.2-6.3.5-6.3.5,2.8.5,6.3-.2,6.3-.5,6.3Z"/>
              </g>
              <g>
                <circle class="cls-4" cx="437.8" cy="620.6" r="5.7"/>
                <path class="cls-4" d="M437.8,633.1c-.3,0-.5-2.8-.5-6.3s.2-6.3.5-6.3.5,2.8.5,6.3-.2,6.3-.5,6.3Z"/>
              </g>
              <g>
                <path class="cls-4" d="M458,564.8c0,3.2-2.6,5.7-5.7,5.7s-5.7-2.6-5.7-5.7,2.6-5.7,5.7-5.7,5.7,2.6,5.7,5.7Z"/>
                <path class="cls-4" d="M452.2,577.3c-.3,0-.5-2.8-.5-6.3s.2-6.3.5-6.3.5,2.8.5,6.3-.2,6.3-.5,6.3Z"/>
              </g>
              <g>
                <path class="cls-4" d="M319.4,571c0,3.2-2.6,5.7-5.7,5.7s-5.7-2.6-5.7-5.7,2.6-5.7,5.7-5.7,5.7,2.6,5.7,5.7Z"/>
                <path class="cls-4" d="M313.6,583.6c-.3,0-.5-2.8-.5-6.3s.2-6.3.5-6.3.5,2.8.5,6.3-.2,6.3-.5,6.3Z"/>
              </g>
              <g>
                <path class="cls-4" d="M583.4,519.3c0,3.2-2.6,5.7-5.7,5.7s-5.7-2.6-5.7-5.7,2.6-5.7,5.7-5.7,5.7,2.6,5.7,5.7Z"/>
                <path class="cls-4" d="M577.7,531.8c-.3,0-.5-2.8-.5-6.3s.2-6.3.5-6.3.5,2.8.5,6.3-.2,6.3-.5,6.3Z"/>
              </g>
              <g>
                <path class="cls-4" d="M568.1,433.8c0,3.2-2.6,5.7-5.7,5.7s-5.7-2.6-5.7-5.7,2.6-5.7,5.7-5.7,5.7,2.6,5.7,5.7Z"/>
                <path class="cls-4" d="M562.3,446.3c-.3,0-.5-2.8-.5-6.3s.2-6.3.5-6.3.5,2.8.5,6.3-.2,6.3-.5,6.3Z"/>
              </g>
              <g>
                <circle class="cls-4" cx="446.6" cy="358.2" r="5.7"/>
                <path class="cls-4" d="M446.6,370.7c-.3,0-.5-2.8-.5-6.3s.2-6.3.5-6.3.5,2.8.5,6.3-.2,6.3-.5,6.3Z"/>
              </g>
              <g>
                <path class="cls-4" d="M343,466c0,3.2-2.6,5.7-5.7,5.7s-5.7-2.6-5.7-5.7,2.6-5.7,5.7-5.7,5.7,2.6,5.7,5.7Z"/>
                <path class="cls-4" d="M337.3,478.6c-.3,0-.5-2.8-.5-6.3s.2-6.3.5-6.3.5,2.8.5,6.3-.2,6.3-.5,6.3Z"/>
              </g>
              <g>
                <path class="cls-4" d="M410.1,317.4c0,3.2-2.6,5.7-5.7,5.7s-5.7-2.6-5.7-5.7,2.6-5.7,5.7-5.7,5.7,2.6,5.7,5.7Z"/>
                <path class="cls-4" d="M404.4,329.9c-.3,0-.5-2.8-.5-6.3s.2-6.3.5-6.3.5,2.8.5,6.3-.2,6.3-.5,6.3Z"/>
              </g>
              <g>
                <path class="cls-4" d="M526.7,304.8c0,3.2-2.6,5.7-5.7,5.7s-5.7-2.6-5.7-5.7,2.6-5.7,5.7-5.7,5.7,2.6,5.7,5.7Z"/>
                <path class="cls-4" d="M521,317.4c-.3,0-.5-2.8-.5-6.3s.2-6.3.5-6.3.5,2.8.5,6.3-.2,6.3-.5,6.3Z"/>
              </g>
              <g>
                <path class="cls-4" d="M559,299.5c0,3.2-2.6,5.7-5.7,5.7s-5.7-2.6-5.7-5.7,2.6-5.7,5.7-5.7,5.7,2.6,5.7,5.7Z"/>
                <path class="cls-4" d="M553.2,312.1c-.3,0-.5-2.8-.5-6.3s.2-6.3.5-6.3.5,2.8.5,6.3-.2,6.3-.5,6.3Z"/>
              </g>
              <g>
                <path class="cls-4" d="M546,257.4c0,3.2-2.6,5.7-5.7,5.7s-5.7-2.6-5.7-5.7,2.6-5.7,5.7-5.7,5.7,2.6,5.7,5.7Z"/>
                <path class="cls-4" d="M540.3,269.9c-.3,0-.5-2.8-.5-6.3s.2-6.3.5-6.3.5,2.8.5,6.3-.2,6.3-.5,6.3Z"/>
              </g>
              <g>
                <path class="cls-4" d="M366.5,354.5c0,3.2-2.6,5.7-5.7,5.7s-5.7-2.6-5.7-5.7,2.6-5.7,5.7-5.7,5.7,2.6,5.7,5.7Z"/>
                <path class="cls-4" d="M360.8,367.1c-.3,0-.5-2.8-.5-6.3s.2-6.3.5-6.3.5,2.8.5,6.3-.2,6.3-.5,6.3Z"/>
              </g>
              <g>
                <path class="cls-4" d="M499.4,300.4c0,3.2-2.6,5.7-5.7,5.7s-5.7-2.6-5.7-5.7,2.6-5.7,5.7-5.7,5.7,2.6,5.7,5.7Z"/>
                <path class="cls-4" d="M493.7,313c-.3,0-.5-2.8-.5-6.3s.2-6.3.5-6.3.5,2.8.5,6.3-.2,6.3-.5,6.3Z"/>
              </g>
              <g>
                <path class="cls-4" d="M338.8,171.7c0,3.2-2.6,5.7-5.7,5.7s-5.7-2.6-5.7-5.7,2.6-5.7,5.7-5.7,5.7,2.6,5.7,5.7Z"/>
                <path class="cls-4" d="M333.1,184.2c-.3,0-.5-2.8-.5-6.3s.2-6.3.5-6.3.5,2.8.5,6.3-.2,6.3-.5,6.3Z"/>
              </g>
              <g>
                <path class="cls-4" d="M404.4,203c0,3.2-2.6,5.7-5.7,5.7s-5.7-2.6-5.7-5.7,2.6-5.7,5.7-5.7,5.7,2.6,5.7,5.7Z"/>
                <path class="cls-4" d="M398.7,215.5c-.3,0-.5-2.8-.5-6.3s.2-6.3.5-6.3.5,2.8.5,6.3-.2,6.3-.5,6.3Z"/>
              </g>
              <g>
                <path class="cls-4" d="M300.1,301.9c0,3.2-2.6,5.7-5.7,5.7s-5.7-2.6-5.7-5.7,2.6-5.7,5.7-5.7,5.7,2.6,5.7,5.7Z"/>
                <path class="cls-4" d="M294.4,314.4c-.3,0-.5-2.8-.5-6.3s.2-6.3.5-6.3.5,2.8.5,6.3-.2,6.3-.5,6.3Z"/>
              </g>
              <g>
                <path class="cls-4" d="M305.9,208.7c0,3.2-2.6,5.7-5.7,5.7s-5.7-2.6-5.7-5.7,2.6-5.7,5.7-5.7,5.7,2.6,5.7,5.7Z"/>
                <path class="cls-4" d="M300.1,221.2c-.3,0-.5-2.8-.5-6.3s.2-6.3.5-6.3.5,2.8.5,6.3-.2,6.3-.5,6.3Z"/>
              </g>
              <polygon class="cls-9" points="551.9 475.3 599.1 450.3 598.9 495.4 551.9 475.3"/>
              <polygon class="cls-9" points="356.1 635.1 252.9 688.4 252.9 588.9 264.3 583.8 356.1 635.1"/>
              <path class="cls-6" d="M510.4,688.4c0,3.6-2.9,6.6-6.6,6.6s-6.6-2.9-6.6-6.6,2.9-6.6,6.6-6.6,6.6,2.9,6.6,6.6Z"/>
              <polygon class="cls-9" points="570.7 218 603.6 228 603.6 279.8 570.7 218"/>
              <path class="cls-2" d="M603.9,148.8l-.2-56.6c-2.7-19.9-19.6-35.2-40.2-35.3l-51.9-.2c-7,0-12.6,5.8-12.7,13.1v9.4c0,7.3-5.7,13.1-12.7,13.1l-101.1-.5c-7,0-12.6-6-12.5-13.2v-9.4c0-7.3-5.5-13.2-12.5-13.2h-18.2c0,0-45.4-.3-45.4-.3-10.7,0-20.4,4-27.7,10.7-4.6,8.8-9.5,21.2-7.2,30.8l342.2,111.4.3-59.8Z"/>
              <path class="cls-3" d="M603.9,148.8l-.2-56.6c-2.7-19.9-19.6-35.2-40.2-35.3l-51.9-.2c-7,0-12.6,5.8-12.7,13.1v9.4c0,7.3-5.7,13.1-12.7,13.1l-101.1-.5c-7,0-12.6-6-12.5-13.2v-9.4c0-7.3-5.5-13.2-12.5-13.2h-18.2c0,0-45.4-.3-45.4-.3-10.7,0-20.4,4-27.7,10.7-4.6,8.8-9.5,21.2-7.2,30.8l342.2,111.4.3-59.8Z"/>
            </g>
          </g>
          <path class="cls-1" d="M563.5,56.9s.5,0,1.4,0c.9,0,2.3,0,4.1.3,3.6.4,9.1,1.6,15.3,5.4,3.1,1.8,6.3,4.3,9.3,7.6,3,3.3,5.7,7.3,7.7,12.2,2,4.9,3.1,10.5,3,16.6,0,6,0,12.4,0,19.2-.2,54.4-.5,133.1-.8,230.4-.4,97.3-.8,213.1-1.3,341.7,0,16.1-.1,32.3-.2,48.8,0,4.1,0,8.2,0,12.4,0,4.1-.3,8.4-1.6,12.4-1.2,4-2.9,8-5.3,11.5-2.4,3.5-5.2,6.7-8.5,9.4-6.6,5.3-15,8.7-23.6,9-2.2.1-4.3.1-6.4,0h-6.4c-4.3,0-8.6,0-12.8,0-17.2,0-34.5-.2-52-.2-35-.2-70.6-.3-106.7-.5-18.1,0-36.3-.2-54.6-.3-9.2,0-18.3,0-27.6-.1-9.3.4-18.8-2-26.5-7.4-7.7-5.4-13.4-13.4-16.1-22.4-1.4-4.5-1.7-9.2-1.6-13.8,0-4.6,0-9.2,0-13.8,0-18.3.2-36.5.2-54.6.2-36.1.3-71.8.5-106.8.3-70,.6-137.5.9-201.8.3-64.3.6-125.4.8-182.6.1-28.6.3-56.2.4-82.8,0-3.3,0-6.6,0-9.9,0-1.6.2-3.3.2-4.9.3-1.6.4-3.3.9-4.9,1.5-6.4,4.5-12.3,8.6-17.2,4.2-4.9,9.4-8.7,15.2-11.2,5.8-2.6,12.1-3.5,18.1-3.4,12.2,0,24,.1,35.6.2,5.8,0,11.5,0,17.1,0,2.8,0,5.6,0,8.4,0,2.8-.1,5.7.7,8,2.3,2.3,1.6,4.1,3.9,5,6.6,1,2.6.8,5.4.8,8.1,0,1.3,0,2.7,0,4,0,1.3,0,2.6.1,3.9.3,2.5,1.4,5,3,6.9,1.6,1.9,3.8,3.3,6.2,3.9,1.2.3,2.4.4,3.7.4,1.3,0,2.5,0,3.8,0,5,0,9.9,0,14.7,0,19.3.1,37.3.2,53.8.3,8.3,0,16.2,0,23.7.1,1.9,0,3.8.1,5.6,0,1.8-.2,3.5-.8,5-1.7,3-1.9,5.1-5,5.8-8.2.4-1.6.3-3.3.3-5,0-1.7,0-3.3,0-4.9,0-1.6,0-3.2.2-4.8.3-1.6.8-3,1.6-4.4,1.5-2.7,3.9-4.7,6.5-5.7,2.7-1.2,5.5-.8,8.1-.8,10.5,0,19.3.1,26.5.2,7.2,0,12.6,0,16.3.1,3.7,0,5.5,0,5.5,0,0,0-1.9,0-5.5,0-3.7,0-9.1,0-16.3,0-7.2,0-16,0-26.5,0-2.6,0-5.4-.3-8,.8-2.6,1-4.9,3-6.3,5.6-.7,1.3-1.2,2.7-1.5,4.3-.3,1.5-.2,3.1-.2,4.7,0,1.6,0,3.2,0,4.9,0,1.6,0,3.4-.3,5-.7,3.4-2.8,6.6-5.9,8.5-1.5,1-3.3,1.6-5.2,1.8-1.9.2-3.7,0-5.6,0-7.5,0-15.5,0-23.7,0-16.5,0-34.5-.1-53.8-.2-4.8,0-9.7,0-14.7,0-1.2,0-2.5,0-3.8,0-1.2,0-2.6,0-3.8-.4-2.5-.6-4.9-2.1-6.6-4.1-1.7-2-2.8-4.5-3.2-7.2-.2-1.3-.1-2.7-.1-4,0-1.3,0-2.6,0-4,0-2.7.2-5.4-.8-7.8-.9-2.5-2.5-4.7-4.7-6.2-2.2-1.5-4.9-2.3-7.6-2.1-2.8,0-5.6,0-8.4,0-5.6,0-11.3,0-17.1,0-11.6,0-23.4,0-35.6-.1-6,0-12.2.8-17.9,3.3-5.6,2.5-10.8,6.3-14.9,11.1-4.1,4.8-7,10.7-8.5,16.9-.4,1.6-.5,3.2-.8,4.8,0,1.6-.2,3.2-.2,4.9,0,3.3,0,6.6,0,9.9-.1,26.5-.2,54.2-.3,82.8-.2,57.2-.5,118.3-.7,182.6-.3,64.3-.5,131.8-.8,201.8-.1,35-.3,70.6-.4,106.8,0,18.1-.2,36.3-.2,54.6,0,4.6,0,9.2,0,13.8,0,4.6.2,9.1,1.6,13.5,2.6,8.7,8.1,16.6,15.7,21.8,7.6,5.3,16.8,7.7,25.9,7.3,9.2,0,18.4,0,27.6.1,18.3,0,36.5.2,54.6.3,36.1.2,71.7.3,106.7.5,17.5,0,34.8.2,52,.2,4.3,0,8.6,0,12.8,0h6.4c2.1,0,4.3,0,6.4,0,8.4-.4,16.5-3.7,23-8.8,3.2-2.6,6-5.7,8.3-9.2,2.3-3.4,4-7.3,5.1-11.2,1.2-3.9,1.5-8.1,1.6-12.2,0-4.1,0-8.3,0-12.4,0-16.5.1-32.7.2-48.8.6-128.6,1.1-244.4,1.6-341.7.5-97.3.9-176,1.1-230.4,0-6.8,0-13.2.1-19.2,0-6-.9-11.6-2.9-16.5-1.9-4.8-4.7-8.9-7.6-12.2-3-3.2-6.1-5.8-9.2-7.6-6.1-3.7-11.6-5-15.2-5.4-1.8-.4-3.2-.3-4.1-.4-.9,0-1.4-.1-1.4-.1Z"/>
        </g>
      </g>
    </g>
  </g>
</svg>