<?xml version="1.0" encoding="UTF-8"?>
<svg id="Layer_1" data-name="Layer 1" xmlns="http://www.w3.org/2000/svg" version="1.1" viewBox="0 0 356 810">
  <defs>
    <style>
      .cls-1 {
        fill: #f6e6cd;
        stroke-width: 0px;
      }
    </style>
  </defs>
  <path class="cls-1" d="M234,810c1.3-2.7,3.1-4.9,6.5-5.9-2.2-1.7-4.5-3.1-6.3-5-4.5-4.8-7.5-10.6-9.8-16.7-1.7-4.6-2.1-9.2-.6-14.1,1.6-5.4,2.1-11.1,3.2-16.6.3-1.3,1.3-2.4,2.2-4.1.5,1.1.9,1.5.9,1.9-.8,10.9,4.6,18.6,12.6,25.3,5.3,4.4,11.4,6,17.8,7.1,6.8,1.1,13.8,1.6,20.7,2.4.1-.3.2-.6.4-.9-1.2-2.3-2.4-4.7-3.7-7-9.4-15.4-16.4-32.1-23.6-48.6-1.9-4.3-3.4-8.8-5.5-13-3-5.9-2.5-11.4.6-17,3.1-5.7,5.8-11.6,8.9-17.2,1.2-2.2,2.4-4.9,6.6-5.2-.6,1.9-.7,3.7-1.7,4.8-3.2,3.8-4.2,7.7-1.5,12.6,3.3-6.5,7.6-12.5,7.4-19.7-.2-5.9-3.1-11.3-6.8-16-10-12.8-20.3-25.4-30.1-38.3-6-7.9-11.4-16.3-17.4-24.9-1.3,3-2.6,5.6-3.7,8.3-3.4,8.4-8.3,15.8-14.6,22.2-4.1,4.1-8,4.1-12.9.9-7.2-4.7-10.6-11.6-11.6-20.1-1.1-9.2,2.7-16.9,6.6-24.6,2-3.9,3.5-8.1,5.6-12,.8-1.5,2.7-2.4,4.1-3.6.4.3.8.5,1.3.8-.5,1.6-.7,3.4-1.5,4.9-5.6,9.7-1.1,23.6,9.3,27.7,1.5.6,3.9.5,5.2-.3,3.5-2.3,6.7-5.1,9.6-7.4-5.1-8.8-9.5-17.1-14.6-25.1-4.2-6.6-2.9-12.6.3-18.9,2.3-4.6,4.1-9.4,6.1-14.1.8-1.8,1.7-3.5,2.8-5.8-2.4.3-4.6.6-6.8.8-15.1,1.2-28.9-2.5-40.7-12.2-4.6-3.8-9.6-7.6-13.2-12.4-5-6.5-10.8-13-11.3-21.8-.2-3.5,0-7.2.8-10.6,1.5-6.1,3.5-12,5.4-18,.7-2,1.6-3.9,2.6-6.2-.9-.7-2-1.6-3.2-2.4-10.8-7.7-18.7-18-24.6-29.6-4.6-9.1-6.6-18.8-5-29.3.9-5.7,2.7-10.7,5.5-15.7,2.8-5,4.4-10.7,6.6-16.1,6.1-8.8,12.6-17.3,20.6-24.4,6.5-5.8,14.7-6.4,22.8-4.7,8.1,1.7,15.6,5.2,22.2,10.4,3.1-7.1.7-14.7-6.3-18.9-2.3-1.4-2.7-2.9-2.7-5.2,0-6.7-.1-13.3-.3-20,0-3.1,1.2-4.2,4.1-3.2,1,.3,2,.7,2.8,1.3,8.1,6.5,13.9,14.4,13.2,25.5,0,1.6-.7,3.2-1.2,4.7-2.1,6-4.2,12-6.2,18-.2.6,0,1.6.4,2.2,3,4.3,6,8.5,9.4,13.3,0-7.2,2.8-13.5,6.8-19.1,4-5.6,8.4-10.8,12.6-16.2-3.8-3.1-8-5.9-11.6-9.5-8.3-8.3-17-16.2-23-26.5-7.6-13.1-13-26.8-10.8-42.3,1-7.3,4.6-14,9.3-19.6,3.4-4.1,2.9-7.4,0-11.1h0c-1.7-5.3-3.1-10.8-5-16.1-3.5-9.4-2-18.3,2.4-26.9.3-.6.6-1.1.9-1.6.2-.4.5-.9.7-1.3-.2-.3-.4-.7-.6-.7-5.1-.2-8.4-3.6-11.7-6.7-9.2-8.8-17.9-18-22.1-30.4-2.9-8.4-4.3-17.1-4.7-26-.4-10.2,3.9-19.1,8.5-27.8,6.2-11.7,15.2-20.5,25.8-28.2,16-11.6,33.6-19.5,53-23.3,5.6-1.1,11.5-1.1,17.2-1.6,1.1,0,2.2-.2,3.3-.4-2.8-5.6-1.8-11.2-1.5-16.7h29.7c.6.6,1.1,1.1,1.7,1.7,10.8,9.6,12.8,19,8,32.2-1.4,4-4.2,7.5-6.2,11.3-4,7.5-8.6,14.5-14,21.1-1.2,1.5-2.1,3.3-3.6,5.6-.5-1.5-.9-2.1-.8-2.6,1-5.5-2-9.4-5.4-13.1-2.4-2.6-5.1-5-6.8-8-2-3.7-4.9-4.1-8.4-4-16,.5-31.1,3.8-45.5,11.3-15.9,8.4-29,19.5-38.2,35.1-5.3,9-8,18.7-5.6,29.3,2.3,10,7.1,18.7,13.4,26.5,4.4,5.4,9.4,10.3,15.6,13.7,1.4-1.6,2.7-2.9,3.7-4.4.5-.8,1-2.3.6-3.1-2.4-5.8-3.8-11.8-3.1-18.1.6-4.8,1.3-9.4,5.4-13,3.6-3.2,6.5-7.3,9.8-10.9.9-1,2-2.3,3.3-2.7,1.4-.4,3.1,0,4.6,0-.6,1.2-1.1,2.5-1.8,3.6-.5.9-1.7,1.4-2,2.3-1,2.8-2.8,5.9-2.5,8.6.6,5.3,2.4,10.5,3.8,15.8.7-.2,1-.2,1.1-.3,7.9-5.4,15.8-10.8,23.6-16.3,2.6-1.8,4.7-3.8,4.8-7.9,0-6.6,1-13.1,2.1-19.6,1.7-10.1,9.6-16.6,19.5-16.3,4.8.2,9.8.5,14.4,1.8,8.9,2.5,17.1,2.3,24.6-3.7.4-.3,1-.4,2.1-.7-.6,1.3-.8,2.1-1.2,2.8-3.1,6.4-6.3,12.9-9.5,19.3-1.1,2.3-2,4.7-3.5,6.8-5.1,7.5-12.4,12.7-19.4,18-10.2,7.7-21,14.8-31.5,22.2-6.4,4.5-12.8,9.2-19,13.7,4.7,11.3,9.2,21.6,13.2,32.2,3,7.9,5.3,16.2,5.3,24.8,0,1.6-.1,3.5-.9,4.8-2.2,3.4-4.8,6.6-7.4,9.8-4.3,5.4-8.6,10.8-13,16.2-.2-.2-.5-.4-.7-.6,4.5-13,5-16.3,3.6-24.5-1.8-10.4-4.8-19.2-8.6-24.3-3.2,6.6-7.1,12.6-9.1,19.3-3.3,10.9-6,22.2-.3,33.3,3.1,6,6.4,12,9.6,18,.4,0,.8,0,1.2,0,2.8-14.7,14.5-16.4,26.2-18.4-.2-12.6,6.8-21.1,15.9-28.6,2.5-2.1,4.7-4.6,6.8-7.1,4.7-5.8,10.8-8.4,18.1-8.1,11.6.5,19.3,11.8,16.4,21.4-.6,1.9-.8,4-1.3,6.5,3.9-3,7.6-5.6,11.1-8.4.5-.4.9-1.4.8-2-.5-3.4-1.3-6.8-1.8-10.3-1.2-7.4-.9-14.8.6-22.1.6-2.8,1.2-6.2,5.8-7-3.8,12.3,2.7,20.8,9.7,29.5,1.9-1.8,3.5-3.3,4.4-4.1-2.8-4.8-6-8.9-7.8-13.6-1.4-3.8-1.4-8.2-1.4-12.3,0-4.9.6-9.8,1.1-14.8.4-4.1,1-8.2,1.6-12.4,2,.8,3.3,1.5,4.8,1.9,7.2,1.9,13.4,5.6,19.6,9.7,5.1,3.3,7.3,7.9,7.3,14,0,3.9.2,8,1.5,11.5,1.5,4.2,4.2,8,6.5,11.9.3.6,1.3.8,1.9,1.1v13.6c-3.9,4.4-7.8,8.8-12.1,13.7,0-5.2.6-10.5-3.6-14-2.7,2.5-5.1,5-7.8,7.2-1.9,1.5-1.6,2.5-.2,4.2,8,9.3,15.8,18.6,23.7,28v61.9c-1.9,3.1-3.8,6.1-6.1,9.7.2-1.7.6-3.4.4-3.4-2.7-.9-1.2-2.9-.9-4.2,1-4,2.7-7.9,3.3-12,.4-2.7,0-5.9-1.1-8.5-2-4.8-2.1-10.4-5.7-14.5-.2-.2-.2-.8-.1-.8,2.4-1.5-.6-2-.8-3,.1.6.3,1.1.4,1.7-1.9-2.5-3.1-5.4-4.8-7.9-2.3-3.4-4.9-6.6-7.3-9.9-.4-.5-.2-1.5-.6-2-2.2-2.7-4.7-5.1-6.8-7.9-3.6-4.8-7.1-9.8-10.6-14.7-1.2,1.1-2.1,2-3,2.8-7.4,6.3-14.7,12.7-22.1,18.8-7.2,6-9.2,14.5-12.2,23.2-2.4-7.2-4.8-14.4-7.2-22-5.9,5.3-13.4,5.2-20.8,5.4-7.1.2-14.2,0-21.3,0-5.1,0-10.2,0-15.2,2.2,10.8,11.9,24.2,19.6,37.5,27.5-2.9-6.5-5.7-13-8.6-19.6,3.2-1.1,5.8-1.7,8.1-2.7,4.9-2.3,9.6-4.9,14.5-7.3,3.3-1.6,4.6-1.1,6,2.2,1.6,4,3.2,8,4.9,12,1.3,3.2,2.7,6.3,3.8,8.8,2.2-3,4.5-5.8,6.6-8.8,2-2.8,3.8-5.8,5.9-8.6,1.8-2.4,3.8-4.8,6.1-6.8.8-.7,2.5-.4,3.9-.6-.4,1.2-.6,2.5-1.2,3.5-.6,1-1.5,1.6-2.3,2.5-3.3,3.5-4.3,7.5-2,11.9,2.1,3.8,4.4,7.4,6.7,11.1,3.9,6.3,8.9,12.1,10.3,19.6.5,3,.5,6.8-.9,9.2-3.8,6.3-8.2,12.2-12.9,17.9-2.9,3.5-6.5,6.5-9.9,9.5-2.3,2-4.9,3.5-7.3,5.4-3.3,2.5-6.5,5.1-10.4,8.2-.3-3.2-.4-5.6-.8-8-1.3-7.7-6.4-12.8-12.2-17.2-6.9-5.3-14.2-10.2-21.4-15.2-3.4-2.4-6.1-6-10.7-6.1-7.6,12.8-3.4,31.2,8.6,40.2,8.1,6.1,17.3,8.6,27,9.7,25.7,2.7,50.8,0,75-9.2,5-1.9,9.9-4.4,14.9-6.7-.8-1.8-1.3-2.9-1.8-4.1-2.1-5.3-2.4-10.4,1.9-14.9,1.3-1.4,2.5-3,3.8-4.5v28.5c-.5-.3-.9-.7-1.8-1.3-.7,3.6-.3,6.7,1.8,9.4v43.3c-3.4,2.8-6.8,5.5-10.1,8.3-.3-.2-.6-.3-.9-.5,3.2-6.3,1.3-12.1-1.6-17.5-3.7-6.7-8.7-12.7-7.9-21.2-2.6,1.3-4.8,2.4-7,3.5-12.9,6.4-27.2,8.1-41,11.2-15,3.4-30.3,2.5-45.6.7-4-.5-5-.2-6.1,3.6-.4,1.5,0,3.7.8,5.2,6.1,10.6,12.3,21,18.5,31.5,2.8,4.7,3.8,10.1.8,14.7-5.9,9-12.3,17.7-19,26.1-3.9,4.8-8.8,8.8-13.2,13.1-1.2,1.2-2.5,2.2-3.6,3.2-1.3-2-2.5-3.5-3.4-5.1-.6-1.3-.4-3.3-1.4-4.1-3.8-3.5-7.4-7.4-11.9-9.7-9-4.7-18.4-8.5-27.7-12.6-6.7-3-13.5-5.8-20.2-8.9-2.8-1.3-5.4-2.9-8-4.3-2.2,3.2-2.2,6.4-1.5,9.7,2.4,12.3,8.5,22.2,18.8,29.4,10.1,7.1,21,11.4,33.7,11,13-.5,25.8-2.5,38.5-5.5,11.3-2.6,22-6.9,31.5-13.7,1.4-1,3.2-1.5,4.9-2.3,2.1,2.5.2,4.5,0,6.6-.1.9-.3,2.2.1,2.8,3.3,4.1,6.5,8.3,10.1,12,5.5,5.7,6,5.4,11-1,2.8-3.5,6-6.8,9.4-9.7,3.6-3,4.4-2.8,7.9.3,1.8,1.5,3.5,3.1,5.3,4.7,4,3.5,8,7,12.1,10.6,3.1-5.8,2.9-8.3-1.1-12.5-3.7-3.8-7.8-7.3-11.6-11.1-2.6-2.5-5.1-5.1-7.4-7.8-1.7-2-2-4.4-1.2-7.2,2-6.9,7.3-12.7,7.3-20.4,0-.8.6-1.9,1.3-2.4,1.2-.9,2.7-1.4,4.1-2.1-.1,1.4.1,3.1-.5,4.2-1.5,2.5-1.3,4.8.5,6.8,5,5.6,10.2,11.2,15.7,17.3,2.6-7.5,2.7-13.9-1.4-19.8-2.2-3.2-4.8-6.2-7.1-9.3-3.4-4.5-6.8-9.1-10.1-13.6-2.9-3.9-2.2-8.1-1-12.3,1.9-6.7,6.2-12.5,7-19.6.4-3.7,3.3-5.1,6.6-4.1-.2.8-.2,1.8-.7,2.6-2,3.3-1.5,6.6.4,9.6,2.8,4.6,5.8,9,8.8,13.4,3.3,4.8,7.1,9.4,10,14.4,3.6,6.2,3.6,13.2,1.1,19.7-2.9,7.3-6.9,14.2-10.5,21.3,5.1,6.3,5.3,16.4,0,23.8-1.3,1.8-2.1,4-3.2,6-2.9,4.7-5.7,9.6-9,13.9-3.5,4.6-7.7,8.7-11.6,13.1-1.2,1.4-2.2,1.4-3.6.2-5.2-4.7-10.5-9.2-16.1-14-5.2,5.9-10.5,11.8-16.2,18.3-6.9-7.3-13.3-14.2-19.8-21.1-14.1,8.8-29.8,13.2-46.1,15.8-.8.1-1.9.3-2.1.8-2.3,4.5-4.7,8.7-2.1,14.5,7.2,16.1,17.5,30.2,27.5,44.6,3.5,5,6.9,10,10.5,14.9,3,4.2,6.1,8.2,9.5,12.9,1.7-4.2,2.8-7.8,4.6-11,6.8-12.7-1.7-32.7-12.7-38.7-5.6-3-10.9-6.3-16.1-9.4,2.2-8.1,4.4-15.9,6.5-23.7.5-1.8,1.3-2.7,3.3-1.6,5.5,2.8,11.1,5.6,16.6,8.3,6.9,3.4,11.6,9.1,15.5,15.5,3.7,6.1,4.7,12.8,4.2,19.8-.3,3.9-.7,8-1.8,11.7-1,3.4-2.9,6.7-4.8,9.8-3.8,6.4-7.8,12.8-11.9,19-1,1.4-1,2.3,0,3.4,1.6,1.7,3.3,3.4,4.8,5.3,5.4,6.8,11.5,13.2,13.9,22,.4,0,.8-.1,1.1-.2v-27.5c.4,0,.8,0,1.2,0,.3,1.1.8,2.2,1,3.4.9,4.1,1.6,8.3,2.7,12.3,3.8,13.2,16.3,22,29.9,20.7,8-.8,15.8-2.5,23.7-4.1,5.7-1.1,11.4-2.7,17.1-4.1v27.9c-12.3,4.7-24.8,8-37.9,9.4-9.6,1-18-1.7-24.7-8.2-4.3-4.2-7.3-9.8-10.9-14.7-.5-.7-.8-1.5-1.2-2.1-1.7,4.6-3.1,9.1-4.9,13.5-1.6,4-4.1,7.6-5.4,11.6-1.3,4.1-3.3,7.4-6.4,10.3-1.8,1.6-2.6,3.6-1.2,6.3,6.1,12,11.9,24.2,17.9,36.2,3.5,7,7.2,13.8,10.9,20.7,4.8,8.9,9.7,17.6,14.6,26.4.3.6,1,1.2,1.6,1.3,3.7.8,7.5,1.6,10.3,2.1-1.6-6.4-3.7-13.2-4.8-20.3-.6-3.6.2-7.8,1.5-11.3,3.2-9,7-17.7,10.7-26.5.4-1.1,1.2-2,1.6-2.7,11.4,6.2,22.7,11.9,28.4,24.1v20.4c-.9,2-1.8,4-2.7,6.2,1.1.5,1.9.8,2.7,1.2v33.4h-12.4c-2.5-2.9-5.1-5.8-7.5-8.6-3.4,3-6.6,5.8-9.8,8.6h-76.2c-2.8-1.5-5.6-3-8.8-4.7.3,1.7.5,3.2.7,4.7h-8.1,0ZM182.8,433.5c.3-.8.7-1.4.8-2.1,1.4-6.9,2.9-13.9,4.1-20.8,3.5-20.3-3.5-37.6-16.7-52.5-4.8-5.4-11.3-8.9-18.8-9.9-4.8-.7-9.4-2.1-14.2-.7-1.8.5-4.2,1.3-4.9,2.7-1.8,3.2-3.1,6.8-3.9,10.4-1.5,6.6-.4,13.1,1.3,19.5,1.2,4.5,2.2,9.3,4.4,13.4,6.6,12.7,16.1,23,28.3,30.5,6.2,3.8,12.5,7.5,19.8,9.4h0ZM207.4,371.4c0,6.1.5,11.8-.1,17.3-.6,5.7-1.8,11.6-3.8,17-1.4,3.8-4.3,7.1-6.7,10.6-4.1,6-8.2,11.9-12.4,18,.3.1.7.4,1.2.5,13.3,4.2,26.3,9.1,37.9,17.1,5.8,4,11.2,8.5,13.7,15.4.2.7.8,1.3,1.2,2,4.4-5.5,3.4-10.8.4-16-5.4-9.2-11-18.4-16.6-27.5-2.6-4.3-3.4-8.4,0-12.9,4.4-6,8.3-12.4,12.7-19-12.8-3.5-21.4-11.5-27.3-22.5ZM292.7,344.8c3.7-5.5,4.2-9.3,1.9-14.5-1-2.2-2.1-4.3-3.3-6.3-5.2-8.6-10.9-17-11.8-28.3-7.1,3.6-13.8,6.9-20.2,10.2,5.4,4.1,10.9,8.1,16.1,12.4,8.4,6.8,15.9,14.4,17.2,26.5ZM189,210.9c4.2-4.6,8.4-9.4,12.8-13.9,3.1-3.2,4.5-6.2,1.5-10.4-1.5-2.1-2.2-4.9-3.3-7.3-.9-2-1.8-4-2.6-5.8-11.9,10.7-13.7,23.5-8.4,37.4ZM259.9,19.8c-.2.3-.4.6-.7.9,2.8,2.8,5.5,5.8,8.5,8.4,4.4,3.9,8.4,7.9,9.6,14,.1.6.6,1,1.3,2.3.8-2,1.9-3.4,1.7-4.6-.4-3.2-.9-6.6-2.3-9.4-3.6-7.5-11.6-8.5-18.1-11.5h0ZM263.4,245.5c2.8-4.3,4-8.9,1.6-13.6-1.8-3.5-4.6-6-8.8-6.3-1.6,5.4,2,15.1,7.2,19.9h0ZM330.2,756.4c2.3,5.2,5.5,9.7,11,12.5-1.5-6.6-6.3-9.6-11-12.5ZM252.5,106.5c-6.2-1.9-11.8,3.6-11.4,8,3.7-2.6,7.4-5.2,11.4-8ZM276,243.3c-2,2.5-3.8,4.5-5.8,7,4.1.7,7-2.9,5.8-7Z"/>
  <path class="cls-1" d="M125,810c-4.4-5.7-9-11.3-13-17.2-2.9-4.3-5-9.1-7.5-13.7-.3-.5-.9-.8-1.2-1,.8-6.8,6-10.1,10.6-13.9,4.3-3.5,8.7-6.8,13.4-9.8,2.8-1.7,6.2-2.5,9.6-3.9-1.1-1.4-2.3-3.1-3.7-4.7-3.2-3.6-6.4-7.3-9.8-10.7-2-2-1.6-3.5,0-5.3,3.3-3.7,6.5-7.4,9.6-11.2,1.1-1.3,2-2.8,3-4.2-6.5-.5-12.7-1.1-19-1.4-6.6-.4-12.7-2.7-18.4-5.7-12.4-6.3-21.1-16.7-28.7-27.9-3.3-4.8-4.3-10.6-4.2-16.5,0-2.3-.4-4.7-.7-7-.6-5.3-1-10.6,1.9-15.5.2-.3.4-.5.4-.8,1.2-10.2,6.9-18.4,12.1-26.6,5.1-8,13.6-12,22.8-14.2,4.8-1.2,9.6-2.1,14.6-3.1-2.9-6.9-8.5-11.3-14.3-15.6-3.3,3.5-6.7,6.9-10,10.6-2.2,2.4-6,3.4-9,1.9-9.9-5-20.6-7.8-31.3-10.1-6.5-1.4-13.1-2.2-19.3-3.3-1.1,2.8-1.9,4.8-2.8,6.7-2.4,5.8-.3,11.1,1.9,16.4,4.5,11.2,8.8,22.6,13.8,33.6,3.5,7.7,8,14.9,11.8,22.4,5.8,11.4,11.3,22.9,13.1,35.8,1.3,9.3-.4,18.1-4.6,26.3-2.5,5.1-5.2,10-8.1,14.9-1.3,2.1-3.2,3.7-5.4,5.3,4.5-6.6,2.9-14.2,3.6-21.3.2-2.5-.8-5.1-1.4-7.7-4.2-17.9-13.6-33.5-22.3-49.4-6-11-10.2-22.9-13.2-35.1-.9-3.6-1.7-7.2-2.6-10.8-1.8-7-.2-13.3,3.6-19.4,3.3-5.3,5.8-11,8.1-16.9-.5.4-1,1.1-1.4,1-3.5-.7-5.7,1.4-7.5,3.7-3,3.7-5.7,7.7-9.1,11.3.9-3,1.7-6.1,2.6-9.1,1.9-6.6,3.7-13.2,5.9-19.7,2.1-6.2,7.5-9.1,13.3-11.2,2.1-.8,4.3-1.3,6.4-2-5.9-4.8-11.6-9.4-16.6-13.4,0,3.3.6,7.7-.2,11.8-.9,4.8-2.8,9.5-4.7,14.1-2.6,6.3-5.7,12.4-8.5,18.5-.2-.1-.5-.2-.7-.3.6-6.8,1.3-13.6,1.7-20.4.2-2.5-.1-5.1-.4-7.7-.3-3.3-2.6-5.4-5.2-7-3.9-2.4-4.5-5.7-4.1-9.9.6-5.4.6-10.8.8-16.2,0-2.5,1.7-3.4,4.1-2.1,2.4,1.3,4.5,2.9,7,4.3-4.2-5.7-6.5-12.2-7.9-19-1.6-8,.7-15.5,3.4-22.9,4.5-12.3,11.7-22.6,22-30.8,4.5-3.5,4.6-4.9,1.4-9.8-.6-.8-1.2-1.6-1.9-2.6-3.2,4.4-6.2,8.9-9.5,13-1.7,2.2-3.8,4.1-6,5.8-5.3,4-11.5,1.8-12-4.8-.4-5.2.5-10.6,1.4-15.8,1-5.7,2.6-11.4,4.2-17,.7-2.4,2.1-4.6,3.5-6.7.4-.6,1.7-.6,2.7-.9.2.8.6,1.7.5,2.5-.2,1.8-.9,3.6-1.1,5.4-.4,2.9-.8,5.9-.6,8.9.2,3,2,5.4,4.9,6.6,3.1,1.2,5.9.4,8.9-2.3-5.3-12.8-10.7-25.5-15.6-38.3-2.7-7-2.7-14.2.1-21.4,2.2-5.6,4-11.4,6.2-17,.6-1.6,2.1-3,3.2-4.4.4.2.8.3,1.2.5,0,1.1.3,2.4,0,3.4-2.5,6.6-1,12.9,1.7,18.9,5.8,12.8,11.7,25.7,17.9,38.4,3.8,7.8,8.4,15.1,12.3,22.8,1.4,2.8,3.1,2.9,5.7,2.3,10.5-2.2,20.9-1.9,31,2.1,5.7,2.3,11.2,4.9,17.2,7.1-3.4-4.7-6.9-9.3-10.2-14.1-1.8-2.6-3.6-5.3-4.9-8.2-.7-1.5-.7-3.7,0-5.2,2.3-5.4,5.1-10.5,7.6-15.8.8-1.7,1.1-3.8,1.9-5.5.6-1.2,1.5-2.4,2.7-3.1,1.4-.8,2.7,0,2.1,1.6-2.1,5.9.7,10.5,3.7,14.9,2.9,4.4,6.5,8.3,9.3,12.7,2,3.1,3.5,6.5,4.5,10,1,3.7,0,7.2-2.2,10.5-4.3,6.4-8.2,13-12.5,19.4-2.3,3.5-4.9,6.7-7.3,10.1-1.2,1.7-2.3,2.2-4.6,1.1-8.2-4-16-9.1-25.3-10.4-.7,0-1.4-.2-2.5-.3,5.9,14.4,9.8,28.9,9.3,44.4.3,0,.5.2.8.2,1.8-4.9,3.7-9.7,5.2-14.7.6-2,1.4-2.3,2.7-1.1,7.6,7,15.4,13.9,22.6,21.3,4.6,4.7,7.9,10.4,8.7,17.1.4,3,.3,6.1.3,9.1s-.2,3-.5,4.5c-.2.9-.7,1.8-1.3,2.6-.8,1.3-1.8,2.5-2.9,4,9.3,4.3,17.5,9,21.3,18.8,6.1-5.3,9-14.6,6.2-21.6-2.1-5.3-5.1-10.3-7.8-15.4-3-5.6-6.2-11.1-9.1-16.8-4-7.8-7.8-15.8-11.6-23.7-2.9-6.1-1.4-11.8,1.6-17.4,2.5-4.5,4.7-9.1,7.3-13.5,1.8-3.2,3.9-6.3,7.9-6.7.3.2.6.5.9.7-1.3,2.1-2.3,4.4-3.8,6.2-1.9,2.2-1.9,4.5-1.3,6.9,2.2,8.1,5.8,15.5,10.4,22.5,8,12,16.1,23.9,23.4,36.4,4.1,7.1,5.1,15.1,0,22.5-1.7,2.4-3.8,4.5-5.6,6.7-.6.7-.9,1.6-1.3,2.4h-.2c-4,4.7-7.7,9.6-12.1,13.8-6.1,5.8-12.7,11-19,16.5-.5.4-1,.9-2.1,1.9,1.6.2,2.4.4,3.2.4,10.6-.2,20.1,2.6,29.3,7.9,9.2,5.2,16.9,11.6,23.1,20.1,5.9,8.1,9.2,16.8,7.9,27.1-.3,2.2.3,4.5.3,6.8,0,6.7-.8,13-7.1,17.2,15-5,28.3-12.9,41.3-22.1-1.2-1.5-2.1-2.9-3.3-3.9-4.6-3.7-4-10.5-1.4-15.5,2.5-4.8,4.1-10,6.1-15,.3-.8.5-1.7,1.1-2.2,1.2-.8,2.9-2.2,3.8-1.9,2.1.9.2,2.5,0,3.9-.2,1.3-.4,3,.2,4,1.7,2.6,3.8,5.2,6,7.4,6.4,6.5,13.1,12.6,19.3,19.2,5.1,5.4,9.5,11.7,8.5,19.5-.5,4.5-2.5,9.1-4.9,13-6.5,10.4-13.6,20.4-20.5,30.5-1,1.5-2.4,2.8-3.2,3.6-1.5-.7-2.5-1.2-2.9-1.4-2.5-3.8-4.5-7.5-7-10.8-4.6-6.1-9.5-11.9-11.6-19.9-1.4.9-2.8,1.5-3.9,2.4-2.7,2.2-5.1,4.8-7.9,6.9-2.7,2-5.6,3.6-8.6,5.3-3.3,1.8-6.6,3.7-10.1,5.1-6.7,2.7-13.5,5.3-20.4,7.3-4.4,1.3-9.2,1.7-14.5,2.7,6.4,8.3,14.2,15,20.6,22.4-4.9,5.9-9.7,11.6-14.5,17.5-.4.5-.3,1.9.1,2.3,4.5,3.9,9.2,7.8,13.7,11.5.4-9.7,7.7-14.6,15.4-18.9,2.1-1.2,2.9-2.3,2.8-4.7-.3-9.5,3.1-17.9,8.1-25.8,2.7-4.1,4.7-8.7,7.3-12.8,2.3-3.7,6.3-4,10.2-3.6,3.8.3,6.5,2.6,7.8,6.2,1.1,3.1,2.2,6.3,2.7,9.5.3,2.2.1,4.9-.8,6.9-2.1,4.6-4.9,9-7.9,14.3,2.6,0,4.7.2,6.7,0,5.9-.8,11.8-1.7,17.7-2.6,1-.1,2.1-.5,3-.3,1.8.3,2.7,1.6,1.2,3.1-5.7,5.9-11.1,12.1-17.5,17.3-3.1,2.6-7.9,3.2-12.1,4.4-9.8,2.8-19.7,5.2-29.4,8.2-3.7,1.2-7,3.6-10.9,5.7,10.5,11.1,23.1,18.2,35,26.4-3.1-5.8,1.6-10.1,2.6-15,.7-3.7,2.7-7.1,4.1-10.6,1.2-2.9,2.8-3.7,4.8-1.7,6.8,6.7,13.6,13.6,14.8,23.6.6,4.7.2,9.4.2,14.2h-57.6c-7.8-6-15.8-11.7-23.3-18-5.9-5-11-10.7-16.5-16.1-1.3-1.2-2.6-2.4-3.9-3.7-.3.3-.7.7-1,1,6.6,7.3,12.9,14.9,19.8,21.9,5.3,5.3,11.2,10,16.9,14.9h-36.5,0ZM169.1,677.4c-1.7-7-3.3-13.6-4.8-20.3-.9-3.9-2.7-7.1-5.5-9.8-3.9-3.8-8-7.4-11.9-11.2-6.8-6.7-15-10.7-24.4-12.2-4.6-.8-9.2-1.1-13.8-1.4-3-.2-6.2-.4-9.1.2-5.5,1.2-10.9,2.8-16.3,4.5-3.3,1.1-6,2.9-6.3,7-.5,6.4.9,12.5,3,18.3,6.2,16.7,18.6,26.4,35.8,29.8,6.5,1.3,13.3.8,19.9.8,11.2,0,21.9-2.9,33.4-5.7h0ZM43.2,471.7c-11.1,5-19.3,12.6-24,23.6-3.7,8.5-3.6,17.1.2,25.8,6.2,14.2,17.9,23.6,28.9,33.2,1.1-2.1,2.4-3.8,3-5.8,1.5-5.1,2.6-10.4,4-15.5,3.2-11.8,1.7-23.4-1.9-34.7-2.9-8.9-6.7-17.5-10.2-26.6ZM55.8,556c7.7,2.4,15.7,4.8,23,7-4-7.1-7.8-14.4-8.8-23.1-4.9,5.6-9.6,10.9-14.2,16h0ZM81.7,524.5c3.9,11.5,11.2,18.7,21.9,23.5-4.8-10.2-12.1-17.5-21.9-23.5ZM240.2,683.5c-1.8-12-12.5-17.2-19.1-25.6,3.8,10.5,13.7,16.4,19.1,25.6Z"/>
  <path class="cls-1" d="M356,177.1c-10.2-8.2-20.6-16.3-30.6-24.7-6.6-5.5-11.6-12.4-16-19.9-3-5.2-3.5-10.4-1.4-15.7,2.6-6.5,5.5-12.8,8.5-19.1.7-1.5,2.1-2.7,3.4-4.3-22.9-26.8-24.2-54.7-2.1-83.9-3.4-3.2-6.8-6.3-10.2-9.4h29.7c2,2.3,4,4.6,6,6.9,4.2,5.1,6.5,17,10.7,22.1l1.9,56.5c-1.9,2.6-3.8,5.1-5.8,7.8,2.2,1.3,4,2.3,5.8,3.3v32.8c-4.3-3.3-8.8-6.4-12.8-10.1-3.1-2.8-5.4-6.4-8.3-9.4-4.4-4.8-8.9-9.4-13.2-14-4.8,6.2-3.3,12.5.7,18.4,2,2.9,4.6,5.2,6.9,7.9,7.7,9,17.2,15.9,26.7,22.7v32.2h0ZM319.6,12.2c-.4.1-.8.2-1.2.3-.9,4.5-1.5,9-2.7,13.4-2.6,9.4.3,17.9,3.7,26.3,4.2,10.4,10.5,19.5,18.1,27.8,3.7,4.1,7.6,7.9,11.5,11.8.3-.1.6-.2,1-.3,1-6.4,2.8-12.8,2.7-19.2-.1-10.2-3.4-19.9-8.7-28.6-4.2-6.8-9.2-13.1-14.1-19.4-3.2-4.2-6.8-8.1-10.2-12.1h0Z"/>
  <path class="cls-1" d="M356,636c-13.9,1.1-27.7,2.4-41.6,3.3-5.2.3-10.5,0-15.7-.5-1.5-.2-3.6-2.2-3.9-3.7-1.7-8.1-3-16.3-4.1-24.6-.3-2.2.5-4.7,1.1-7,1.4-5.6,2.7-11.3,4.4-16.8.8-2.5,2.4-4.8,3.6-7.1,5.7-10.8,16.1-12,26.5-12.4,9.9-.4,19.8.3,29.6.5v27.9c-1.3,0-2.7-.2-4-.2-8-.3-16-1-24-.9-9.7,0-18.5,3.9-27.1,7.6-1.2.5-2.7,2.3-2.7,3.5,0,1,1.8,2.3,3.1,3,5.1,2.5,10.6,2.2,16,1.6,12.9-1.3,25.8-2.6,38.7-4v29.7h0Z"/>
  <path class="cls-1" d="M80.4,810c-4.1-6.8-8.2-13.7-12.4-20.4-5.8-9.2-8.6-19.3-7.5-30,.7-6,3-11.9,4.6-17.8.2-.6,1-1,1.4-1.6,3-3.6,6.1-7.2,8.8-11,.8-1.1.9-2.9.9-4.4,0-6-.3-12.1-.4-18.1,0-3.7,1.4-4.7,4.8-3.7,13.1,3.7,21.8,11.9,25.6,25.1,1.9,6.4,2.3,12.7-.2,18.8-1.7,4.2-4.8,7.8-7.5,11.5-2.7,3.5-5.5,7-8.7,10-2.4,2.3-2.2,4.3-.5,6.7,7.9,11,15.1,22.6,25,32.1,1,1,2.1,2,3.1,2.9h-37.2ZM85.8,768.8c7-9.9,7-28.6-6.4-35.7-5.6,13.4,1.9,24.1,6.4,35.7Z"/>
  <path class="cls-1" d="M356,740c-6-10-13.6-19.1-17.6-30.4-2-5.6-1-10.3,2.8-15,3.1-3.9,5.4-8.4,7.8-12.8,1.6-3,4-4.6,7-5.6v3.1c-2.3,2.4-5.1,5-4.1,8.6.9,3.6,2.7,7.1,4.1,10.6v41.5Z"/>
  <path class="cls-1" d="M356,543.7c-8.7-7-11.5-16.5-9.7-27,1.6-9.4,5.1-18.4,9.7-26.8v53.9Z"/>
  <path class="cls-1" d="M356,253.3c-.3-4.2-.6-8.5-.9-12.7-.3-4.2-.6-8.4-.9-12.5-.1-1.9-.4-4,1.8-5.1v30.3h0Z"/>
  <path class="cls-1" d="M185,208c-.7,2.1-1.1,4.4-2.2,6.2-3.7,6-7.8,11.8-11.6,17.8-2.1,3.3-5.4,4.2-8.9,4.8-2,.3-4,.9-5.9,1.6-6.4,2.3-12.8,4.6-19.1,7-15.1,5.7-30.2,11.4-45.3,17.3-10.9,4.3-20.9,10.3-30,17.6-7.4,5.9-12.8,13.7-15.3,23.1-.2.8-.9,1.6-1.4,2.3-.4-.2-.7-.3-1.1-.5,1.3-6.5,2.6-13,4-19.5.9-4,2.3-7.8,3.2-11.8,2.5-10.1,10.7-15.2,18.2-20.7,6.6-4.8,14-8.5,20.7-12.5-2.6-5.4-5.4-11-8.2-16.8-8.3,6.5-16.1,13.4-22.6,21.9-7.1,9.4-13.2,19.3-17.3,30.4-6.4,17.4-6.1,34.5,2.7,51.1,3.4,6.5,6.9,12.9,9.8,19.6,1.2,2.8.9,6.2,1.5,10.2,4.8-5.6,12.1-6.9,17.2-11.4-.1-.3-.3-.7-.5-1-2.6-.5-5.2-.7-7.7-1.4-9.7-2.7-14.8-10.4-15.5-21.4-.6-9.6,3-17.4,8.4-24.8,2.7-3.6,5.3-7.4,8.1-10.9,1.6-2.1,3.5-4,5.5-5.8,1.5-1.4,3-.7,3.9,1.3,2.2,4.8,4.8,9.3,6.9,14.1,3.2,7,6.7,14,8.8,21.3,1.5,5.1,1.1,10.8.9,16.1-.2,5.5-3.7,9.6-7.4,13.4-7.3,7.3-16,12.2-25.8,15.3-4.9,1.5-6.4,4.2-5.5,10.1,2.3-.9,4.6-1.6,6.8-2.6,2.1-1,3.1-.6,3.8,1.7,1.7,5.4,3.4,10.8,5.4,16,.9,2.4,2.6,4.6,4.4,7.6.3-2,.5-3.3.6-4.6.7-11.4,10-19.4,19.1-22.7,2.6-1,4.7.3,5.2,3.2,1,6.6,2,13.2,2.7,19.8.1,1.3-.7,3.5-1.7,4-9.8,5.3-15.1,13.2-15,24.4,0,.3-.2.6-.6,1.8-2.3-1.9-4.5-3.5-6.3-5.3-4.4-4.5-8.6-9.2-10.8-15.2-1-2.6-2.6-3.3-5.3-2.7-7.8,1.8-9.2,7.5-5.8,15.3,2.6,6,6.7,11.3,10.1,17,.6,1,1.1,2.1,1.1,3.8-2-1.4-4.1-2.6-5.9-4.2-5.4-4.8-9.5-10.5-11.9-17.4-1.6-4.7-4-9.3-5.5-14.1-2.6-8.4-.4-16,5.8-22.1,2.2-2.1,2.9-3.9,1.9-6.6-.2-.6-.3-1.3-.5-2.3-5.3,3.3-10.2,7.1-16.5,8.6,1.3-8.7-1.7-15.7-5.5-22.5-7.1-13-11.2-26.8-11-41.6.1-10.4.7-20.8,4.3-30.7,2.6-7.1,5.3-14.2,8.9-20.8,2.5-4.7,6.6-8.5,9.9-12.8,3.3-4.3,6.5-8.7,9.8-13,.5-.7,1.6-.9,2.3-1.4,6.5-5.2,13-10.4,19.5-15.7.2-.1.2-.4.4-.5,5.1-1.1,5.4-4.5,5.4-9,0-6.5,3.2-12,6.9-17.2,4.7-6.6,10.7-11.3,17.5-14.2-1.9-5.1-4.8-10-5.5-15.1-1.8-13,2.4-24.2,12.5-32.8,2.5-2.1,5.3-4,8.1-5.6,13.3-7.5,24.2,1.6,26.4,12.8.5,2.4-.1,5.2-.7,7.7-1.4,6.5-2.9,12.9-4.4,19.3l1.2.9c3.4-2,7-3.7,10.1-6.1,2.9-2.3,5.3-5.2,7.9-7.9.3.2.6.4.9.7,0,.8,0,1.6-.1,2.3-1.7,7-3,14.2-5.3,21.1-2.1,6.1-5.4,11.8-11.8,14.6-9.3,4.1-18.7,8-28.1,12-2.8,1.2-5.6,2.4-8.4,4.1,5.2-.4,10.5-.8,15.7-1.2v.3c-6.8,2.2-13.7,4.2-20.4,6.7-1.9.7-3.5,2.5-5.1,3.9-.6.5-1.1,1.3-1.8,1.7-3,1.4-3.9,4.1-4.3,7-.8,6.3.2,12.3,3.8,17.9,7.7-2.9,15.3-5.7,22.8-8.7,1.2-.5,1.9-2.3,2.5-3.6,2.8-6.4,4.5-13.2,8.7-19,4-5.6,8.5-8,15.1-6.1,5.3,1.5,10.3,4,15.5,6,1,.4,1.9.8,3.2,1.3.5-2.4,1.1-4.3.4-7-1.4-5.3-3-10.4-5.7-15.2-.4-.7-.4-1.6-.3-2.4,1.4-7.1,2.7-14.1,4.3-21.1.9-3.9,2.4-4.3,5.9-2,9.7,6.3,11.7,13.1,7.1,25.1-3,7.8-6.2,15.6-9.4,23.5,3.9,1.7,7.3,2.4,11.3.2,2.9-1.6,6.5-1.9,9.8-2.8h0c0,0,0,0,0,0ZM137.5,163.9c-1.5-3.5-2.6-6.4-4-9.2-1.4-2.7-3.2-5-6.6-5.4-6.5-.8-13.8,5-14.4,11.5,0,.7.1,1.5.5,2,1.5,2.1,3,4.2,4.7,6.1.5.6,1.9,1,2.6.8,5.8-1.8,11.5-3.8,17.2-5.8h0Z"/>
  <path class="cls-1" d="M163.4,289.4c-2.5-4.6-5.1-9.2-7.6-13.9-.4-.8-.6-2-.4-2.9,2-6.5,5.8-12.5,6.1-19.5,0-.6,1.9-1.7,2.2-1.5,1.6,1.1,3.5,2.2,4.4,3.9,2.2,4,4,8.1,5.8,12.3,1.9,4.4,2.7,8.9,1.4,13.8-.8,3-.9,6.3-1.3,9.5-.8,7.3-2.2,14.4-8,19.5-2.8,2.4-6.3,4.2-9.7,5.5-1.5.6-3.9-.6-5.7-1.3-1.3-.5-2.2-1.7-3.3-2.6-2.8,3.8-5.2,7.7-8.2,11.1-7.7,8.5-17.6,11.3-28.6,9.3-3-.5-6.1-2.7-8.4-4.8-8.4-8-13.9-17.4-12.5-29.6.2-1.8.7-3.7,1.4-5.4,3-7,6.1-13.9,9.2-20.8.4-.9,1.2-1.7,2.4-2.2,0,1.1,0,2.2-.3,3.2-4.5,11.4,1,20.1,7.7,28.5.6.8,1.9,1.3,3,1.5,12.2,2.9,25.4-5.5,28.1-17.7.3-1.5.8-3.2,1.8-4.1,3.1-2.8,3.5-2.3,6.3.9,2.6,2.9,5.9,5.3,9.1,7.7,1.1.8,2.8.6,4.3.9.2-.3.5-.7.7-1h0Z"/>
  <path class="cls-1" d="M53.1,640.6c.4-1.6.8-3.1,1.2-4.7.6-2.7,1.5-5.4,1.7-8.1.4-8.6-2-12.8-12.7-16.1-2.6-.8-3.4-2-3.7-4.4-.8-6.5-1.8-13-2.8-19.5-.5-3,1.5-5.1,5.2-4.4,5,1,10.2,2.1,14.7,4.4,9.1,4.5,14,14,12.9,23.6,0,.8-.2,1.7-.6,2.4-3.9,7.7-7.8,15.3-11.8,22.9-.8,1.6-2.1,2.9-3.2,4.3-.3-.1-.6-.2-.9-.3h0Z"/>
  <path class="cls-1" d="M141.9,273.7c-3.4,5-6.6,10-10.1,14.9-1.5,2.1-3.7,3.7-5.3,5.8-1.3,1.7-2.5,1.1-3.6,0-2.4-2.3-4.8-4.6-7.2-7-2.7-2.6-5.2-5.3-8-7.7-3.1-2.7-3.2-3.8-.7-7.1,3.6-4.8,7.1-9.6,10.5-14.5,3.1-4.5,4.2-4.7,8-1,5.5,5.5,11,11,16.4,16.5Z"/>
  <path class="cls-1" d="M151.9,563.1s.2,0,.2,0c1.9-2.5,3.8-1.4,5.5,0,3.8,3.4,7.5,7,11.3,10.5,2,1.9,4.1,3.7,6.3,5.5,2,1.7.3,3.1-.5,4.1-2.1,3-5.7,5.1-5.4,9.5,0,.4-.8.8-1.2,1.2-2.8,2.9-5.5,5.9-8.5,9.1-1.4-1.2-2.9-2.2-4.2-3.6-4.6-4.8-9-9.6-13.5-14.5-2-2.2.3-3.6,1.2-5.3,3-5.5,5.9-11.1,8.8-16.6h0Z"/>
  <path class="cls-1" d="M122.9,353.2c-2.4,2.6-4.9,5.1-7.2,7.7-3.5,4-6.8,8.2-10.5,12.7-3.6-3.8-6.7-7.1-9.7-10.3-2.8-3-5.7-6-8.5-9-1-1.1-1.4-2.1-.2-3.5,4.7-5.4,9.3-11,14-16.4,1.9-2.2,3.2-2,5.2.3,5.3,6.1,10.6,12.1,15.9,18.1.2.3.7.3,1.1.4h0s0,0,0,0Z"/>
  <path class="cls-1" d="M314.7,535.8c3.4-4.3,6.5-8.1,9.6-11.9,1.3-1.6,2.7-2.4,4.6-.4,5.3,5.6,10.8,11,16.3,16.4,1.6,1.6,3.6,2.8,4.9,3.8-6.8,8-12.9,14.9-19.1,22.2-4.9-4.7-9.3-8.8-14.3-13.6-3.6,4.4-7.2,8.8-11.2,13.8-8-7.6-14.8-14.1-21.6-20.6-1.5-1.5-.6-2.6.3-3.7,4-4.6,8-9.1,12-13.6.4-.5.9-.9,1.3-1.4,3.4-4.4,3.7-4.5,7.7-.6,3.2,3,6.2,6.2,9.7,9.7h0Z"/>
  <path class="cls-1" d="M276.8,434.4c-4.9-5.3-9.7-10.4-14.6-15.7,5-7,10.3-14.4,16.1-22.5,7.7,8,15.2,15.9,23,23.9-6.8,2.9-7.3,10.1-12.3,14.5,4.9,4.6,9.8,9.2,14.9,13.9-1.2,1-1.9,1.7-2.7,2.3-4.5,3.1-5.8,8.5-9.1,12.4-1.2,1.4-2,3.1-3.4,4.1-1,.6-3.2.7-4,0-4.3-3.8-8.3-7.8-12.3-11.8-1.4-1.4-3.6-1.7-4.2-4.5-.4-2-.3-3.3.6-4.7,2.6-4,5.3-8,8-12h0Z"/>
  <path class="cls-1" d="M237.5,154.1c0,1.3,0,2.3,0,3.3.2,6.8,2.3,13.1,8.1,17,6.8,4.6,13.1,3.1,17.2-4.1,2.8-5,4.8-10.5,7.2-15.7.6-1.2,1.5-2.2,2.3-3.4,1,.8,1.9,1.6,2.9,2.4,2.8,2.2,5.5,4.5,8.5,6.4,1.9,1.2,3,0,2.5-2-.6-2.8-1.3-5.7-2.4-8.4-1.6-3.8-.8-7.4-.1-11.1,1-5.4,2.2-10.8,3.6-16.1.4-1.4,1.7-2.5,3.2-4.4,3.5,6.3,6.9,11.6,9.6,17.2,2.2,4.7.9,9.8.2,14.6-1.2,7.9-2.6,15.8-4.3,23.6-.7,3.4-2.1,6.6-3.6,9.7-3,6-10.6,7.8-16,3.9-.9-.6-1.7-1.4-2.7-2.1-1.4,3.1-2.8,6.1-4,9.1-1.8,4.6-5.2,7.6-9.2,10.1-4,2.5-12.2,1.2-16-2-4.6-3.9-7-8.6-7.5-14.6-.6-6.5-1.4-13-2.3-19.5-.7-4.9.8-9.2,3.1-13.8h0Z"/>
  <path class="cls-1" d="M209.9,85.4c0-4.1-.5-8.2,0-12.2,1.4-10.2,7.6-17.1,16.1-22.1,2.4-1.4,3.3.6,4,2.4,2,4.9,3.9,9.9,6,14.8.7,1.6,1.6,3.1,2.7,5-.9.8-1.8,1.9-2.9,2.7-10.4,7.2-12.1,17.2-9.8,28.7.7,3.7,0,4.6-3.5,3.2-7.5-2.9-14.4-7-19.9-13.1-3.5-3.9-9.2-4.5-12.9,0-6.1,7.4-11.5,15.3-13.3,25-1.6,8.4-1.6,16.8,2.8,24.6.2.3,0,.7.2,1.9-1.2-1.5-2.1-2.4-2.7-3.4-3.6-6.5-7.9-12.7-10.7-19.5-5.9-14.1-1.2-26.4,7.7-37.9,4.8-6.2,10.5-11.1,16.4-16,1.5-1.3,2.4-.4,3.3,1,3.4,6,8.7,10,14.3,13.9.7.5,1.6.8,2.1,1h0Z"/>
  <path class="cls-1" d="M316.6,359.7c1-2.1,1.8-4.3,2.9-6.3,8.2-13.9,7.5-27.8,0-41.7-.2-.4-.3-.8-.6-1.1-5.5-7.1-.4-12.5,2.8-18.2,1.8-3.3,3.5-6.7,5-10.2,1.5-3.5,2.7-4,5.2-1.3,6.4,7.3,11,15.7,12.9,25.3,1.1,5.7,1.9,11.7,1.5,17.4-.6,8.2-5.5,14.6-11.1,20.3-4.8,5-10.1,9.5-15.2,14.2-.8.8-1.9,1.3-2.9,1.9-.2-.1-.4-.3-.5-.4h0Z"/>
  <path class="cls-1" d="M297.4,749.1c.6-7.7,1.3-14.5,1.5-21.4.2-8.6-4.3-14.6-11.6-18.6-1.4-.8-2.9-1.6-4.5-2.1-3.4-1.1-4.4-3.8-4.2-6.7.3-4.7,1.2-9.3,1.7-14,.2-2,.1-4.1.2-6.1,0-2.2.9-3.5,3.2-2.8,11.8,3.4,21.5,9.6,26.4,21.3,3.3,7.7,3.1,15.4-.9,23.2-3.6,7-6.1,14.6-9.1,21.9-.7,1.6-1.6,3.1-2.8,5.3h0Z"/>
  <path class="cls-1" d="M139.2,377.3c2.4-7.5,4.7-14.8,6.9-22.1.8-2.4,2.9-3.4,5.1-1.8,10,7.4,18.9,15.7,22.6,28.1,1.4,4.7,1.1,9.5-1.2,13.8-3.4,6.4-7.1,12.7-10.8,19-.5.8-1.2,1.6-2.4,2.5,2.3-18-5.5-30.6-20.3-39.5h0Z"/>
  <path class="cls-1" d="M161.9,661.8c-3.5,4-7,8-10.5,11.9-1.5,1.7-3,3.6-4.8,5-3.2,2.6-5.1,2.3-7.8-.8-3.1-3.5-6-7.1-9-10.6-.5-.6-1-1.3-1.3-1.7-5.4,3.9-10.3,7.6-15.5,11.3-7.4-8.2-14.3-16-19.5-25.3-1.2-2.2-.8-3.6,1.1-4.9,5.7-3.8,11.4-7.6,17.1-11.4,1.8-1.2,3.4-1,4.8.9,3.9,5.1,7.9,10,12.2,15.6,1.4-1.5,2.7-2.7,3.7-4.1,1.5-2.1,2.5-4.6,4.2-6.5.6-.7,2.4-.7,3.6-.6,1.7.1,3.4.6,5.1,1,.7.2,1.4.5,1.8,1,5.1,6.5,10.1,13.1,14.7,19.1h0Z"/>
  <path class="cls-1" d="M53.5,502.7c-1.4,4.3-2.6,8.3-4.1,12.1-1.4,3.8-3,7.5-4.9,11.1-.4.7-2.4,1.2-3.2.9-5.7-2.4-11.2-5.1-16.8-7.8-2.1-1-2.9-2.5-1.9-5,2.6-6.3,4.9-12.6,7.4-18.9.9-2.4,2.7-2.5,4.8-1.5,6.3,3.1,12.6,6.1,18.7,9Z"/>
</svg>