<svg width="53" height="41" viewBox="0 0 53 41" fill="none" xmlns="http://www.w3.org/2000/svg">
<path d="M0.521868 22.5689C0.521868 21.2158 0.472665 19.8627 0.521868 18.5219C0.681778 15.3852 3.35104 12.9497 6.47544 13.0481C6.85676 13.0481 7.01667 12.9374 7.18888 12.6053C10.3994 6.52868 15.3566 2.65394 22.0482 1.14094C31.8027 -1.06089 41.754 3.7118 46.2807 12.6299C46.4283 12.9251 46.5759 13.0481 46.9326 13.0358C50.1185 12.9374 52.8247 15.3606 52.9354 18.5465C53.0215 21.265 53.0215 24.0081 52.9354 26.7265C52.837 29.691 50.1308 32.1881 47.1664 32.102C46.6128 32.0897 46.3914 32.2496 46.17 32.7047C45.4689 34.1931 44.6816 35.62 43.5499 36.8378C41.9139 38.6091 39.9581 39.8022 37.5349 40.1221C37.0797 40.1836 36.6123 40.1836 36.1449 40.1836C32.2209 40.1836 28.3093 40.1836 24.3853 40.1836C24.1885 40.1836 23.9794 40.1836 23.7826 40.159C22.6263 40.0729 22.0113 39.2979 22.1589 38.1539C22.3434 36.7517 23.4997 35.6938 24.9143 35.6692C26.1198 35.6446 27.3252 35.6569 28.5307 35.6692C29.3549 35.6692 30.056 36.0136 30.5849 36.6532C30.7817 36.8993 30.9909 36.9731 31.2861 36.9731C32.7622 36.9731 34.2506 36.9239 35.7267 36.9977C38.0884 37.1207 39.9458 36.1489 41.3727 34.3776C43.3285 31.9544 44.5709 29.1744 45.1367 26.1115C46.5513 18.3866 43.4023 11.08 36.8214 6.78699C34.3367 5.16329 31.6059 4.19153 28.6537 3.94552C21.8883 3.37968 16.3406 5.75373 12.0477 10.9816C9.68594 13.8722 8.40666 17.2426 8.08684 20.9698C7.75472 24.8445 8.57887 28.4486 10.4732 31.8436C10.9898 32.7785 10.793 33.6273 9.95655 34.1316C9.18161 34.599 8.27135 34.3899 7.79162 33.615C7.5333 33.1967 7.33649 32.7416 7.07818 32.3234C7.00437 32.2127 6.81986 32.102 6.68455 32.102C3.65856 32.3234 0.755583 29.9493 0.55877 26.7757C0.472665 25.3734 0.54647 23.9589 0.54647 22.5566L0.521868 22.5689Z" fill="#885755"/>
<path d="M26.7226 28.9178C24.3116 28.8809 21.9745 29.3852 19.625 29.8404C18.2105 30.111 16.7713 30.3078 15.3444 30.5046C14.3726 30.6399 13.7207 30.1356 13.2286 29.3483C12.6013 28.352 12.2569 27.2449 12.0601 26.1009C11.1744 20.9346 12.5275 16.4079 15.9717 12.484C17.0542 11.2539 18.4073 10.8234 19.9572 11.0817C21.3348 11.3031 22.7002 11.6598 24.0656 11.9797C26.1444 12.4717 28.1987 12.3118 30.2529 11.7828C31.6183 11.4261 32.996 11.0202 34.4352 11.0325C35.5299 11.0448 36.4894 11.4138 37.2397 12.2134C39.7614 14.8826 41.2621 18.0316 41.6188 21.6973C41.8402 23.8991 41.6188 26.064 40.9054 28.1674C40.7332 28.6718 40.4748 29.1515 40.2042 29.6066C39.8475 30.2217 39.294 30.4923 38.5682 30.5046C37.1044 30.5415 35.6898 30.2217 34.2753 29.9388C31.7782 29.4221 29.2811 28.8809 26.7103 28.9178H26.7226ZM34.4844 18.0316C32.9591 18.0316 31.7167 19.2617 31.7167 20.787C31.7167 22.3 32.9714 23.5547 34.4844 23.5547C35.9851 23.5547 37.252 22.2877 37.252 20.787C37.252 19.2617 36.0097 18.0316 34.4844 18.0316ZM18.9731 18.0316C17.4478 18.0316 16.2054 19.274 16.2177 20.7993C16.2177 22.3123 17.497 23.567 18.9977 23.567C20.5107 23.567 21.7654 22.2877 21.7531 20.787C21.7531 19.2617 20.5107 18.0439 18.9731 18.0439V18.0316Z" fill="#885755"/>
</svg>
