<?xml version="1.0" encoding="UTF-8"?>
<svg id="Character" xmlns="http://www.w3.org/2000/svg" version="1.1" xmlns:xlink="http://www.w3.org/1999/xlink" viewBox="0 0 500 500">
  <defs>
    <style>
      .cls-1 {
        fill: #b8b2b1;
      }

      .cls-1, .cls-2, .cls-3, .cls-4, .cls-5, .cls-6, .cls-7, .cls-8, .cls-9, .cls-10 {
        stroke: #221a14;
        stroke-width: 1.1px;
      }

      .cls-1, .cls-3, .cls-4, .cls-5, .cls-6, .cls-7, .cls-8, .cls-11, .cls-9, .cls-10 {
        stroke-linecap: round;
        stroke-linejoin: round;
      }

      .cls-2, .cls-4, .cls-12, .cls-11 {
        fill: none;
      }

      .cls-2, .cls-12 {
        stroke-miterlimit: 10;
      }

      .cls-13 {
        fill: #000;
        fill-opacity: .7;
        opacity: .3;
      }

      .cls-13, .cls-14, .cls-15, .cls-16, .cls-17, .cls-18 {
        stroke-width: 0px;
      }

      .cls-3 {
        fill: #b8b2b1;
      }

      .cls-19, .cls-5 {
        fill: #645856;
      }

      .cls-20 {
        clip-path: url(#clippath-2);
      }

      .cls-12 {
        stroke: #b8b2b1;
      }

      .cls-12, .cls-11 {
        stroke-width: 5.7px;
      }

      .cls-21, .cls-10 {
        fill: #8d8382;
      }

      .cls-14 {
        fill: #8c0023;
      }

      .cls-15 {
        fill: #fff;
        opacity: .7;
      }

      .cls-6 {
        fill: #d4e1de;
      }

      .cls-7 {
        fill: #fbf3e6;
      }

      .cls-22 {
        clip-path: url(#clippath-1);
      }

      .cls-8 {
        fill: #fefbf4;
      }

      .cls-16 {
        fill: #8c0023;
      }

      .cls-23 {
        clip-path: url(#clippath);
      }

      .cls-11 {
        stroke: #8c0023;
      }

      .cls-17 {
        fill: #729b91;
      }

      .cls-9 {
        fill: #fffbf4;
      }

      .cls-18 {
        fill: #221a14;
      }
    </style>
    <clipPath id="clippath">
      <path class="cls-10" d="M360,145.3l-.2,33.1s-4-2-9.8-5c-10.3-5.4-26.3-14-34.3-19.9-2.2-1.6-3.8-3-4.5-4.1-5.2-7.5-30.9-51.4-30.9-51.4l13.8-9.9,24.9,36.7,6.1,9,.6.2,34.5,11.3Z"/>
    </clipPath>
    <clipPath id="clippath-1">
      <path class="cls-5" d="M443.2,461.1s-68.2-55.1-72.1-62.3c-3.9-7.2-11.6-72.7-11.6-72.7h0c-1,.7-64.9,46.1-67.9,50.5-.2.3-.6,1-1.2,1.9-8.5,13.4-53.1,86-53.1,86-12.5.5-19.7-8.4-19.7-8.4l46-99.1,67.4-65.9h0l1-1,6.4-25.7,57.8-7s5,18.3,7.6,32.7c0,.5.1,1.4.2,2.7.3,16.1-4.3,88.5-1.9,94.6,2.6,6.6,57.6,58.2,57.6,58.2.6,11.7-16.5,15.4-16.5,15.4Z"/>
    </clipPath>
    <clipPath id="clippath-2">
      <path class="cls-10" d="M410.3,207.1c-3.2,18.2-16.2,40.4-16.2,40.4l3.1,9.5,8.2,25.4-44.6,13.3-8.1-15.2-7.5,14.1-15.2-6.1,1.2-6.4,2.9-14.8c0-.8-.1-1.7-.2-2.6-1.9-27.5-1.7-84,24-119.9,0,0,38.2,5.3,52.1,48,1.3,4,1.2,9,.3,14.3Z"/>
    </clipPath>
  </defs>
  <g>
    <path class="cls-17" d="M64.7,479.6S-36.4,341.2,26.2,234.8c62.6-106.4,187.1-33.4,210.8-132.6,23.7-99.3,110.2-115.6,192.2,8.6,82,124.2,62.4,296.8,19,368.8H64.7Z"/>
    <path class="cls-15" d="M64.7,479.6S-36.4,341.2,26.2,234.8c62.6-106.4,187.1-33.4,210.8-132.6,23.7-99.3,110.2-115.6,192.2,8.6,82,124.2,62.4,296.8,19,368.8H64.7Z"/>
  </g>
  <line class="cls-4" x1="12.1" y1="479.6" x2="488.6" y2="479.6"/>
  <g>
    <g>
      <line class="cls-4" x1="107.9" y1="350.6" x2="107.9" y2="479"/>
      <line class="cls-4" x1="107.9" y1="334.5" x2="107.9" y2="345"/>
      <polyline class="cls-4" points="403.3 479.3 403.3 308.4 107.9 308.4 107.9 328.5"/>
      <polyline class="cls-4" points="373.1 318.4 391.1 318.4 391.1 470.9"/>
      <polyline class="cls-4" points="120.2 479 120.2 318.4 362.7 318.4"/>
      <line class="cls-4" x1="128.8" y1="298.9" x2="134.5" y2="298.9"/>
      <polyline class="cls-4" points="142.7 298.9 408.5 298.9 408.5 308.3 102.8 308.3 102.8 298.9 125.1 298.9"/>
    </g>
    <g>
      <line class="cls-4" x1="455" y1="294.2" x2="452.2" y2="312.4"/>
      <path class="cls-4" d="M437.8,219.5h13.6c8,0,14,7.1,12.8,15l-7.7,49.8"/>
      <line class="cls-4" x1="424" y1="219.5" x2="433.9" y2="219.5"/>
      <path class="cls-4" d="M365.9,294.1l9.8-63.6c1-6.3,6.4-11,12.8-11h28.4"/>
      <line class="cls-4" x1="357" y1="351.6" x2="361.5" y2="322.9"/>
      <path class="cls-4" d="M407.2,388.2h13.5c6.7,0,12.8-2.6,17.3-7"/>
      <line class="cls-4" x1="332.8" y1="388.2" x2="379.9" y2="388.2"/>
      <path class="cls-4" d="M313.4,383.9c4,2.7,8.8,4.2,13.9,4.2"/>
      <path class="cls-4" d="M387.2,351.6h-75.5c-5.1,0-9.3,4.2-9.3,9.3v2.4c0,5.8,2,11.2,5.4,15.4"/>
      <path class="cls-4" d="M444.9,357.4c-1.4-3.4-4.7-5.8-8.6-5.8h-13.5"/>
      <polyline class="cls-4" points="387.3 395 355 395 348.2 388.2"/>
      <path class="cls-4" d="M364.3,395h19.4v22.7c0,1.1-.9,2.1-2.1,2.1h-15.3c-1.1,0-2.1-.9-2.1-2.1v-22.7h0Z"/>
      <rect class="cls-4" x="367.9" y="419.8" width="12.1" height="27.9"/>
      <path class="cls-4" d="M318.4,464.9c20.2-13.5,49.5-17.2,49.5-17.2"/>
      <path class="cls-4" d="M387.3,460.9c-20.4-3-40.8,1.5-60,6.5"/>
      <path class="cls-4" d="M420.7,467.4c-4.7-1.2-9.4-2.2-14.1-3.2"/>
      <path class="cls-4" d="M407.2,454.3c7.8,2.7,15.5,6,22.4,10.6"/>
      <path class="cls-4" d="M380.1,447.7c2.6.3,5.1.8,7.6,1.3"/>
      <circle class="cls-4" cx="320.8" cy="472.5" r="7.6"/>
      <circle class="cls-4" cx="428.2" cy="472.5" r="7.6"/>
      <path class="cls-4" d="M419,372.7l6-40.4c.6-3.9,3.6-6.9,7.5-7.4l27.7-3.8c2.1-.3,3.7-2.1,3.7-4.3h0c0-2.4-1.9-4.3-4.3-4.3h-3.5l-27.5,4.2c-6.7,1-12,6.4-12.9,13.1l-5.8,43.8c-.2,1.6,1,3.1,2.7,3.1h0"/>
      <path class="cls-4" d="M460.2,321l-7.2,38.4h0c2,0,3.6,1.6,3.6,3.6v7.3c0,5.1-4.1,9.2-9.2,9.2h-33.7"/>
      <polyline class="cls-4" points="455.4 321.7 447.9 358.6 428.2 358.6"/>
      <line class="cls-4" x1="311.8" y1="329.8" x2="309.8" y2="345.2"/>
      <path class="cls-4" d="M318.8,346.7l2.1-14.5c.6-3.9,3.6-6.9,7.5-7.4l27.7-3.8"/>
    </g>
  </g>
  <g>
    <rect class="cls-8" x="43" y="77.3" width="227.4" height="402.3"/>
    <line class="cls-2" x1="257.4" y1="320.4" x2="55.9" y2="320.4"/>
    <line class="cls-2" x1="55.9" y1="237.1" x2="257.4" y2="237.1"/>
    <g>
      <rect class="cls-6" x="55.9" y="127.6" width="65.6" height="96.8"/>
      <g>
        <path class="cls-7" d="M116,224.4v-31.3c-6.4-2.7-17.1-5.2-28.1-5-11.8.1-22.3,2.3-28,4.8v31.6h56.1Z"/>
        <path class="cls-16" d="M84.5,224.4h7.6l-1.8-23.3,2.7-5.8s-4.4-1.6-7.8,0l1.7,5.8-2.4,23.3Z"/>
        <polygon class="cls-7" points="96.9 184.3 101.9 188.1 95.7 203.1 88.7 195.3 80.9 203.1 74 188.1 79 184.3 96.9 184.3"/>
        <path class="cls-9" d="M98.4,186.2s-5.4,7.9-9.7,8.1c-3,0-10.8-7.4-10.8-7.4,2.1-1.9,2.2-5.4,1.9-8.1-.2-2.2-.8-4-.8-4h17.9c-1.1,3.6-1,6.1-.6,7.9.6,2.6,2.1,3.6,2.1,3.6Z"/>
        <path class="cls-18" d="M96.3,182.6c-12.9,3.4-15.5-4-15.5-4h-1c-.2-2.2-.8-3.9-.8-3.9h17.9c-1.1,3.6-1,6.1-.6,7.9Z"/>
        <g>
          <path class="cls-18" d="M101.9,161.9s8.6-27.4-22.8-20c0,0-2.6-1.3-4.1-.7-1.6.6-3.1,11.7-.4,21.9l27.4-1.2Z"/>
          <g>
            <path class="cls-8" d="M100.8,162.2s1.4-1.6,2.1-1c.7.5,1.5,2,1.2,3.3-.4,1.3-2.1,3.6-2.2,5-.1,1.3-1,2.9-1.9,2-.9-.9.8-9.2.8-9.2Z"/>
            <path class="cls-8" d="M75.1,162.2s-1.4-1.6-2.1-1c-.7.5-1.5,2-1.2,3.3.4,1.3,2.1,3.6,2.2,5s1,2.9,1.9,2c.9-.9-.8-9.2-.8-9.2Z"/>
          </g>
          <path class="cls-9" d="M87.7,144.1c18.1,0,13.8,24.1,10.5,31.8-1.2,2.7-7.2,6.3-10.2,6.3s-9-4.3-10.1-6.8c-3.4-7.8-7.5-31.3,9.8-31.3Z"/>
          <g>
            <path class="cls-4" d="M90.7,159s4.7-1.5,6.2,1.5"/>
            <path class="cls-18" d="M94.2,162.9c0,.6-.3,1-.6,1s-.6-.5-.6-1,.3-1,.6-1,.6.5.6,1Z"/>
            <path class="cls-4" d="M85.2,159s-4.7-1.5-6.2,1.5"/>
            <path class="cls-18" d="M81.7,162.9c0,.6.3,1,.6,1s.6-.5.6-1-.3-1-.6-1-.6.5-.6,1Z"/>
          </g>
          <path class="cls-18" d="M77.8,151.3c-1,1.2,0,5,.3,6.6.3,1.5-2.1,2.6-1.8,6.5l-.9,1.3s-2.6-6.3-1.9-11.7,4.1-7.5,4.1-7.5c0,0,1.6-4.7,10.7-4.6,9.8,0,10.8,5.4,10.8,5.4,0,0,6.7,4.4,1.7,18.9l-1.1-1.8s.5-2.9-1.2-5.5c-.9-1.3.5-5,.2-6.9-.3-1.9-19.8-1.9-20.8-.7Z"/>
          <path class="cls-4" d="M89,161.9s.3,5.6,1.1,7.1-2,1.8-3.2.9"/>
          <path class="cls-8" d="M84,172.9s.4,1.6,1.7,2.2c1.2.5,5,.3,5.7-.1.7-.4,1.1-1.9,1.1-1.9"/>
          <path class="cls-4" d="M83.6,172.8s3.7,1.1,9.4,0"/>
        </g>
        <polygon class="cls-10" points="69.6 189.9 55.9 193.7 55.9 224.4 87.2 224.4 69.6 189.9"/>
        <polygon class="cls-10" points="121.5 194.6 104.2 189.1 89.7 224.4 121.5 224.4 121.5 194.6"/>
        <polygon class="cls-1" points="95.8 224.4 106 212.5 99.7 206.5 109.3 201.1 106 190 101.9 188.1 89.5 224.4 95.8 224.4"/>
        <polygon class="cls-1" points="70.6 213.7 80.8 224.4 87.5 224.4 74 188.1 69.6 189.9 66.4 200.2 76.2 208 70.6 213.7"/>
      </g>
    </g>
    <g>
      <path class="cls-18" d="M119.5,92.2v2c0,2.5-1.2,3.9-3.7,3.9h-1.2v5.9h-2.4v-15.6h3.6c2.4,0,3.7,1.4,3.7,3.9ZM114.7,90.6v5.3h1.2c.8,0,1.2-.4,1.2-1.5v-2.3c0-1.1-.4-1.5-1.2-1.5h-1.2Z"/>
      <path class="cls-18" d="M125.8,103.9c-.1-.4-.2-.6-.2-1.9v-2.4c0-1.4-.5-2-1.6-2h-.8v6.3h-2.4v-15.6h3.7c2.5,0,3.6,1.2,3.6,3.6v1.2c0,1.6-.5,2.6-1.6,3.1h0c1.2.6,1.6,1.7,1.6,3.3v2.4c0,.8,0,1.3.3,1.9h-2.5ZM123.1,90.6v4.8h1c.9,0,1.5-.4,1.5-1.6v-1.5c0-1.1-.4-1.6-1.2-1.6h-1.2Z"/>
      <path class="cls-18" d="M129.4,92.1c0-2.5,1.3-3.9,3.7-3.9s3.7,1.4,3.7,3.9v8.1c0,2.5-1.3,3.9-3.7,3.9s-3.7-1.4-3.7-3.9v-8.1ZM131.8,100.3c0,1.1.5,1.5,1.3,1.5s1.3-.4,1.3-1.5v-8.4c0-1.1-.5-1.5-1.3-1.5s-1.3.4-1.3,1.5v8.4Z"/>
      <path class="cls-18" d="M140.9,95.3h3.2v2.2h-3.2v6.4h-2.4v-15.6h6.5v2.2h-4v4.7Z"/>
      <path class="cls-18" d="M146.1,88.3h2.4v15.6h-2.4v-15.6Z"/>
      <path class="cls-18" d="M150.3,88.3h2.4v13.4h4v2.2h-6.5v-15.6Z"/>
      <path class="cls-18" d="M160.3,94.9h3.4v2.2h-3.4v4.6h4.2v2.2h-6.7v-15.6h6.7v2.2h-4.2v4.3Z"/>
      <path class="cls-18" d="M169.5,88.3h3.9c2.4,0,3.7,1.4,3.7,3.9v7.9c0,2.5-1.2,3.9-3.7,3.9h-3.9v-15.6ZM171.9,90.6v11.1h1.4c.8,0,1.2-.4,1.2-1.5v-8.1c0-1.1-.5-1.5-1.2-1.5h-1.4Z"/>
      <path class="cls-18" d="M186.5,103.9h-2.5l-.4-2.8h-3l-.4,2.8h-2.2l2.5-15.6h3.6l2.5,15.6ZM180.9,99h2.4l-1.2-7.9h0l-1.2,7.9Z"/>
      <path class="cls-18" d="M186.1,88.3h7.6v2.2h-2.6v13.4h-2.4v-13.4h-2.6v-2.2Z"/>
      <path class="cls-18" d="M201.8,103.9h-2.5l-.4-2.8h-3l-.4,2.8h-2.2l2.5-15.6h3.6l2.5,15.6ZM196.2,99h2.4l-1.2-7.9h0l-1.2,7.9Z"/>
    </g>
    <line class="cls-4" x1="55.9" y1="116" x2="257.4" y2="116"/>
    <g>
      <path class="cls-18" d="M134.7,132.6h49.3c1.1,0,2-.9,2-2s-.9-2-2-2h-49.3c-1.1,0-2,.9-2,2s.9,2,2,2Z"/>
      <path class="cls-18" d="M202.6,142.5h-67.9c-1.1,0-2,.9-2,2s.9,2,2,2h67.9c1.1,0,2-.9,2-2s-.9-2-2-2Z"/>
      <path class="cls-18" d="M165.4,156.4h-30.6c-1.1,0-2,.9-2,2s.9,2,2,2h30.6c1.1,0,2-.9,2-2s-.9-2-2-2Z"/>
      <path class="cls-18" d="M202.6,170.4h-67.9c-1.1,0-2,.9-2,2s.9,2,2,2h67.9c1.1,0,2-.9,2-2s-.9-2-2-2Z"/>
      <path class="cls-18" d="M174.7,184.4h-40c-1.1,0-2,.9-2,2s.9,2,2,2h40c1.1,0,2-.9,2-2s-.9-2-2-2Z"/>
      <rect class="cls-1" x="132.7" y="200.4" width="22" height="22"/>
      <rect class="cls-3" x="166.6" y="200.4" width="22" height="22"/>
      <rect class="cls-1" x="200.6" y="200.4" width="22" height="22"/>
    </g>
    <g>
      <g>
        <g>
          <circle class="cls-12" cx="89.7" cy="271.6" r="19.6"/>
          <path class="cls-11" d="M109.3,271.6c0,10.8-8.8,19.6-19.6,19.6s-19.6-8.8-19.6-19.6,8.8-19.6,19.6-19.6"/>
        </g>
        <path class="cls-18" d="M105,302.4h-30.6c-1.1,0-2,.9-2,2s.9,2,2,2h30.6c1.1,0,2-.9,2-2s-.9-2-2-2Z"/>
      </g>
      <g>
        <g>
          <circle class="cls-12" cx="154.5" cy="271.6" r="19.6"/>
          <path class="cls-11" d="M168.3,285.5c-3.6,3.6-8.5,5.8-13.9,5.8-10.8,0-19.6-8.8-19.6-19.6s8.8-19.6,19.6-19.6"/>
        </g>
        <path class="cls-18" d="M169.8,302.4h-30.6c-1.1,0-2,.9-2,2s.9,2,2,2h30.6c1.1,0,2-.9,2-2s-.9-2-2-2Z"/>
      </g>
      <g>
        <g>
          <circle class="cls-12" cx="219.2" cy="271.6" r="19.6"/>
          <path class="cls-11" d="M219.2,291.3c-10.8,0-19.6-8.8-19.6-19.6s8.8-19.6,19.6-19.6"/>
        </g>
        <path class="cls-18" d="M234.5,302.4h-30.6c-1.1,0-2,.9-2,2s.9,2,2,2h30.6c1.1,0,2-.9,2-2s-.9-2-2-2Z"/>
      </g>
    </g>
    <rect class="cls-1" x="55.9" y="332.8" width="37.9" height="37.9"/>
    <g>
      <path class="cls-18" d="M105.3,336.8h117.1c1.1,0,2-.9,2-2s-.9-2-2-2h-117.1c-1.1,0-2,.9-2,2s.9,2,2,2Z"/>
      <path class="cls-18" d="M241.1,346.7H105.3c-1.1,0-2,.9-2,2s.9,2,2,2h135.7c1.1,0,2-.9,2-2s-.9-2-2-2Z"/>
      <path class="cls-18" d="M237.8,360.7H105.3c-1.1,0-2,.9-2,2s.9,2,2,2h132.4c1.1,0,2-.9,2-2s-.9-2-2-2Z"/>
      <path class="cls-18" d="M241.1,374.7H105.3c-1.1,0-2,.9-2,2s.9,2,2,2h135.7c1.1,0,2-.9,2-2s-.9-2-2-2Z"/>
      <path class="cls-18" d="M134,388.6h-28.6c-1.1,0-2,.9-2,2s.9,2,2,2h28.6c1.1,0,2-.9,2-2s-.9-2-2-2Z"/>
    </g>
    <rect class="cls-1" x="55.9" y="406.3" width="37.9" height="37.9"/>
    <g>
      <path class="cls-18" d="M105.3,410.4h117.1c1.1,0,2-.9,2-2s-.9-2-2-2h-117.1c-1.1,0-2,.9-2,2s.9,2,2,2Z"/>
      <path class="cls-18" d="M241.1,420.3H105.3c-1.1,0-2,.9-2,2s.9,2,2,2h135.7c1.1,0,2-.9,2-2s-.9-2-2-2Z"/>
      <path class="cls-18" d="M237.8,434.2H105.3c-1.1,0-2,.9-2,2s.9,2,2,2h132.4c1.1,0,2-.9,2-2s-.9-2-2-2Z"/>
      <path class="cls-18" d="M241.1,448.2H105.3c-1.1,0-2,.9-2,2s.9,2,2,2h135.7c1.1,0,2-.9,2-2s-.9-2-2-2Z"/>
      <path class="cls-18" d="M134,462.1h-28.6c-1.1,0-2,.9-2,2s.9,2,2,2h28.6c1.1,0,2-.9,2-2s-.9-2-2-2Z"/>
    </g>
  </g>
  <g>
    <polyline class="cls-8" points="285.1 79.5 294.7 93.5 285.8 100.3 277.8 88.4"/>
    <polygon class="cls-7" points="297.3 94 290 84 279.2 92.2 284.5 102.1 297.3 94"/>
    <g>
      <path class="cls-21" d="M360,145.3l-.2,33.1s-4-2-9.8-5c-10.3-5.4-26.3-14-34.3-19.9-2.2-1.6-3.8-3-4.5-4.1-5.2-7.5-30.9-51.4-30.9-51.4l13.8-9.9,24.9,36.7,6.1,9,.6.2,34.5,11.3Z"/>
      <g class="cls-23">
        <g>
          <path class="cls-13" d="M354.4,158.5l-4.5,15c-10.3-5.4-26.3-14-34.3-19.9,15.8,3,38.8,4.9,38.8,4.9Z"/>
          <path class="cls-13" d="M325.5,134c-4.9,1.3-6.4,4.5-6.4,4.5-2.3-6-1.6-10.6-.3-13.7l6.1,9,.6.2Z"/>
        </g>
      </g>
      <path class="cls-4" d="M360,145.3l-.2,33.1s-4-2-9.8-5c-10.3-5.4-26.3-14-34.3-19.9-2.2-1.6-3.8-3-4.5-4.1-5.2-7.5-30.9-51.4-30.9-51.4l13.8-9.9,24.9,36.7,6.1,9,.6.2,34.5,11.3Z"/>
    </g>
    <g>
      <path class="cls-9" d="M285.7,82.1c.4-.7.6-1.6.7-2.6,0-1.1,0-2.3-.3-3.6-.3-1.1-.7-2.3-1.4-3.4-.5-.9-1-1.9-1.4-3-.3-.7-.5-1.4-.7-2.1-.7-2.3-1-4.2-1-4.2,0,0-2.2-.8-2.5,1.4,0,.6,0,1.2,0,1.8.2,1,.5,2.1.7,2.9.2.7.2,1.2,0,1.5,0,.2-.2.4-.3.5,0,0,0,0,0,0,0,0,0,.1-.1.2-.3.3-.7.6-1,.8-.2,0-.4.1-.6.1,0,0,0,0-.2,0-.1,0-.3,0-.4,0-.6-.1-1.4-.4-2.1-.8h0c-.9-.5-1.9-1.1-2.8-1.8h0c-.3-.3-.7-.5-1-.8-.9-.7-1.7-1.5-2.3-2-.5-.5-1.1-1.1-1.7-1.6-.6-.5-1.1-1-1.7-1.4-1.6-1.2-3.1-1.8-3.6-.6-.5,1.1,0,1.6,1.4,2.8.5.4,1,.9,1.6,1.6.9.9,1.8,2,3,3.6h0c.1.2.2.3.4.5l-.5.6c0,.1-.2,0-.7-.2h0c-.9-.4-2.4-1.3-4.1-2.4-.6-.4-1.2-.8-1.8-1.3-.6-.4-1.1-.8-1.6-1.3-2.6-2.1-3.2.3-2.8,1.4.3.6,1.3,1.5,2.6,2.4.6.4,1.2.9,1.8,1.3.3.2.6.4.8.7,1.1.9,2.2,1.8,3,2.5.1,0,.2.2.3.2l-.3,1c-.2,0-.3,0-.5-.1t0,0c-1.7-.5-3.1-1-4.1-1.4-.9-.4-1.6-.8-2.1-1.1-1-.5-1.6-.7-2.2-.1-.7.7,0,1.8,1.1,2.7.9.8,2.1,1.4,3,1.8h0c.2,0,.4.1.6.2.8.2,1.7.7,2.9,1.4.2.1.4.2.6.3l.2.8c-.3,0-.6,0-.9,0,0,0,0,0,0,0-1.1-.1-2-.3-2.8-.5h0c-1-.2-1.7-.5-2.3-.5-.6,0-1,0-1.3.5-.4.7.3,1.4,1.3,2,.6.3,1.3.6,2,.8.6.2,1.2.3,1.6.3.6,0,1.8.3,2.9.7.4.1.8.3,1.2.4,1.4.5,2.7,1,3.1,1.2.1,0,.2,0,.2,0,.9.6,1.7,1.1,2.5,1.5,2.2,1.2,3.6,1.6,5.6,1.8.7,0,1.6-.3,2.5-1"/>
      <path class="cls-4" d="M277.6,72.6s-3,3.7-.5,7.3"/>
    </g>
    <path class="cls-4" d="M333.9,157.3s3.9,7.1,13.9,13.4"/>
    <path class="cls-4" d="M325,133.8s-7.9.6-5.4,8.3"/>
    <path class="cls-18" d="M458.9,446.4s-21.8,18.6-33.1,21.6c-11.3,3-8.1,11.6-8.1,11.6h26.5l11.3-2.4v2.5h7s6.2-3.2,4.7-19.2c0-1-8.3-14-8.3-14Z"/>
    <path class="cls-18" d="M223.7,452.1s-18.4,12.9-29.7,15.9c-11.3,3-8.1,11.6-8.1,11.6h26.5l11.3-2.4v2.5h7s6.2-3.2,4.7-19.2c0-1-.2-2-.4-3.1-2.7-18.7-11.3-5.2-11.3-5.2Z"/>
    <g>
      <path class="cls-19" d="M443.2,461.1s-68.2-55.1-72.1-62.3c-3.9-7.2-11.6-72.7-11.6-72.7h0c-1,.7-64.9,46.1-67.9,50.5-.2.3-.6,1-1.2,1.9-8.5,13.4-53.1,86-53.1,86-12.5.5-19.7-8.4-19.7-8.4l46-99.1,67.4-65.9h0l1-1,6.4-25.7,57.8-7s5,18.3,7.6,32.7c0,.5.1,1.4.2,2.7.3,16.1-4.3,88.5-1.9,94.6,2.6,6.6,57.6,58.2,57.6,58.2.6,11.7-16.5,15.4-16.5,15.4Z"/>
      <g class="cls-22">
        <g>
          <path class="cls-13" d="M359.6,326.1h0c-1,.7-64.9,46.1-67.9,50.5-.2.3-.6,1-1.2,1.9-2.5-16.3,43.5-50.7,43.5-50.7l-9.3-4.8,18.3-2.7c-6.4-2.9-4.3-11-4.3-11l20.9,16.8Z"/>
          <path class="cls-13" d="M363.4,299.9l3,4.5c-18-4-29.2-9.5-35.4-13.3l1-1,6.4-25.7,57.8-7s5,18.3,7.6,32.7c0,.5.1,1.4.2,2.7-15.3,5.9-40.7,7-40.7,7Z"/>
        </g>
      </g>
      <path class="cls-4" d="M443.2,461.1s-68.2-55.1-72.1-62.3c-3.9-7.2-11.6-72.7-11.6-72.7h0c-1,.7-64.9,46.1-67.9,50.5-.2.3-.6,1-1.2,1.9-8.5,13.4-53.1,86-53.1,86-12.5.5-19.7-8.4-19.7-8.4l46-99.1,67.4-65.9h0l1-1,6.4-25.7,57.8-7s5,18.3,7.6,32.7c0,.5.1,1.4.2,2.7.3,16.1-4.3,88.5-1.9,94.6,2.6,6.6,57.6,58.2,57.6,58.2.6,11.7-16.5,15.4-16.5,15.4Z"/>
    </g>
    <g>
      <path class="cls-21" d="M410.3,207.1c-3.2,18.2-16.2,40.4-16.2,40.4l3.1,9.5,8.2,25.4-44.6,13.3-8.1-15.2-7.5,14.1-15.2-6.1,1.2-6.4,2.9-14.8c0-.8-.1-1.7-.2-2.6-1.9-27.5-1.7-84,24-119.9,0,0,38.2,5.3,52.1,48,1.3,4,1.2,9,.3,14.3Z"/>
      <g class="cls-20">
        <path class="cls-13" d="M394.1,247.5l3.1,9.5c-7.6,7-16.8,15.5-17.6,16.6-1.1,1.4-32.4,6.2-48.3,8.5l2.9-14.8c0-.8-.1-1.7-.2-2.6l64.7-53.3,11.8-4.3c-3.2,18.2-16.2,40.4-16.2,40.4Z"/>
      </g>
      <path class="cls-4" d="M410.3,207.1c-3.2,18.2-16.2,40.4-16.2,40.4l3.1,9.5,8.2,25.4-44.6,13.3-8.1-15.2-7.5,14.1-15.2-6.1,1.2-6.4,2.9-14.8c0-.8-.1-1.7-.2-2.6-1.9-27.5-1.7-84,24-119.9,0,0,38.2,5.3,52.1,48,1.3,4,1.2,9,.3,14.3Z"/>
    </g>
    <g>
      <path class="cls-7" d="M349.5,217.6s62.6-50.7,39.5-58.6c-20.8-7.2-47.4,9-39.5,58.6Z"/>
      <path class="cls-14" d="M371.9,177l-8.6,3.7s-6.8,16-8.4,34.9l-6.6,8.4-1.9-8.4s3.2-25.4,14.2-35.7l2.7-10.1,10.4-5.3-1.8,12.5Z"/>
      <path class="cls-1" d="M350.2,214.4s49.4-34.5,38-57.7c0,0,13.5-.4,7.8,32.8l-16.5,4.8,4.6,9.2s-18.6,3.8-35.7,20.5l-6.7-39.5,4.8-3.6-2.8-6.1s17.1-19,33.4-17.4c0,0-19.4,8.1-24.5,23.5-5,15.4-2.4,33.4-2.4,33.4Z"/>
      <path class="cls-7" d="M378.5,155.5s-15.2,4.6-21.9,19.5l8.2-3,.8,2.5,4.1,1.7v8.4s23.4-10.6,23.4-19.1c0-2.4-5.8-13.8-14.5-9.9Z"/>
      <path class="cls-9" d="M393.3,142.7c-5.9,9.5-2,21.1-2,21.1,0,0-17.7,13.2-23.2,9.5,0,0,.3-4.8-.3-11.4-.3-2.9-.7-6.2-1.4-9.6,0,0,1.9-1.1,4.6-2.6,8.8-4.9,26.8-14.3,22.3-7.1Z"/>
    </g>
    <g>
      <path class="cls-9" d="M278.9,300.7c.5-.4,1.1-1,1.5-1.5.4-.5.7-1,.9-1.4.3-.6,1-1.5,1.8-2.4.3-.3.6-.6.8-.9,1-1.1,2-2.1,2.3-2.4,0,0,.1-.1.1-.1.9-.6,1.7-1.2,2.3-1.7,2-1.6,2.9-2.8,3.8-4.5,1.2-2.2-2.3-8.2-4.1-10.4-.5-.6-1.2-1.1-2.1-1.6-1-.5-2.1-.9-3.4-1-1.1-.2-2.4-.2-3.7,0-1.1.2-2.2.2-3.3.2-.7,0-1.5,0-2.2-.1-2.4-.2-4.3-.7-4.3-.7,0,0-1.5,1.8.4,2.9.5.3,1.1.5,1.7.6,1,.2,2.1.3,3,.5.7.1,1.2.2,1.4.5.1.2.3.3.4.5,0,0,0,0,0,0,0,0,0,.1.1.2.2.4.3.8.3,1.3,0,.2,0,.4,0,.6,0,0,0,0,0,.1,0,.1-.1.2-.2.4-.3.5-.9,1.1-1.5,1.7h0c-.8.7-1.8,1.3-2.7,1.9h0c-.4.2-.7.4-1.1.6-1,.6-2,1-2.7,1.3-.7.3-1.4.6-2.1.9-.7.3-1.3.7-1.9,1-1.7,1-2.9,2.2-1.9,3.1.9.9,1.5.5,3.1-.2.6-.3,1.2-.6,2.1-.9,1.1-.5,2.6-.9,4.5-1.4h0c.2,0,.4,0,.6-.1l.4.7c.1,0,0,.2-.5.6h0c-.7.7-2.1,1.7-3.8,2.9-.6.4-1.2.8-1.9,1.2-.6.4-1.2.7-1.8,1-3,1.6-.9,3.1.2,3.1.7,0,1.9-.7,3.2-1.5.6-.4,1.3-.8,1.9-1.2.3-.2.6-.4.9-.5,1.2-.7,2.5-1.4,3.4-1.9.1,0,.2-.1.3-.2l.9.6c0,.1-.2.3-.3.4t0,0c-1.1,1.4-2.1,2.5-2.9,3.2-.7.7-1.3,1.2-1.8,1.6-.9.7-1.3,1.2-.9,2,.4.9,1.6.7,2.9,0,1-.5,2.1-1.3,2.8-2.1h0c.2-.2.3-.3.4-.5.5-.6,1.3-1.3,2.4-2.2.2-.1.3-.3.5-.4h.8c-.1.4-.3.7-.4.9,0,0,0,0,0,0-.5,1-1.1,1.8-1.6,2.4h0c-.6.8-1.1,1.4-1.3,1.9-.3.5-.3.9,0,1.3.4.7,1.4.3,2.3-.5Z"/>
      <polyline class="cls-8" points="285.6 275.1 301.7 269.7 305.8 280.1 292.3 284.6"/>
      <polygon class="cls-7" points="302.9 267.3 291.3 271.7 296.3 284.3 307.2 281.8 302.9 267.3"/>
    </g>
    <path class="cls-10" d="M408.6,194.3s-7.6-3.1-17.4,2.4c-6,3.4-35.7,49.9-34.6,47.7l-61,23.8,6.3,17.5s64.1-16.2,69.3-20.2c5.2-4,32.4-32.8,38.6-57"/>
    <path class="cls-4" d="M343,312.4s18.4,10.1,28.2,19.4"/>
    <path class="cls-4" d="M394.1,287.1c-.2.2-.8,10.2,5.2,14.3"/>
    <path class="cls-4" d="M399.3,284.6s3.3,1.9,1.2,31.2c-2.1,29.2-3.2,70.4-3.2,70.4,0,0,1,3.9,3.8,6.9,2.9,3,49.4,48.4,49.4,48.4"/>
    <path class="cls-4" d="M357,322.1s-15.1,2.8-27.1,1"/>
    <path class="cls-4" d="M352.6,323.8s-59.4,49.2-71.4,53.4"/>
    <line class="cls-4" x1="285.6" y1="374.9" x2="245.7" y2="442.8"/>
    <path class="cls-4" d="M356.7,288.2s-2.5,14.4-4.1,16.8c-1.6,2.4,2,10.7,2,10.7"/>
    <path class="cls-4" d="M352.6,288.2s-1.9,8.8-2.5,10.9c-.6,2.1,2.5,2.9,2.5,2.9"/>
    <path class="cls-1" d="M346.5,227.4s-2,12.5-1.4,18.5"/>
    <path class="cls-4" d="M399.3,222.4s-10.5,7.8-19.9,7.5"/>
    <path class="cls-4" d="M356.5,244.5s4.2,3.3,6.8,1.5"/>
    <path class="cls-4" d="M394.1,247.5s-5.8,3.2-6.9,6.5"/>
    <path class="cls-18" d="M384.1,151.9s-7.2,7.6-16.3,10.1c-.3-2.9-.7-6.2-1.4-9.6,0,0,1.9-1.1,4.6-2.6l13.1,2.1Z"/>
    <g>
      <path class="cls-9" d="M386.4,153.6c-7.3,4.1-15.6,5.5-23.2,1.9-2.7-1.3-4-17.5,0-31.8,6.5-23.1,25.2-23.9,40.3-10.2,8,7.3,3.1,21.8-6.9,32.1"/>
      <path class="cls-4" d="M374.9,125.2s6.3-.9,9.2,5.9"/>
      <path class="cls-4" d="M368.1,122.3s-1-2.8-3.4-2.9"/>
      <path class="cls-8" d="M364.4,138.5s-2.9-3-2-4.7c.9-1.8,1.8-.7,4-2.2,2.2-1.6,2.4-3.9,2.4-3.9"/>
      <path class="cls-18" d="M377.8,133.7c-.3.7-.9,1.2-1.3,1.1-.4-.2-.5-.9-.2-1.7.3-.7.9-1.2,1.3-1.1.4.2.5.9.2,1.7Z"/>
      <path class="cls-18" d="M367.1,128.4c-.3.7-.9,1.2-1.3,1.1-.4-.2-.5-.9-.2-1.7s.9-1.2,1.3-1.1c.4.2.5.9.2,1.7Z"/>
      <path class="cls-4" d="M363.4,142.1s5.9,2.7,10.4,2.8c0,0-2.2,4.8-6.1,4.4-3.9-.4-3-5.8-3-5.8"/>
      <path class="cls-18" d="M390.9,117.5s-6.4-5.1-20.4-7.5c0,0,0-8.5,3.2-11.6,3.2-3.1,5.8,3.3,5.8,3.3,0,0,8-2.2,22,7.5,14,9.6,7.3,32-10.4,41.5v-3.8c-.1,0,0-7.8-2.8-9.3,0,0,2.2-5.6-.2-9.8-2.4-4.2,2.9-10.2,2.9-10.2Z"/>
      <path class="cls-8" d="M388.2,140.3s5.1-6.2,9.3-4c4.2,2.2-5.1,15.5-9.3,13"/>
    </g>
  </g>
</svg>