<?xml version="1.0" encoding="UTF-8"?>
<svg xmlns="http://www.w3.org/2000/svg" version="1.1" viewBox="0 0 500 500">
  <defs>
    <style>
      .cls-1, .cls-2, .cls-3, .cls-4, .cls-5, .cls-6 {
        stroke-linecap: round;
        stroke-linejoin: round;
      }

      .cls-1, .cls-2, .cls-3, .cls-4, .cls-6 {
        stroke: #0e0d0e;
      }

      .cls-1, .cls-2, .cls-4, .cls-5, .cls-6 {
        stroke-width: 1.3px;
      }

      .cls-1, .cls-5, .cls-7 {
        fill: none;
      }

      .cls-2, .cls-3, .cls-8 {
        fill: #fff;
      }

      .cls-3 {
        stroke-width: .7px;
      }

      .cls-9, .cls-10, .cls-8 {
        stroke-width: 0px;
      }

      .cls-9, .cls-6 {
        fill: #0e0d0e;
      }

      .cls-10, .cls-4 {
        fill: #b7b9ba;
      }

      .cls-5 {
        stroke: #fff;
      }

      .cls-7 {
        stroke: #9c9c9c;
        stroke-miterlimit: 10;
        stroke-width: 2px;
      }

      .cls-8 {
        opacity: .5;
      }
    </style>
  </defs>
  <g id="Arrows">
    <g>
      <polygon class="cls-7" points="88.4 289 64.8 259.4 41.3 289 50.5 289 50.5 333.6 79.2 333.6 79.2 289 88.4 289"/>
      <polygon class="cls-7" points="376.5 289 352.9 259.4 329.4 289 338.6 289 338.6 333.6 367.3 333.6 367.3 289 376.5 289"/>
      <polygon class="cls-7" points="449.2 362 425.6 332.4 402.1 362 411.3 362 411.3 406.6 440 406.6 440 362 449.2 362"/>
      <polygon class="cls-7" points="419.4 191.5 395.8 161.9 372.3 191.5 381.5 191.5 381.5 236.2 410.2 236.2 410.2 191.5 419.4 191.5"/>
      <polygon class="cls-7" points="148.3 196.7 124.7 167 101.2 196.7 110.4 196.7 110.4 241.3 139 241.3 139 196.7 148.3 196.7"/>
      <polygon class="cls-7" points="193.9 362 170.4 332.4 146.8 362 156 362 156 406.6 184.7 406.6 184.7 362 193.9 362"/>
    </g>
  </g>
  <g id="Ground">
    <g>
      <ellipse class="cls-10" cx="254.9" cy="471.6" rx="133.1" ry="15.4"/>
      <ellipse class="cls-8" cx="254.9" cy="471.6" rx="133.1" ry="15.4"/>
    </g>
  </g>
  <g id="Cloud">
    <g>
      <path class="cls-6" d="M340.1,101.2c.5-2.9.9-5.9.9-9,0-27.1-22-49.1-49.1-49.1s-19.5,3.1-27.3,8.3c-9.9-24.1-33.6-41.1-61.3-41.1s-66.3,29.7-66.3,66.3,0,1.6,0,2.4c-18.1,5.2-31.3,21.8-31.3,41.5s16.2,39.8,37.2,42.7v.5h195.1c17.3,0,31.3-14,31.3-31.3s-12.9-30.1-29.2-31.2Z"/>
      <path class="cls-4" d="M340.1,95.3c.5-2.9.9-5.9.9-9,0-27.1-22-49.1-49.1-49.1s-19.5,3.1-27.3,8.3c-9.9-24.1-33.6-41.1-61.3-41.1s-66.3,29.7-66.3,66.3,0,1.6,0,2.4c-18.1,5.2-31.3,21.8-31.3,41.5s16.2,39.8,37.2,42.7v.5h195.1c17.3,0,31.3-14,31.3-31.3s-12.9-30.1-29.2-31.2Z"/>
    </g>
  </g>
  <g id="Character">
    <g>
      <path class="cls-2" d="M272.4,270.2l-8.2,4.3s-9,3.9-14.9,7c-5.9,3.1-34.8,25.4-34.8,25.4l-5.9.4-3.5,2.3s-5.9,1.2-5.9,2.3,1.2,1.6,2.3,1.6,5.1-2,5.1-2c0,0-4,5.8-2.4,5.8s6.7,1.1,6.7,1.1c0,0,5.8-1,7.8-1s6.6-10.6,6.6-10.6c0,0,33.6-13.3,37.9-16.4,4.3-3.1,16.8-10.9,16.8-10.9l-7.8-9.4Z"/>
      <g>
        <polygon class="cls-4" points="304 238.1 267.3 271.4 277.9 283.9 298.2 276 305.3 238.5 304 238.1"/>
        <polygon class="cls-6" points="272.2 266.9 267.3 271.4 277.9 283.9 284.2 281.4 272.2 266.9"/>
      </g>
      <g>
        <g>
          <path class="cls-4" d="M368,446.4s11.6,12.1,12.8,18c1.2,5.9-1.7,11.2-6.4,9.7-4.7-1.4-9-16.1-10.2-18.8s-2.6-5.5-2.6-5.5c0,0,3.6-4.7,6.4-3.6Z"/>
          <path class="cls-2" d="M380.9,465.1c.9,5.7-1.9,10.5-6.5,9.1-1.6-.5-3.2-2.6-4.7-5.2,3.1-5,8.1-4.7,11.2-3.9Z"/>
          <path class="cls-2" d="M368.1,465.6c2.6,3.6,5.9,7.4,8.4,6.7,2.6-.7,3.8-5.4,4.3-7.8,1.2,5.9-1.7,11.1-6.4,9.7-2.3-.7-4.5-4.5-6.3-8.6Z"/>
          <path class="cls-3" d="M365.6,453s5.2-2.8,5.5-1.9c.2.9-5,3.6-5.7,3.6s-1.2-.2.2-1.7Z"/>
          <path class="cls-3" d="M366.8,454.7s5.2-2.8,5.5-1.9c.2.9-5,3.6-5.7,3.6s-1.2-.2.2-1.7Z"/>
          <path class="cls-3" d="M368,456.4s5.2-2.8,5.5-1.9c.2.9-5,3.6-5.7,3.6s-1.2-.2.2-1.7Z"/>
          <path class="cls-3" d="M369.1,458s5.2-2.8,5.5-1.9c.2.9-5,3.6-5.7,3.6s-1.2-.2.2-1.7Z"/>
        </g>
        <g>
          <path class="cls-4" d="M274.2,457.3s4.5,6.3,4.9,9.9c.4,3.6-2.6,3.7-6.4,3.3-3.8-.4-8.4,2.4-13.8,2.3-5.4-.1-11.6-2.5-8.6-5.1s10.8-4.7,12.5-6.2c1.7-1.5,2.8-2.9,2.8-2.9l8.6-1.4Z"/>
          <path class="cls-2" d="M250.2,467.7c.8-.7,2.1-1.4,3.4-2,3.6,1.8,5.1,5.2,5.7,7.1-.2,0-.3,0-.5,0-5.4-.1-11.6-2.5-8.6-5.1Z"/>
          <path class="cls-3" d="M263.2,460.7s5.6,2.9,4.2,3.5c-1.4.6-5.6-2.7-4.2-3.5Z"/>
          <path class="cls-3" d="M261.1,461.3s5.6,2.9,4.2,3.5c-1.4.6-5.6-2.7-4.2-3.5Z"/>
          <path class="cls-3" d="M259.8,462.1s5.6,2.9,4.2,3.5c-1.4.6-5.6-2.7-4.2-3.5Z"/>
          <path class="cls-3" d="M257.5,463.2s5.6,2.9,4.2,3.5c-1.4.6-5.6-2.7-4.2-3.5Z"/>
          <path class="cls-2" d="M249.6,468.5c4.1,2.5,8.4,2.8,13,1.9,5-1,7.6-1.4,12.4-1.7,2-.1,3.3-.4,4.2-.7-.1,2.8-2.9,2.9-6.5,2.5-3.8-.4-8.4,2.4-13.8,2.3-4.8-.1-10.3-2-9.3-4.3Z"/>
        </g>
        <g>
          <path class="cls-6" d="M331.2,317.8s-2.7,38.1-1.1,47.4c1.7,9.3,5.7,36.8,5.7,36.8,0,0,6.2,4.5,12.3,14.5s19.7,29.9,19.7,29.9c0,0,.5,3.6-3.8,4.7,0,0-2.1.9-3.3,0-1.2-.9-41.8-38.5-46.5-46.3-4.7-7.8-11.2-56-11.2-56l-6.2-1.2-26.1,49.9,4.5,60.6s.4,2.1-2.6,2.9c-3,.8-5.3,1.2-7.1-.4-1.8-1.5-15.5-67.9-14.4-70.3,1.1-2.4,27.5-67.6,27.5-67.6l2.1-5.5s24.9,2.8,36.1.7c11.2-2.1,13.3-3.8,14.2-.2Z"/>
          <line class="cls-5" x1="297" y1="347.7" x2="283.4" y2="343.6"/>
          <line class="cls-5" x1="295.5" y1="348.4" x2="277" y2="346.3"/>
          <path class="cls-5" d="M327,325.2s-10,6.4,0,10.6"/>
        </g>
        <polyline class="cls-5" points="298.6 327.8 297.1 334 293 338.1 298.1 342.7"/>
      </g>
      <path class="cls-4" d="M357.3,254.9c-9.1-7.4-20.5-16.4-20.5-16.4,0,0-24-.5-32.9-.4l-12.4,39.6s-11.4,39.4-10.9,41.1c.5,1.7,8.5,5.5,26.6,7.6,18,2.1,25.6-5.5,26.1-7.8.5-2.4-.5-6.4-.5-6.4l6.2-10.9,20.4-33.6c2.5-4.2,1.6-9.6-2.2-12.7Z"/>
      <path class="cls-6" d="M350.1,249.1c-7-5.6-13.3-10.6-13.3-10.6,0,0-8-.2-16.4-.3-2.1,4.9-5.8,14.9-2.8,19.8,3.7,6.1,16,7.9,32.5-8.9Z"/>
      <g>
        <path class="cls-2" d="M339.3,197.8s-6.9,1.9-9.7,6.2c-2.8,4.3-11.2,29.2-10.9,31.3s10.9,0,10.9,0c0,0-7.4,15.4-7.4,18s3.3,4,7.6,3.1c4.3-.9,18.8-26,18.8-26,0,0,4.3,5,7,3.3,3.1-2,2.1-5.9-.2-5.9s6.6-9.7,3.6-16.1c-3.1-6.4-16.9-16-19.7-13.8Z"/>
        <g>
          <path class="cls-6" d="M336.7,190.2s-13.3,0-14,6.4c-.7,6.4,6.2,9.3,13.8,8.1,7.6-1.2,14.5-.7,15.4.5.9,1.2-9.3,3.6-6.9,5.2,2.4,1.7,4.7,1.4,4.7,1.4,0,0-3.3.9-3.1,3.3.2,2.4,2.3,12.9,4,12.9s4.8-.2,4.8-.2c0,0,4.5-2.1,8.1-5.9,3.6-3.8,4.5-11.9,0-16.6-4.5-4.7-8.1-9.3-11.6-13.1-3.6-3.8-6.9-7.8-14-8.8-7.1-.9-10.9,1.9-1.2,6.9Z"/>
          <path class="cls-5" d="M364.4,214.8c.4,2.4.1,4.2.1,4.2"/>
          <path class="cls-5" d="M340,197.7s-14.6,1.4-9.1,4.2c5.5,2.8,13.9-2.4,24.5,1.8,4.5,1.8,6.8,4.8,8,7.6"/>
          <path class="cls-5" d="M348.9,208.8s9.9,4.9,11.3,11.9"/>
        </g>
        <path class="cls-1" d="M329.6,235.4s11.4-.7,14.5-3.3"/>
        <g>
          <path class="cls-1" d="M326,225.9s8.3,2.4,10.7-2.6"/>
          <line class="cls-1" x1="335.3" y1="222.3" x2="338.8" y2="223.7"/>
          <path class="cls-2" d="M328.6,214.9s-7.4.9-7.4,2.1,4.7,4.5,4.7,4.5"/>
        </g>
        <path class="cls-9" d="M329.6,212.7c-.3,1-1,1.7-1.6,1.5-.5-.2-.7-1.1-.3-2.2.3-1,1-1.7,1.6-1.5.5.2.7,1.1.3,2.2Z"/>
        <path class="cls-9" d="M335.8,215.8c-.3,1-1,1.7-1.6,1.5-.5-.2-.7-1.1-.3-2.2.3-1,1-1.7,1.6-1.5.5.2.7,1.1.3,2.2Z"/>
        <path class="cls-6" d="M336.2,209.1s3.6.3,3.3,5.2l-3.3-5.2Z"/>
        <path class="cls-6" d="M332.9,206.8s-2-2.6-4.6,1l4.6-1Z"/>
      </g>
      <g>
        <polygon class="cls-6" points="267.4 120 233 76.7 198.7 120 212.1 120 212.1 185.1 253.9 185.1 253.9 120 267.4 120"/>
        <polygon class="cls-2" points="267.4 117.2 233 73.9 198.7 117.2 212.1 117.2 212.1 182.3 253.9 182.3 253.9 117.2 267.4 117.2"/>
        <g>
          <rect class="cls-2" x="160.3" y="174.9" width="139.7" height="139.7"/>
          <rect class="cls-6" x="166.8" y="181.4" width="126.7" height="126.7"/>
          <g>
            <path class="cls-2" d="M264.1,224.1l-29.6,30.9-23-6.4c-2.3-.6-4.8-.2-6.7,1.2l-38.1,27.6v30.8h126.7v-65.2l-18.1-18.9c-3.1-3.2-8.2-3.2-11.3,0Z"/>
            <circle class="cls-2" cx="213.8" cy="215.5" r="16" transform="translate(-66.8 331.4) rotate(-67.7)"/>
          </g>
        </g>
      </g>
      <path class="cls-2" d="M339.9,260.9l-34.9,35.9-53.2,14.7s-4.7-5.5-8.2-5.6c-3.4,0-14.4,4-14.4,4,0,0-1.4,3.4,1.3,3.4,2.7,0,8.2-1.3,8.2-1.3l-15.1,2.6h0c.4,2.4,2.4,4.1,4.8,4.2h6.8c0,0,11.6,1.5,11.6,1.5l11-3.3s52.1-5.7,54.9-6.3c2.7-.7,46.9-38.6,46.9-38.6,0,0,5-4.4,3.1-9.5s-11.6-8.7-11.6-8.7"/>
      <g>
        <path class="cls-4" d="M333.6,264.7l-26.6,26.7,19.8,14.3,34.3-32.3c3.4-3.2,4.2-8.4,1.8-12.5,0,0,0-.1-.1-.2-3.9-6.3-10.1-9.1-10.1-9.1"/>
        <polygon class="cls-6" points="326.7 305.6 331.4 301.2 311.5 286.7 306.9 291.4 326.7 305.6"/>
      </g>
      <g>
        <polygon class="cls-2" points="199.3 312 204.3 317.4 209.2 318 201.6 311.5 199.3 312"/>
        <polygon class="cls-2" points="208.8 312 213.8 317.4 218.6 318 211.1 311.5 208.8 312"/>
        <polygon class="cls-2" points="209.2 318 203.5 310.7 207 310.7 214.1 318 211.1 318.5 209.2 318"/>
        <polygon class="cls-2" points="197.3 312.6 199.8 317.2 204.3 317.4 199.3 312 197.3 312.6"/>
      </g>
    </g>
  </g>
</svg>