<?xml version="1.0" encoding="UTF-8"?>
<svg xmlns="http://www.w3.org/2000/svg" version="1.1" viewBox="0 0 500 500">
  <g id="Background_Complete" data-name="Background Complete">
    <g>
      <rect x="383.56" y="47.16" width="72.66" height="75.74" style="fill: #e8e2dc; stroke-width: 0px;"/>
      <g>
        <rect x="378.63" y="47.16" width="72.66" height="75.74" style="fill: #fbf4ef; stroke-width: 0px;"/>
        <path d="M451.32,122.92h-72.7V47.14h72.7v75.79ZM378.66,122.88h72.61V47.18h-72.61v75.7Z" style="fill: #e8e2dc; stroke-width: 0px;"/>
      </g>
      <rect x="388.4" y="57.34" width="53.12" height="55.38" style="fill: #fff; stroke-width: 0px;"/>
      <path d="M388.4,113.09s-.46.63-1.31,1.52c-.85.9-2.04,2.11-3.38,3.42-1.34,1.32-2.56,2.49-3.47,3.32-.91.83-1.49,1.32-1.54,1.28-.05-.05.46-.62,1.3-1.52.85-.9,2.04-2.11,3.38-3.43,1.34-1.32,2.57-2.5,3.48-3.33.91-.83,1.49-1.32,1.53-1.27Z" style="fill: #e8e2dc; stroke-width: 0px;"/>
      <path d="M441.53,112.95s.63.46,1.52,1.31c.9.85,2.11,2.04,3.42,3.38,1.32,1.34,2.49,2.57,3.32,3.47.83.91,1.32,1.49,1.28,1.54-.05.05-.62-.46-1.52-1.3-.9-.85-2.11-2.04-3.43-3.38-1.32-1.34-2.5-2.57-3.33-3.48-.83-.91-1.32-1.49-1.27-1.53Z" style="fill: #e8e2dc; stroke-width: 0px;"/>
      <path d="M441.38,57.49s.46-.63,1.31-1.52c.85-.9,2.04-2.11,3.38-3.42,1.34-1.32,2.56-2.49,3.47-3.32.91-.83,1.49-1.32,1.54-1.28.05.05-.46.62-1.3,1.52-.85.9-2.04,2.11-3.38,3.43-1.34,1.32-2.57,2.5-3.48,3.33-.91.83-1.49,1.32-1.53,1.27Z" style="fill: #e8e2dc; stroke-width: 0px;"/>
      <path d="M388.26,57.62s-.63-.46-1.52-1.31-2.11-2.04-3.42-3.38c-1.32-1.34-2.49-2.56-3.32-3.47-.83-.91-1.33-1.49-1.28-1.54.05-.05.62.46,1.52,1.3.9.85,2.11,2.04,3.43,3.38,1.32,1.34,2.5,2.57,3.33,3.48.83.91,1.32,1.49,1.27,1.53Z" style="fill: #e8e2dc; stroke-width: 0px;"/>
      <path d="M441.38,112.72s0-.09-.01-.27c0-.19,0-.44-.01-.77,0-.69-.01-1.69-.02-2.99-.01-2.62-.03-6.44-.05-11.29-.03-9.7-.06-23.52-.1-40.06l.2.2c-15.47,0-33.63.02-52.97.03h0l.24-.24c-.01,20.33-.02,39.34-.03,55.38l-.2-.2c15.88.04,29.09.08,38.36.1,4.63.02,8.27.04,10.77.05,1.24.01,2.19.02,2.85.02.31,0,.56,0,.74.01.17,0,.25,0,.26.01,0,0-.07,0-.23.01-.18,0-.41,0-.71.01-.65,0-1.59.01-2.81.02-2.49.01-6.12.03-10.73.05-9.3.02-22.56.06-38.49.1h-.2s0-.2,0-.2c0-16.04-.02-35.05-.03-55.38v-.24s.24,0,.24,0h0c19.35.01,37.51.02,52.97.03h.21v.2c-.04,16.6-.08,30.46-.1,40.19-.02,4.83-.04,8.63-.05,11.24-.01,1.28-.02,2.26-.02,2.95,0,.32,0,.57-.01.75,0,.17,0,.25-.01.25Z" style="fill: #e8e2dc; stroke-width: 0px;"/>
      <rect x="406.1" y="76.16" width="17.73" height="17.73" style="fill: #f0eae4; stroke-width: 0px;"/>
    </g>
    <g>
      <rect x="383.56" y="142.65" width="72.66" height="75.74" style="fill: #e8e2dc; stroke-width: 0px;"/>
      <g>
        <rect x="378.63" y="142.65" width="72.66" height="75.74" style="fill: #fbf4ef; stroke-width: 0px;"/>
        <path d="M451.32,218.41h-72.7v-75.79h72.7v75.79ZM378.66,218.36h72.61v-75.7h-72.61v75.7Z" style="fill: #e8e2dc; stroke-width: 0px;"/>
      </g>
      <rect x="388.4" y="152.83" width="53.12" height="55.38" style="fill: #fff; stroke-width: 0px;"/>
      <path d="M388.4,208.57s-.46.63-1.31,1.52c-.85.9-2.04,2.11-3.38,3.42-1.34,1.32-2.56,2.49-3.47,3.32-.91.83-1.49,1.32-1.54,1.28-.05-.05.46-.62,1.3-1.52.85-.9,2.04-2.11,3.38-3.43,1.34-1.32,2.57-2.5,3.48-3.33.91-.83,1.49-1.32,1.53-1.27Z" style="fill: #e8e2dc; stroke-width: 0px;"/>
      <path d="M441.53,208.44s.63.46,1.52,1.31c.9.85,2.11,2.04,3.42,3.38,1.32,1.34,2.49,2.57,3.32,3.47.83.91,1.32,1.49,1.28,1.54-.05.05-.62-.46-1.52-1.3-.9-.85-2.11-2.04-3.43-3.38-1.32-1.34-2.5-2.57-3.33-3.48-.83-.91-1.32-1.49-1.27-1.53Z" style="fill: #e8e2dc; stroke-width: 0px;"/>
      <path d="M441.38,152.98s.46-.63,1.31-1.52c.85-.9,2.04-2.11,3.38-3.42,1.34-1.32,2.56-2.49,3.47-3.32.91-.83,1.49-1.32,1.54-1.28.05.05-.46.62-1.3,1.52-.85.9-2.04,2.11-3.38,3.43-1.34,1.32-2.57,2.5-3.48,3.33-.91.83-1.49,1.32-1.53,1.27Z" style="fill: #e8e2dc; stroke-width: 0px;"/>
      <path d="M388.26,153.11s-.63-.46-1.52-1.31-2.11-2.04-3.42-3.38c-1.32-1.34-2.49-2.56-3.32-3.47-.83-.91-1.33-1.49-1.28-1.54.05-.05.62.46,1.52,1.3.9.85,2.11,2.04,3.43,3.38,1.32,1.34,2.5,2.57,3.33,3.48.83.91,1.32,1.49,1.27,1.53Z" style="fill: #e8e2dc; stroke-width: 0px;"/>
      <path d="M441.38,208.21s0-.09-.01-.27c0-.19,0-.44-.01-.77,0-.69-.01-1.69-.02-2.99-.01-2.62-.03-6.44-.05-11.29-.03-9.7-.06-23.52-.1-40.06l.2.2c-15.47,0-33.63.02-52.97.03h0l.24-.24c-.01,20.33-.02,39.34-.03,55.38l-.2-.2c15.88.04,29.09.08,38.36.1,4.63.02,8.27.04,10.77.05,1.24.01,2.19.02,2.85.02.31,0,.56,0,.74.01.17,0,.25,0,.26.01,0,0-.07,0-.23.01-.18,0-.41,0-.71.01-.65,0-1.59.01-2.81.02-2.49.01-6.12.03-10.73.05-9.3.02-22.56.06-38.49.1h-.2s0-.2,0-.2c0-16.04-.02-35.05-.03-55.38v-.24s.24,0,.24,0h0c19.35.01,37.51.02,52.97.03h.21v.2c-.04,16.6-.08,30.46-.1,40.19-.02,4.83-.04,8.63-.05,11.24-.01,1.28-.02,2.26-.02,2.95,0,.32,0,.57-.01.75,0,.17,0,.25-.01.25Z" style="fill: #e8e2dc; stroke-width: 0px;"/>
      <rect x="406.1" y="171.65" width="17.73" height="17.73" style="fill: #f0eae4; stroke-width: 0px;"/>
    </g>
    <g>
      <rect x="35.49" y="47.14" width="77.99" height="113.04" style="fill: #e8e2dc; stroke-width: 0px;"/>
      <rect x="31.58" y="47.14" width="77.99" height="113.04" style="fill: #f8f1eb; stroke-width: 0px;"/>
      <g>
        <rect x="41.27" y="59.38" width="58.61" height="88.56" style="fill: #fff; stroke-width: 0px;"/>
        <path d="M99.88,147.94s0-.15-.01-.43c0-.29,0-.71-.01-1.26,0-1.11-.01-2.74-.02-4.86-.01-4.24-.03-10.43-.05-18.24-.02-15.62-.06-37.73-.1-63.77l.19.19c-17.91,0-37.75.01-58.6.02h0l.21-.21c-.02,33.41-.03,64.21-.04,88.56l-.17-.17c17.85.04,32.48.07,42.66.09,5.09.02,9.07.03,11.79.04,1.35,0,2.38.01,3.09.02.7,0,1.07.02,1.07.02,0,0-.34.01-1.03.02-.7,0-1.73.01-3.06.02-2.71,0-6.67.02-11.75.04-10.21.02-24.87.05-42.77.09h-.17s0-.17,0-.17c-.01-24.35-.03-55.15-.04-88.56v-.21s.21,0,.21,0h0c20.86,0,40.7.01,58.6.02h.19s0,.19,0,.19c-.04,26.09-.07,48.25-.1,63.9-.02,7.79-.04,13.96-.05,18.2-.01,2.1-.02,3.71-.02,4.82,0,.54,0,.95-.01,1.23,0,.28-.01.41-.01.41Z" style="fill: #e8e2dc; stroke-width: 0px;"/>
      </g>
      <path d="M97.17,59.97" style="fill: none; stroke: #fcfbfb; stroke-miterlimit: 10; stroke-width: .25px;"/>
      <path d="M109.79,47.14s-.48.81-1.39,2.02-2.19,2.86-3.66,4.64c-1.47,1.78-2.84,3.36-3.85,4.48-1.02,1.12-1.67,1.79-1.72,1.75-.04-.04.53-.78,1.49-1.95,1.05-1.27,2.33-2.83,3.75-4.56,1.42-1.73,2.71-3.29,3.75-4.56.97-1.16,1.58-1.87,1.63-1.83Z" style="fill: #e8e2dc; stroke-width: 0px;"/>
      <g>
        <path d="M100.18,147.65c2.91,4.63,6.35,8.93,10.22,12.78" style="fill: #fff; stroke-width: 0px;"/>
        <path d="M110.41,160.44s-.73-.56-1.78-1.62c-1.05-1.06-2.44-2.58-3.86-4.35-1.42-1.78-2.6-3.46-3.39-4.72-.8-1.25-1.24-2.07-1.19-2.1.05-.03.58.72,1.44,1.93.86,1.21,2.07,2.86,3.48,4.62,1.41,1.76,2.76,3.3,3.74,4.41.99,1.1,1.61,1.78,1.56,1.83Z" style="fill: #e8e2dc; stroke-width: 0px;"/>
      </g>
      <g>
        <path d="M31.57,160.09c3.41-4.2,6.81-8.4,10.22-12.6" style="fill: #fff; stroke-width: 0px;"/>
        <path d="M41.79,147.49c.09.07-2.12,2.96-4.94,6.44-2.82,3.48-5.18,6.24-5.27,6.17-.09-.07,2.12-2.95,4.94-6.44,2.82-3.48,5.18-6.24,5.27-6.17Z" style="fill: #e8e2dc; stroke-width: 0px;"/>
      </g>
      <path d="M31.58,47.14c.09-.07,2.31,2.58,4.96,5.93,2.65,3.35,4.72,6.12,4.63,6.19-.09.07-2.31-2.58-4.96-5.93-2.65-3.35-4.72-6.12-4.63-6.19Z" style="fill: #e8e2dc; stroke-width: 0px;"/>
      <rect x="62" y="77.36" width="19.63" height="55.72" style="fill: #e8e2dc; stroke-width: 0px;"/>
    </g>
    <g>
      <rect x="33.1" y="436.48" width="81.01" height="8.67" transform="translate(147.21 881.63) rotate(180)" style="fill: #f0eae4; stroke-width: 0px;"/>
      <g>
        <path d="M81.45,378.48c0,1.96-32.27,87.45-32.27,87.45h-12.28l32.19-87.45h12.36Z" style="fill: #f0eae4; stroke-width: 0px;"/>
        <rect x="112.9" y="374.56" width="12.24" height="91.37" transform="translate(238.04 840.48) rotate(180)" style="fill: #f0eae4; stroke-width: 0px;"/>
        <rect x="45.26" y="404.75" width="73.76" height="8.67" transform="translate(164.28 818.16) rotate(180)" style="fill: #f0eae4; stroke-width: 0px;"/>
        <rect x="58.63" y="373.01" width="67.73" height="8.67" transform="translate(185 754.7) rotate(180)" style="fill: #f0eae4; stroke-width: 0px;"/>
        <path d="M57.15,381.69c0,.14,15.28.25,34.12.25s34.13-.11,34.13-.25-15.28-.25-34.13-.25-34.12.11-34.12.25Z" style="fill: #e8e2dc; stroke-width: 0px;"/>
      </g>
      <path d="M112.9,381.33c.14,0,.26,18.93.26,42.28s-.12,42.28-.26,42.28-.26-18.93-.26-42.28.12-42.28.26-42.28Z" style="fill: #e8e2dc; stroke-width: 0px;"/>
      <path d="M79.94,382.35s0,.08-.05.23c-.05.17-.12.39-.2.64-.2.6-.48,1.43-.83,2.46-.73,2.13-1.81,5.21-3.17,9-2.71,7.59-6.57,18.03-10.89,29.54-4.3,11.5-8.2,21.91-11.03,29.49-1.39,3.74-2.52,6.79-3.32,8.94-.39,1.02-.69,1.83-.92,2.43-.1.25-.18.46-.25.63-.06.14-.09.21-.1.21,0,0,0-.08.05-.23.06-.17.12-.39.2-.64.2-.6.48-1.43.83-2.46.73-2.13,1.81-5.21,3.17-9,2.71-7.59,6.57-18.03,10.89-29.55,4.3-11.5,8.19-21.9,11.03-29.49,1.39-3.74,2.52-6.79,3.32-8.95.39-1.02.69-1.83.92-2.43.1-.25.18-.46.25-.63.06-.14.09-.21.1-.21Z" style="fill: #e8e2dc; stroke-width: 0px;"/>
      <path d="M67.74,381.87s0,.08-.05.23c-.06.18-.12.39-.2.65-.2.61-.48,1.43-.83,2.47-.73,2.15-1.82,5.24-3.19,9.05-2.73,7.63-6.61,18.13-10.95,29.71-4.33,11.57-8.24,22.03-11.09,29.66-1.4,3.76-2.54,6.83-3.34,9-.39,1.03-.7,1.84-.92,2.44-.1.25-.18.46-.25.63-.06.14-.09.21-.1.21,0,0,0-.08.05-.23.06-.18.12-.39.2-.65.2-.61.48-1.43.83-2.47.73-2.15,1.82-5.24,3.19-9.05,2.73-7.63,6.61-18.13,10.95-29.72,4.32-11.56,8.24-22.03,11.09-29.66,1.4-3.77,2.54-6.83,3.34-9,.39-1.03.7-1.84.92-2.44.1-.25.18-.46.25-.63.06-.14.09-.21.1-.21Z" style="fill: #e8e2dc; stroke-width: 0px;"/>
    </g>
    <g>
      <rect x="368.58" y="271.2" width="97.67" height="184.62" style="fill: #e8e2dc; stroke-width: 0px;"/>
      <rect x="339.6" y="271.2" width="97.67" height="184.62" style="fill: #f8f1eb; stroke-width: 0px;"/>
      <g>
        <path d="M430.07,309.2h-83.83v-29.27h83.83v29.27ZM347.27,308.17h81.77v-27.21h-81.77v27.21Z" style="fill: #e8e2dc; stroke-width: 0px;"/>
        <path d="M372.82,280.45h31.81v.88c0,2.73-2.22,4.95-4.95,4.95h-21.92c-2.73,0-4.95-2.22-4.95-4.95v-.88h0Z" style="fill: #f0eae4; stroke-width: 0px;"/>
      </g>
      <g>
        <path d="M430.07,346.38h-83.83v-29.27h83.83v29.27ZM347.27,345.35h81.77v-27.21h-81.77v27.21Z" style="fill: #e8e2dc; stroke-width: 0px;"/>
        <path d="M372.82,317.63h31.81v.88c0,2.73-2.22,4.95-4.95,4.95h-21.92c-2.73,0-4.95-2.22-4.95-4.95v-.88h0Z" style="fill: #f0eae4; stroke-width: 0px;"/>
      </g>
      <g>
        <path d="M430.07,383.55h-83.83v-29.27h83.83v29.27ZM347.27,382.52h81.77v-27.21h-81.77v27.21Z" style="fill: #e8e2dc; stroke-width: 0px;"/>
        <path d="M372.82,354.8h31.81v.88c0,2.73-2.22,4.95-4.95,4.95h-21.92c-2.73,0-4.95-2.22-4.95-4.95v-.88h0Z" style="fill: #f0eae4; stroke-width: 0px;"/>
      </g>
      <g>
        <path d="M430.07,420.73h-83.83v-29.27h83.83v29.27ZM347.27,419.7h81.77v-27.21h-81.77v27.21Z" style="fill: #e8e2dc; stroke-width: 0px;"/>
        <path d="M372.82,391.98h31.81v.88c0,2.73-2.22,4.95-4.95,4.95h-21.92c-2.73,0-4.95-2.22-4.95-4.95v-.88h0Z" style="fill: #f0eae4; stroke-width: 0px;"/>
      </g>
      <rect x="335.26" y="264.29" width="106.08" height="9.2" style="fill: #f0eae4; stroke-width: 0px;"/>
      <rect x="441.35" y="264.29" width="31.9" height="9.2" style="fill: #e8e2dc; stroke-width: 0px;"/>
      <rect x="339.6" y="455.82" width="5.13" height="9.43" style="fill: #e8e2dc; stroke-width: 0px;"/>
      <rect x="371.31" y="455.82" width="5.13" height="9.43" style="fill: #e8e2dc; stroke-width: 0px;"/>
      <rect x="429.23" y="455.82" width="5.13" height="9.43" style="fill: #e8e2dc; stroke-width: 0px;"/>
      <rect x="458.2" y="455.82" width="5.13" height="9.43" style="fill: #e8e2dc; stroke-width: 0px;"/>
    </g>
  </g>
  <g id="Background_Simple" data-name="Background Simple" style="display: none;">
    <path d="M462.25,185.7l-1.63-1.61c-13.77-13.6-33.8-18.86-52.07-13.02-2.35.75-4.64,1.67-6.86,2.76-15.97,7.85-27.45,24.3-29.44,42.17-1.17,10.51.61,21.83-4.27,31.17-6.35,12.15-21.28,16.23-34.58,19.13-13.3,2.9-28.23,7.02-34.53,19.2-3.94,7.63-3.47,16.95-.92,25.2,6.73,21.84,27.13,37.77,49.22,42.68,22.09,4.91,45.41,0,65.8-9.72,28.56-13.61,52.98-37.45,63.72-67.48,10.74-30.04,6.29-66.17-14.43-90.47Z" style="fill: #f5f5f5; stroke-width: 0px;"/>
    <path d="M120.7,337.38l1.83-.68c15.44-5.76,26.68-19.36,28.71-35.56.26-2.08.37-4.18.33-6.29-.34-15.15-8.94-29.91-22.03-37.85-7.7-4.67-17.08-7.35-22.55-14.46-7.11-9.26-4.91-22.25-2.39-33.57,2.52-11.31,4.69-24.33-2.46-33.55-4.48-5.78-11.85-8.75-19.13-9.74-19.29-2.62-38.89,7.43-50.6,22.73-11.71,15.3-16.27,35.08-16.06,54.31.29,26.94,9.95,54.34,29.3,73.4,19.36,19.06,48.86,28.57,75.06,21.26Z" style="fill: #f5f5f5; stroke-width: 0px;"/>
    <circle cx="74.21" cy="78.78" r="29.57" style="fill: #f5f5f5; stroke-width: 0px;"/>
    <circle cx="420.06" cy="108.35" r="38.83" style="fill: #f5f5f5; stroke-width: 0px;"/>
  </g>
  <g id="Floor">
    <path d="M455.36,465.92c0,.14-91.95.26-205.35.26s-205.37-.12-205.37-.26,91.93-.26,205.37-.26,205.35.12,205.35.26Z" style="fill: #504970; stroke-width: 0px;"/>
  </g>
  <g id="Plant">
    <g>
      <g>
        <path d="M319.76,435.56s-4.4-30.28-4.04-47.9c.37-17.62-.02-37.44-.02-37.44h2.03s-1.37,34.97.12,56.06c1.49,21.08,5.43,29.28,5.43,29.28h-3.52" style="fill: #25201b; stroke-width: 0px;"/>
        <path d="M332.88,316.15c-.41-1.03-.91-2.11-1.85-2.71-1.29-.82-2.98-.48-4.41.03-6.13,2.17-11.57,13.6-14.05,19.62l8.14,27.43c14.7-13.63,17.24-31.52,12.17-44.37Z" style="fill: #455a64; stroke-width: 0px;"/>
        <path d="M330.55,314.55s-.03.13-.12.36c-.1.26-.24.59-.4,1-.36.86-.86,2.12-1.46,3.68-1.2,3.12-2.73,7.47-4.09,12.38-1.36,4.91-2.3,9.43-2.87,12.72-.29,1.64-.51,2.98-.65,3.9-.07.43-.13.78-.17,1.06-.04.24-.07.37-.08.37-.01,0,0-.13.02-.38.03-.28.07-.64.11-1.07.1-.93.28-2.27.54-3.92.52-3.3,1.42-7.84,2.78-12.77,1.37-4.92,2.94-9.28,4.19-12.37.63-1.55,1.16-2.79,1.56-3.64.19-.4.34-.72.46-.98.11-.22.17-.34.18-.33Z" style="fill: #25201b; stroke-width: 0px;"/>
        <path d="M317.09,367.1c-7.63-4.22-12.13-12.15-12.55-20.86-.29-6.09,1.58-12.06,3.7-17.78.18-.5.4-1.03.86-1.29.64-.36,1.44-.04,2.08.32,5.55,3.16,8.91,9.18,10.69,15.3,1.19,4.08,1.81,8.37,1.26,12.58-.55,4.21-2.96,8.79-6.04,11.71" style="fill: #455a64; stroke-width: 0px;"/>
        <path d="M317.09,367.1s-.02-.13-.03-.37c0-.28-.01-.63-.02-1.05,0-.91-.04-2.24-.11-3.87-.15-3.26-.57-7.76-1.42-12.67-.85-4.91-1.87-9.31-2.63-12.49-.37-1.56-.68-2.83-.9-3.77-.1-.42-.17-.76-.23-1.03-.05-.24-.07-.36-.06-.36.01,0,.05.12.13.35.08.27.18.6.3,1.01.25.88.6,2.16,1.01,3.74.82,3.17,1.88,7.57,2.73,12.49.84,4.93,1.24,9.45,1.32,12.72.04,1.64.05,2.96,0,3.88-.02.43-.03.78-.04,1.05-.01.24-.03.37-.04.37Z" style="fill: #25201b; stroke-width: 0px;"/>
        <g style="opacity: .3;">
          <path d="M317.09,367.1c-7.63-4.22-12.13-12.15-12.55-20.86-.29-6.09,1.58-12.06,3.7-17.78.18-.5.4-1.03.86-1.29.64-.36,1.44-.04,2.08.32,5.55,3.16,8.91,9.18,10.69,15.3,1.19,4.08,1.81,8.37,1.26,12.58-.55,4.21-2.96,8.79-6.04,11.71" style="fill: #000; stroke-width: 0px;"/>
        </g>
        <path d="M325.7,413.44c7.51,1.65,13.7,6.95,20.94,9.52,4.79,1.7,10.22,2.31,14.04,5.66-.92-2.32-3.1-3.86-5.21-5.18-5.96-3.72-12.34-6.77-18.98-9.06-3.41-1.18-7.11-2.16-10.58-1.19" style="fill: #455a64; stroke-width: 0px;"/>
        <path d="M314.84,420.13c-9.41-.15-19.31-8.16-28.67-8.64,9.8-3.16,23.83-.58,28.67,8.64" style="fill: #455a64; stroke-width: 0px;"/>
        <path d="M318.52,397.56c4.78-1.72,10.02-1.8,15.04-1.02s9.86,2.39,14.68,3.99c-.48-3.26-3.13-5.72-5.61-7.89-1.87-1.63-3.75-3.28-5.89-4.53-2.14-1.25-4.59-2.1-7.07-1.99-2.99.13-5.84,1.67-7.8,3.93-1.96,2.26-3.02,4.54-3.34,7.52" style="fill: #455a64; stroke-width: 0px;"/>
        <path d="M299.21,387.18c-5.92-5.06-14.89-4.56-22.67-4.39,11.96,5.72,24.86,13.56,35.16,21.91.32-5.5-5.01-11.14-12.49-17.53Z" style="fill: #455a64; stroke-width: 0px;"/>
        <g style="opacity: .3;">
          <path d="M299.21,387.18c-5.92-5.06-14.89-4.56-22.67-4.39,11.96,5.72,24.86,13.56,35.16,21.91.32-5.5-5.01-11.14-12.49-17.53Z" style="fill: #000; stroke-width: 0px;"/>
        </g>
        <path d="M321.18,380.2c2.98-1.98,5.99-3.88,9.11-5.29,3.12-1.42,6.02-3.67,9.03-5.3,3.9-2.11,7.28-5.05,10.87-7.67,3.58-2.62,7.52-4.99,11.9-5.68-3.57-.74-7.31-.34-10.83.63-3.52.96-6.87,2.47-10.19,3.97-4.62,2.08-9.32,4.21-13.09,7.59-3.78,3.38-7.19,6.71-6.79,11.76" style="fill: #455a64; stroke-width: 0px;"/>
        <path d="M346.47,420.13s-.11-.03-.3-.13c-.22-.12-.49-.26-.82-.43-.71-.38-1.73-.94-3.01-1.58-.63-.33-1.34-.68-2.1-1.04-.75-.37-1.57-.74-2.44-1.12-1.74-.74-3.68-1.52-5.79-2.02-2.11-.52-4.21-.63-6.03-.15-.92.22-1.79.44-2.56.76-.77.31-1.46.68-2.06,1.06-1.21.76-2.05,1.56-2.59,2.14-.54.58-.81.94-.83.92,0,0,.05-.1.17-.28.12-.18.31-.43.57-.73.52-.61,1.35-1.46,2.56-2.25.6-.4,1.3-.79,2.09-1.12.78-.34,1.67-.58,2.59-.81,1.86-.51,4.05-.4,6.18.13,2.15.51,4.1,1.3,5.84,2.06.87.39,1.69.77,2.44,1.15.76.37,1.46.73,2.09,1.08,1.27.67,2.27,1.26,2.96,1.68.32.19.58.35.79.48.18.11.27.18.26.19Z" style="fill: #25201b; stroke-width: 0px;"/>
        <path d="M307.82,415.47s.22.04.59.17c.37.13.9.35,1.53.67,1.27.62,2.93,1.69,4.49,3.19,1.56,1.5,2.69,3.12,3.36,4.36.34.62.59,1.14.73,1.5.15.37.22.57.2.58-.05.02-.41-.77-1.13-1.97-.72-1.19-1.86-2.76-3.39-4.24-1.54-1.47-3.15-2.55-4.37-3.22-1.22-.67-2.03-.99-2.01-1.05Z" style="fill: #25201b; stroke-width: 0px;"/>
        <path d="M287.01,386.7s.14.03.4.12c.29.1.67.24,1.13.4.5.19,1.1.4,1.78.66.69.26,1.45.64,2.3,1.01,3.39,1.54,7.89,4.12,12.25,7.8,2.15,1.87,4.09,3.77,5.71,5.62,1.62,1.86,2.99,3.61,4.05,5.14,1.07,1.52,1.89,2.79,2.45,3.66.26.41.48.75.64,1.01.15.23.22.36.21.36,0,0-.1-.11-.26-.32-.16-.22-.4-.55-.7-.98-.59-.86-1.44-2.1-2.53-3.6-1.09-1.5-2.47-3.23-4.09-5.07-1.63-1.84-3.56-3.72-5.7-5.57-4.33-3.65-8.78-6.26-12.13-7.84-.84-.39-1.59-.78-2.27-1.06-.67-.27-1.26-.51-1.75-.71-.45-.19-.82-.34-1.11-.46-.25-.11-.38-.17-.38-.18Z" style="fill: #25201b; stroke-width: 0px;"/>
        <path d="M332.63,392.27s-.27-.01-.75-.1c-.26-.05-.55-.1-.86-.16-.34-.07-.73-.07-1.16-.11-1.69-.12-4.16.02-6.46,1.28-1.16.59-2.14,1.39-2.94,2.18-.81.79-1.43,1.62-1.89,2.34-.94,1.44-1.24,2.49-1.29,2.47-.02,0,.03-.27.19-.73.17-.45.44-1.12.9-1.86.45-.75,1.05-1.61,1.87-2.43.81-.83,1.81-1.65,3-2.26,2.38-1.3,4.93-1.4,6.64-1.22.43.06.83.08,1.17.16.32.08.6.15.86.22.47.12.73.2.72.22Z" style="fill: #25201b; stroke-width: 0px;"/>
        <path d="M342.08,362.95s-.12.09-.36.22c-.27.15-.62.34-1.05.57-.91.49-2.23,1.22-3.82,2.16-1.59.95-3.46,2.12-5.45,3.55-1.98,1.43-4.12,3.08-6.08,5.1-.97,1.01-1.86,2.07-2.49,3.22-.62,1.18-1.2,2.33-1.75,3.42-1.09,2.19-1.97,4.21-2.61,5.95-.64,1.74-1.04,3.18-1.27,4.19-.24,1.01-.33,1.57-.36,1.57-.01,0,0-.14.04-.42.03-.27.09-.67.2-1.18.2-1.02.56-2.48,1.18-4.24.61-1.76,1.48-3.8,2.56-6,.54-1.11,1.12-2.25,1.73-3.44.65-1.2,1.56-2.28,2.54-3.3,1.99-2.04,4.14-3.7,6.15-5.12,2.01-1.42,3.9-2.57,5.51-3.5,1.62-.92,2.95-1.61,3.88-2.07.44-.21.8-.38,1.08-.51.25-.11.38-.17.39-.16Z" style="fill: #25201b; stroke-width: 0px;"/>
        <path d="M315.71,391.43s-.09-.28-.19-.79c-.11-.58-.25-1.31-.41-2.17-.36-1.83-.91-4.35-1.78-7.06-.86-2.71-1.92-5.07-2.69-6.77-.37-.8-.67-1.48-.92-2.01-.21-.48-.32-.75-.3-.76s.17.24.42.7c.25.46.6,1.13,1.01,1.97.83,1.68,1.92,4.03,2.79,6.77.88,2.73,1.39,5.27,1.69,7.12.15.92.25,1.67.31,2.2.06.52.08.81.06.81Z" style="fill: #25201b; stroke-width: 0px;"/>
        <path d="M315.03,370.03c-.24-3.55-1.39-7.01-3.06-10.16-4.57-8.63-13.15-15.03-22.72-16.94,7.01,10.45,14.02,20.9,21.04,31.35l2.72,5.6c1.85-3.04,2.26-6.3,2.03-9.85Z" style="fill: #455a64; stroke-width: 0px;"/>
      </g>
      <g>
        <rect x="296.29" y="431.82" width="48.91" height="8.67" style="fill: #9a635a; stroke-width: 0px;"/>
        <polygon points="299.94 438.77 304.11 465.67 336.58 465.67 341.55 438.77 299.94 438.77" style="fill: #9a635a; stroke-width: 0px;"/>
        <path d="M345.17,440.5c0,.1-11.03.17-24.64.17s-24.64-.08-24.64-.17,11.03-.17,24.64-.17,24.64.08,24.64.17Z" style="fill: #25201b; stroke-width: 0px;"/>
      </g>
    </g>
  </g>
  <g id="Toggle">
    <g>
      <rect x="130.65" y="41.35" width="230.42" height="98" rx="49" ry="49" style="fill: #e8e2dc; stroke-width: 0px;"/>
      <path d="M312.07,139.35s.5-.04,1.48-.1c.49-.03,1.1-.06,1.82-.1.72-.06,1.57-.03,2.5-.22.94-.15,1.99-.31,3.15-.49.29-.05.59-.09.89-.14.3-.08.6-.16.91-.24.62-.16,1.27-.33,1.94-.51.67-.19,1.38-.33,2.09-.57.7-.26,1.43-.53,2.18-.81.75-.29,1.54-.54,2.32-.88.77-.37,1.56-.75,2.37-1.15,1.67-.72,3.25-1.8,4.97-2.82.88-.48,1.65-1.18,2.51-1.78.42-.32.85-.63,1.28-.96l.65-.49.61-.55c.81-.74,1.64-1.5,2.49-2.27.84-.78,1.57-1.7,2.39-2.56.4-.44.81-.88,1.21-1.34.36-.49.73-.98,1.1-1.48.37-.5.74-1,1.12-1.5l.56-.76.5-.82c2.84-4.27,5.05-9.39,6.4-15.04,1.34-5.65,1.74-11.88.84-18.27-.89-6.38-3.15-12.9-6.87-18.88-3.71-5.97-8.87-11.44-15.32-15.44-.81-.49-1.62-.99-2.44-1.48-.82-.49-1.71-.85-2.57-1.29-.88-.39-1.72-.89-2.64-1.2-.91-.33-1.83-.67-2.75-1-.46-.16-.91-.36-1.39-.48l-1.43-.37c-.96-.25-1.92-.49-2.88-.74-.98-.18-1.97-.31-2.96-.47-.99-.13-1.98-.35-2.99-.36-4.02-.29-8.15-.18-12.32-.2-4.17,0-8.4,0-12.68,0-34.25,0-71.91.01-111.43.02-4.92.09-9.78.8-14.45,2.18-4.62,1.51-8.99,3.62-12.98,6.27-3.94,2.73-7.43,6.01-10.45,9.63-2.97,3.67-5.31,7.76-7.16,12-.79,2.18-1.67,4.32-2.15,6.57-.67,2.2-.9,4.49-1.27,6.73-.13,1.13-.14,2.27-.21,3.4l-.09,1.69c-.03.56.04,1.13.06,1.69.06,1.13.11,2.25.17,3.37.13,1.11.33,2.21.49,3.32l.25,1.65.41,1.61c.28,1.07.56,2.14.83,3.21.38,1.04.76,2.07,1.13,3.1.2.51.35,1.04.59,1.53l.71,1.48c1.76,4,4.28,7.56,6.96,10.86.72.79,1.43,1.57,2.14,2.36l.53.59.59.53,1.17,1.06c1.5,1.48,3.22,2.68,4.88,3.93.41.33.84.6,1.29.86l1.32.8,1.32.8.66.4.69.33c1.85.88,3.65,1.84,5.58,2.46.95.33,1.88.73,2.84,1,.97.25,1.94.5,2.9.75l1.44.37,1.47.22c.98.15,1.95.3,2.92.45.97.13,1.95.12,2.92.19.97.04,1.93.12,2.9.13,1.94,0,3.86,0,5.76,0,15.23.01,29.42.02,42.37.03,25.9.03,46.86.06,61.36.08,7.24.02,12.86.04,16.68.05,1.9.01,3.35.02,4.34.03.98,0,1.48.03,1.48.03,0,0-.5.02-1.48.03-.99,0-2.44.01-4.34.03-3.82.01-9.44.03-16.68.05-14.5.02-35.46.05-61.36.08-12.95,0-27.14.02-42.37.03-1.9,0-3.82,0-5.76,0-.97,0-1.95-.08-2.92-.12-.98-.07-1.97-.06-2.95-.19-.98-.15-1.96-.3-2.94-.45l-1.48-.23-1.46-.37c-.97-.25-1.95-.5-2.93-.75-.97-.27-1.91-.67-2.87-1.01-1.95-.62-3.77-1.59-5.63-2.47l-.7-.34-.67-.4-1.33-.81-1.34-.81c-.45-.26-.89-.54-1.3-.87-1.68-1.26-3.41-2.46-4.93-3.96l-1.18-1.07-.59-.54-.54-.59c-.72-.79-1.44-1.58-2.16-2.38-2.71-3.32-5.25-6.92-7.04-10.96l-.72-1.49c-.24-.5-.39-1.03-.6-1.55-.38-1.04-.76-2.08-1.15-3.13-.28-1.08-.56-2.16-.85-3.24l-.41-1.63-.26-1.67c-.16-1.11-.36-2.23-.49-3.35-.06-1.13-.12-2.26-.17-3.4-.02-.57-.08-1.14-.06-1.71l.09-1.71c.07-1.14.08-2.29.21-3.43.37-2.27.6-4.58,1.28-6.8.48-2.28,1.37-4.44,2.17-6.64,1.87-4.29,4.23-8.42,7.24-12.13,3.05-3.66,6.58-6.97,10.56-9.73,4.04-2.67,8.45-4.81,13.12-6.34,4.71-1.39,9.63-2.11,14.6-2.2,39.53,0,77.18.01,111.43.02,4.28,0,8.51,0,12.68,0,4.17.03,8.28-.09,12.36.21,1.02,0,2.02.23,3.02.36,1,.16,2,.29,2.98.47.97.25,1.94.5,2.91.75l1.44.37c.48.13.93.33,1.4.49.93.34,1.85.68,2.77,1.02.93.32,1.78.82,2.66,1.22.87.44,1.77.8,2.6,1.3.82.5,1.64,1,2.46,1.5,6.51,4.05,11.7,9.57,15.43,15.59,3.75,6.03,6.01,12.61,6.9,19.04.89,6.44.48,12.72-.88,18.4-1.37,5.69-3.61,10.83-6.48,15.12l-.5.82-.57.77c-.38.51-.76,1.01-1.13,1.51-.37.5-.74.99-1.11,1.48-.4.46-.82.9-1.22,1.35-.82.87-1.56,1.79-2.41,2.57-.85.77-1.69,1.53-2.51,2.27l-.61.55-.65.49c-.43.32-.86.64-1.29.96-.86.61-1.64,1.3-2.53,1.78-1.73,1.03-3.33,2.1-5,2.82-.82.39-1.61.77-2.39,1.14-.78.34-1.58.59-2.33.88-.76.27-1.49.54-2.19.8-.71.23-1.43.38-2.1.56-.68.17-1.33.34-1.95.5-.31.08-.62.16-.92.23-.3.05-.6.09-.89.13-1.16.17-2.22.33-3.17.47-.94.18-1.79.14-2.51.19-.72.03-1.33.06-1.82.08-.98.04-1.48.05-1.48.05Z" style="fill: #25201b; stroke-width: 0px;"/>
    </g>
    <g style="opacity: .3;">
      <circle cx="185.43" cy="91.1" r="46.43" style="fill: #000; stroke-width: 0px;"/>
    </g>
    <g>
      <circle cx="181.09" cy="90.35" r="46.43" style="fill: #770027; stroke-width: 0px;"/>
      <path d="M227.52,90.35s-.03-.25-.06-.75c-.03-.51-.08-1.25-.14-2.2-.03-.49-.06-1.03-.09-1.62-.06-.59-.19-1.24-.29-1.94-.11-.7-.23-1.45-.36-2.26-.1-.81-.4-1.64-.6-2.53-.82-3.59-2.49-7.83-5.14-12.32-2.67-4.48-6.52-9.15-11.76-13.12-.66-.49-1.32-.99-2-1.49-.7-.46-1.44-.88-2.17-1.33-.75-.42-1.45-.94-2.25-1.3-.79-.38-1.59-.76-2.4-1.15-.4-.19-.81-.38-1.22-.58-.43-.15-.85-.31-1.28-.47-.86-.31-1.73-.63-2.6-.95-.88-.29-1.81-.48-2.72-.73-.92-.21-1.83-.53-2.8-.63-1.91-.27-3.84-.67-5.84-.68-1-.03-2-.13-3.01-.12-1.01.05-2.03.1-3.06.16-.51.04-1.03.03-1.54.1-.51.08-1.03.16-1.54.24-1.03.17-2.07.29-3.11.5-2.04.55-4.15.97-6.16,1.81l-1.53.56c-.26.1-.51.18-.77.29l-.74.36c-.99.48-1.98.96-2.98,1.44-.98.53-1.91,1.14-2.88,1.72-.47.3-.98.56-1.43.9l-1.36,1.02c-1.88,1.29-3.52,2.9-5.24,4.45-.78.86-1.56,1.72-2.35,2.59l-.59.65-.53.7-1.06,1.41-1.06,1.42-.93,1.52-.93,1.53-.47.77c-.14.26-.26.54-.39.81-.52,1.08-1.04,2.17-1.57,3.26-.42,1.14-.83,2.28-1.25,3.42-1.51,4.63-2.32,9.56-2.38,14.57.07,5.01.87,9.94,2.38,14.57.42,1.14.84,2.28,1.25,3.42.52,1.09,1.05,2.18,1.57,3.26l.39.81.47.77.93,1.53.93,1.52,1.06,1.42,1.06,1.42.53.7.59.65c.79.87,1.57,1.73,2.35,2.59,1.72,1.55,3.36,3.16,5.24,4.45l1.36,1.02c.45.34.95.6,1.43.9.97.57,1.9,1.19,2.88,1.72,1,.48,2,.96,2.98,1.44l.74.36c.25.11.51.19.77.29l1.53.56c2.01.84,4.12,1.25,6.16,1.81,1.03.21,2.08.33,3.11.5.52.08,1.03.16,1.54.24.51.07,1.03.06,1.54.1,1.03.05,2.05.11,3.06.16,1.01.02,2.02-.08,3.01-.12,2-.01,3.93-.41,5.84-.68.96-.1,1.87-.42,2.8-.63.91-.25,1.84-.44,2.72-.73.88-.32,1.74-.64,2.6-.95.43-.16.86-.31,1.28-.47.41-.19.82-.39,1.22-.58.81-.39,1.61-.77,2.4-1.15.8-.36,1.51-.88,2.25-1.3.73-.45,1.47-.87,2.17-1.33.67-.5,1.34-1,2-1.49,5.24-3.97,9.09-8.65,11.76-13.12,2.65-4.49,4.32-8.73,5.14-12.32.21-.9.51-1.72.6-2.53.13-.81.25-1.56.36-2.26.1-.7.23-1.34.29-1.94.03-.6.07-1.14.09-1.62.06-.96.11-1.69.14-2.2.03-.5.06-.75.06-.75,0,0,0,.25-.01.75-.02.51-.05,1.25-.09,2.21-.02.49-.04,1.03-.07,1.63-.05.6-.17,1.24-.27,1.95-.1.7-.22,1.46-.33,2.27-.09.82-.38,1.65-.58,2.55-.79,3.61-2.44,7.88-5.08,12.42-2.66,4.52-6.52,9.25-11.79,13.27-.66.5-1.33,1-2.01,1.51-.71.47-1.45.89-2.19,1.35-.75.43-1.46.95-2.27,1.32-.8.39-1.6.78-2.42,1.17-.41.19-.82.39-1.23.59-.43.16-.86.32-1.29.48-.87.32-1.74.64-2.62.96-.89.3-1.82.49-2.75.74-.93.21-1.85.54-2.82.65-1.93.28-3.88.68-5.9.7-1.01.04-2.02.14-3.04.12-1.02-.05-2.05-.1-3.09-.15-.52-.03-1.04-.03-1.56-.1-.52-.08-1.04-.16-1.56-.24-1.04-.17-2.1-.29-3.14-.5-2.06-.56-4.2-.97-6.23-1.82l-1.55-.57c-.26-.1-.52-.18-.78-.29l-.75-.36c-1-.48-2.01-.96-3.02-1.45-.99-.53-1.93-1.15-2.91-1.73-.48-.31-.99-.57-1.44-.91l-1.38-1.03c-1.9-1.3-3.56-2.93-5.3-4.5-.79-.87-1.58-1.74-2.38-2.61l-.6-.66-.54-.71-1.07-1.43-1.07-1.44-.94-1.54-.94-1.55-.47-.78-.4-.82c-.53-1.09-1.06-2.19-1.59-3.29-.42-1.15-.84-2.3-1.27-3.46-1.52-4.69-2.34-9.67-2.41-14.73.07-5.06.89-10.04,2.41-14.73.42-1.16.85-2.31,1.27-3.46.53-1.1,1.06-2.2,1.59-3.29.13-.27.26-.55.4-.82l.47-.78.94-1.55.94-1.54,1.07-1.44,1.07-1.43.54-.71.6-.66c.8-.87,1.59-1.74,2.38-2.61,1.74-1.57,3.4-3.19,5.3-4.49l1.38-1.03c.46-.34.97-.6,1.44-.91.98-.58,1.92-1.2,2.91-1.73,1.01-.49,2.02-.97,3.02-1.45l.75-.36c.26-.11.52-.19.78-.29l1.55-.57c2.03-.84,4.16-1.26,6.23-1.81,1.04-.21,2.1-.33,3.14-.5.52-.08,1.04-.16,1.56-.24.52-.07,1.04-.06,1.56-.1,1.04-.05,2.07-.1,3.09-.15,1.02-.01,2.03.09,3.04.12,2.02.02,3.97.42,5.9.7.97.1,1.89.43,2.82.65.92.25,1.85.45,2.75.74.88.32,1.76.65,2.62.96.43.16.86.32,1.29.48.41.2.82.39,1.23.59.81.39,1.62.78,2.42,1.17.81.37,1.52.89,2.27,1.32.74.46,1.48.88,2.19,1.35.68.51,1.35,1.01,2.01,1.51,5.27,4.02,9.13,8.75,11.79,13.27,2.64,4.54,4.29,8.81,5.08,12.42.2.9.5,1.73.58,2.55.12.81.23,1.57.33,2.27.1.7.21,1.35.27,1.95.03.6.05,1.14.07,1.63.04.96.07,1.7.09,2.21.02.5.01.75.01.75Z" style="fill: #25201b; stroke-width: 0px;"/>
    </g>
    <g style="opacity: .3;">
      <polygon points="197.87 102.14 187.2 91.55 197.79 80.88 191.66 74.79 181.07 85.47 170.4 74.88 164.31 81.01 174.98 91.6 164.39 102.27 170.52 108.35 181.11 97.68 191.78 108.27 197.87 102.14" style="fill: #000; stroke-width: 0px;"/>
    </g>
  </g>
  <g id="Character">
    <g>
      <g>
        <rect x="130.67" y="158.22" width="230.42" height="98" rx="49" ry="49" style="fill: #e8e2dc; stroke-width: 0px;"/>
        <path d="M312.09,256.22s.5-.04,1.48-.1c.49-.03,1.1-.06,1.82-.1.72-.06,1.57-.03,2.5-.22.94-.15,1.99-.31,3.15-.49.29-.05.59-.09.89-.14.3-.08.6-.16.91-.24.62-.16,1.27-.33,1.94-.51.67-.19,1.38-.33,2.09-.57.7-.26,1.43-.53,2.18-.81.75-.29,1.54-.54,2.32-.88.77-.37,1.56-.75,2.37-1.15,1.67-.72,3.25-1.8,4.97-2.82.88-.48,1.65-1.18,2.51-1.78.42-.32.85-.63,1.28-.96l.65-.49.61-.55c.81-.74,1.64-1.5,2.49-2.27.84-.78,1.57-1.7,2.39-2.56.4-.44.81-.88,1.21-1.34.36-.49.73-.98,1.1-1.48.37-.5.74-1,1.12-1.5l.56-.76.5-.82c2.84-4.27,5.05-9.39,6.4-15.04,1.34-5.65,1.74-11.88.84-18.27-.89-6.38-3.15-12.9-6.87-18.88-3.71-5.97-8.87-11.44-15.32-15.44-.81-.49-1.62-.99-2.44-1.48-.82-.49-1.71-.85-2.57-1.29-.88-.39-1.72-.89-2.64-1.2-.91-.33-1.83-.67-2.75-1-.46-.16-.91-.36-1.39-.48l-1.43-.37c-.96-.25-1.92-.49-2.88-.74-.98-.18-1.97-.31-2.96-.47-.99-.13-1.98-.35-2.99-.36-4.02-.29-8.15-.18-12.32-.2-4.17,0-8.4,0-12.68,0-34.25,0-71.91.01-111.43.02-4.92.09-9.78.8-14.45,2.18-4.62,1.51-8.99,3.62-12.98,6.27-3.94,2.73-7.43,6.01-10.45,9.63-2.97,3.67-5.31,7.76-7.16,12-.79,2.18-1.67,4.32-2.15,6.57-.67,2.2-.9,4.49-1.27,6.73-.13,1.13-.14,2.27-.21,3.4l-.09,1.69c-.03.56.04,1.13.06,1.69.06,1.13.11,2.25.17,3.37.13,1.11.33,2.21.49,3.32l.25,1.65.41,1.61c.28,1.07.56,2.14.83,3.21.38,1.04.76,2.07,1.13,3.1.2.51.35,1.04.59,1.53l.71,1.48c1.76,4,4.28,7.56,6.96,10.86.72.79,1.43,1.57,2.14,2.36l.53.59.59.53,1.17,1.06c1.5,1.48,3.22,2.68,4.88,3.93.41.33.84.6,1.29.86l1.32.81,1.32.8.66.4.69.33c1.85.88,3.65,1.84,5.58,2.46.95.33,1.88.73,2.84,1,.97.25,1.94.5,2.9.75l1.44.37,1.47.22c.98.15,1.95.3,2.92.45.97.13,1.95.12,2.92.19.97.04,1.93.12,2.9.13,1.94,0,3.86,0,5.76,0,15.23.01,29.42.02,42.37.03,25.9.03,46.86.06,61.36.08,7.24.02,12.86.04,16.68.05,1.9.01,3.35.02,4.34.03.98,0,1.48.03,1.48.03,0,0-.5.02-1.48.03-.99,0-2.44.01-4.34.03-3.82.01-9.44.03-16.68.05-14.5.02-35.46.05-61.36.08-12.95,0-27.14.02-42.37.03-1.9,0-3.82,0-5.76,0-.97,0-1.95-.08-2.92-.12-.98-.07-1.97-.06-2.95-.19-.98-.15-1.96-.3-2.94-.45l-1.48-.23-1.46-.37c-.97-.25-1.95-.5-2.93-.75-.97-.27-1.91-.67-2.87-1.01-1.95-.62-3.77-1.59-5.63-2.47l-.7-.34-.67-.4-1.33-.81-1.34-.81c-.45-.26-.89-.54-1.3-.87-1.68-1.26-3.41-2.47-4.93-3.96l-1.18-1.07-.59-.54-.54-.59c-.72-.79-1.44-1.58-2.16-2.38-2.71-3.32-5.25-6.92-7.04-10.96l-.72-1.49c-.24-.5-.39-1.03-.6-1.55-.38-1.04-.76-2.08-1.15-3.13-.28-1.08-.56-2.16-.85-3.24l-.41-1.63-.26-1.67c-.16-1.11-.36-2.23-.49-3.35-.06-1.13-.12-2.26-.17-3.4-.02-.57-.08-1.14-.06-1.71l.09-1.71c.07-1.14.08-2.29.21-3.43.37-2.27.6-4.58,1.28-6.8.48-2.28,1.37-4.44,2.17-6.64,1.87-4.29,4.23-8.42,7.24-12.13,3.05-3.66,6.58-6.97,10.56-9.73,4.04-2.67,8.45-4.81,13.12-6.34,4.71-1.39,9.63-2.11,14.6-2.2,39.53,0,77.18.01,111.43.02,4.28,0,8.51,0,12.68,0,4.17.03,8.28-.09,12.36.21,1.02,0,2.02.23,3.02.36,1,.16,2,.29,2.98.47.97.25,1.94.5,2.91.75l1.44.37c.48.13.93.33,1.4.49.93.34,1.85.68,2.77,1.02.93.32,1.78.82,2.66,1.22.87.44,1.77.8,2.6,1.3.82.5,1.64,1,2.46,1.5,6.51,4.05,11.7,9.57,15.43,15.59,3.75,6.03,6.01,12.61,6.9,19.04.89,6.44.48,12.72-.88,18.4-1.37,5.69-3.61,10.83-6.48,15.12l-.5.82-.57.77c-.38.51-.76,1.01-1.13,1.51-.37.5-.74.99-1.11,1.48-.4.46-.82.9-1.22,1.35-.82.87-1.56,1.79-2.41,2.57-.85.77-1.69,1.53-2.51,2.27l-.61.55-.65.49c-.43.32-.86.64-1.29.96-.86.61-1.64,1.3-2.53,1.78-1.73,1.03-3.33,2.1-5,2.82-.82.39-1.61.77-2.39,1.14-.78.34-1.58.59-2.33.88-.76.27-1.49.54-2.19.8-.71.23-1.43.38-2.1.56-.68.17-1.33.34-1.95.5-.31.08-.62.16-.92.23-.3.05-.6.09-.89.13-1.16.17-2.22.33-3.17.47-.94.18-1.79.14-2.51.19-.72.03-1.33.06-1.82.08-.98.04-1.48.05-1.48.05Z" style="fill: #25201b; stroke-width: 0px;"/>
      </g>
      <g>
        <path d="M278.27,210.68c-.34.26-8.54,5.07-8.54,5.07l-5.89,4.97,2.7-8.03s-.55-2.05-2.08.29c-1.53,2.34-6.92,11.33-6.92,11.33l-4.75,6.72,6.26,9.06s4.62-2.67,6.78-3.55c2.16-.89,6.89-1.65,8.27-1.31,1.38.34,8-.16,8.26-.94.26-.78-.74-1.49-2.53-1.35-1.79.14-7.89-.17-8.11-1.36-.22-1.19,11.14-2.83,11.99-3.54.86-.7,1.05-2.01-1.97-1.9-3.01.1-9.05,1.42-10.03.29-.98-1.14,1.74-1.84,2.07-2.1.34-.26,6.68-2.59,7.98-3.94.83-.86-.07-2.61-1.85-2.09-1.79.52-8.64,3.95-9.95,3.75-1.46-.22,1.81-2.99,2.3-3.32,3.31-2.23,6.8-3.9,6.85-6.14.03-1.29-.85-1.9-.85-1.9Z" style="fill: #ffbf9d; stroke-width: 0px;"/>
        <polygon points="259.05 240.09 242.29 247.74 240.88 233.97 252.79 231.03 259.05 240.09" style="fill: #ffbf9d; stroke-width: 0px;"/>
      </g>
      <path d="M241.16,250.96c-6.17,3.16-10.73,1.21-13.18-2.25-2.69-3.8-11.73-55.65-11.73-55.65l1.44-5.47s7.16,2.3,9.02,6.14c1.86,3.84,13.56,33.35,13.56,33.35l9.83-1.38c2.64,5.68,5.84,10.8,8.43,14.69l-17.38,10.57Z" style="fill: #7e998f; stroke-width: 0px;"/>
      <g style="opacity: .3;">
        <circle cx="304.6" cy="207.98" r="46.43" style="fill: #000; stroke-width: 0px;"/>
      </g>
      <g>
        <circle cx="310.68" cy="207.22" r="46.43" style="fill: #7e998f; stroke-width: 0px;"/>
        <path d="M357.11,207.22s-.03-.25-.06-.75c-.03-.51-.08-1.25-.14-2.2-.03-.49-.06-1.03-.09-1.62-.06-.59-.19-1.24-.29-1.94-.11-.7-.23-1.45-.36-2.26-.1-.81-.4-1.64-.6-2.53-.82-3.59-2.49-7.83-5.14-12.32-2.67-4.48-6.52-9.15-11.76-13.12-.66-.49-1.32-.99-2-1.49-.7-.46-1.44-.88-2.17-1.33-.75-.42-1.45-.94-2.25-1.3-.79-.38-1.59-.76-2.4-1.15-.4-.19-.81-.38-1.22-.58-.43-.15-.85-.31-1.28-.47-.86-.31-1.73-.63-2.6-.95-.88-.29-1.81-.48-2.72-.73-.92-.21-1.83-.53-2.8-.63-1.91-.27-3.84-.67-5.84-.68-1-.03-2-.13-3.01-.12-1.01.05-2.03.1-3.06.16-.51.04-1.03.03-1.54.1-.51.08-1.03.16-1.54.24-1.03.17-2.07.29-3.11.5-2.04.55-4.15.97-6.16,1.81l-1.53.56c-.25.1-.51.18-.77.29l-.74.36c-.99.48-1.98.96-2.98,1.44-.98.53-1.91,1.14-2.88,1.72-.47.3-.98.56-1.43.9l-1.36,1.02c-1.88,1.29-3.52,2.9-5.24,4.45-.78.86-1.56,1.72-2.35,2.59l-.59.65-.53.7-1.06,1.41-1.06,1.42-.93,1.52-.93,1.53-.47.77c-.14.26-.26.54-.39.81-.52,1.08-1.04,2.17-1.57,3.26-.42,1.14-.83,2.28-1.25,3.42-1.51,4.63-2.32,9.56-2.38,14.57.07,5.01.87,9.94,2.38,14.57.42,1.14.84,2.28,1.25,3.42.52,1.09,1.05,2.18,1.57,3.26l.39.81.47.77.93,1.53.93,1.52,1.06,1.42,1.06,1.42.53.7.59.65c.79.87,1.57,1.73,2.35,2.59,1.72,1.55,3.36,3.16,5.24,4.45l1.36,1.02c.45.34.95.6,1.43.9.97.57,1.9,1.19,2.88,1.72,1,.48,2,.96,2.98,1.44l.74.36c.25.11.51.19.77.29l1.53.56c2.01.84,4.12,1.25,6.16,1.81,1.03.21,2.08.33,3.11.5.52.08,1.03.16,1.54.24.51.07,1.03.06,1.54.1,1.03.05,2.05.11,3.06.16,1.01.02,2.02-.08,3.01-.12,2-.01,3.93-.41,5.84-.68.96-.1,1.87-.42,2.8-.63.91-.25,1.84-.44,2.72-.73.88-.32,1.74-.64,2.6-.95.43-.16.86-.31,1.28-.47.41-.19.82-.39,1.22-.58.81-.39,1.61-.77,2.4-1.15.8-.36,1.51-.88,2.25-1.3.73-.45,1.47-.87,2.17-1.33.67-.5,1.34-1,2-1.49,5.24-3.97,9.09-8.65,11.76-13.12,2.65-4.49,4.32-8.73,5.14-12.32.21-.9.51-1.72.6-2.53.13-.81.25-1.56.36-2.26.1-.7.23-1.34.29-1.94.03-.6.07-1.14.09-1.62.06-.96.11-1.69.14-2.2.03-.5.06-.75.06-.75,0,0,0,.25-.01.75-.02.51-.05,1.25-.09,2.21-.02.49-.04,1.03-.07,1.63-.05.6-.17,1.24-.27,1.95-.1.7-.22,1.46-.33,2.27-.09.82-.38,1.65-.58,2.55-.79,3.61-2.44,7.88-5.08,12.42-2.66,4.52-6.52,9.25-11.79,13.27-.66.5-1.33,1-2.01,1.51-.71.47-1.45.89-2.19,1.35-.75.43-1.46.95-2.27,1.32-.8.39-1.6.78-2.42,1.17-.41.19-.82.39-1.23.59-.43.16-.86.32-1.29.48-.87.32-1.74.64-2.62.96-.89.3-1.82.49-2.75.74-.93.21-1.85.54-2.82.65-1.93.28-3.88.68-5.9.7-1.01.04-2.02.14-3.04.12-1.02-.05-2.05-.1-3.09-.15-.52-.03-1.04-.03-1.56-.1-.52-.08-1.04-.16-1.56-.24-1.04-.17-2.1-.29-3.14-.5-2.06-.56-4.2-.97-6.23-1.82l-1.55-.57c-.26-.1-.52-.18-.78-.29l-.75-.36c-1-.48-2.01-.96-3.02-1.45-.99-.53-1.93-1.15-2.91-1.73-.48-.31-.99-.57-1.44-.91l-1.38-1.03c-1.9-1.3-3.56-2.93-5.3-4.5-.79-.87-1.58-1.74-2.38-2.61l-.6-.66-.54-.71-1.07-1.43-1.07-1.44-.94-1.54-.94-1.55-.47-.78-.4-.82c-.53-1.09-1.06-2.19-1.59-3.29-.42-1.15-.84-2.3-1.27-3.46-1.52-4.69-2.34-9.67-2.41-14.73.07-5.06.89-10.04,2.41-14.73.42-1.16.85-2.31,1.27-3.46.53-1.1,1.06-2.2,1.59-3.29.13-.27.26-.55.4-.82l.47-.78.94-1.55.94-1.53,1.07-1.44,1.07-1.43.54-.71.6-.66c.8-.87,1.59-1.74,2.38-2.61,1.74-1.57,3.4-3.19,5.3-4.49l1.38-1.03c.46-.34.97-.6,1.44-.91.98-.58,1.92-1.2,2.91-1.73,1.01-.49,2.02-.97,3.02-1.45l.75-.36c.26-.11.52-.19.78-.29l1.55-.57c2.03-.84,4.16-1.26,6.23-1.81,1.04-.21,2.1-.33,3.14-.5.52-.08,1.04-.16,1.56-.24.52-.07,1.04-.06,1.56-.1,1.04-.05,2.07-.1,3.09-.15,1.02-.01,2.03.09,3.04.12,2.02.02,3.97.42,5.9.7.97.1,1.89.43,2.82.65.92.25,1.85.45,2.75.74.88.32,1.76.65,2.62.96.43.16.86.32,1.29.48.41.2.82.39,1.23.59.81.39,1.62.78,2.42,1.17.81.37,1.52.89,2.27,1.32.74.46,1.48.88,2.19,1.35.68.51,1.35,1.01,2.01,1.51,5.27,4.02,9.13,8.75,11.79,13.27,2.64,4.54,4.29,8.81,5.08,12.42.2.9.5,1.73.58,2.55.12.81.23,1.57.33,2.27.1.7.21,1.35.27,1.95.03.6.05,1.14.07,1.63.04.96.07,1.7.09,2.21.02.5.01.75.01.75Z" style="fill: #25201b; stroke-width: 0px;"/>
      </g>
      <g>
        <g>
          <path d="M200.39,123.97c-2.45-1.56-3.04-5.16-1.71-7.75,1.33-2.58,4.15-4.15,7.01-4.61,4.15-.67,8.58.8,11.51,3.81,1.58,1.63,2.86,3.75,5.01,4.5,1.88.66,3.97.06,5.95.32,2.65.34,4.93,2.23,6.29,4.53s1.92,4.99,2.24,7.65c.29,2.44.48,5.11,2.17,6.89,1.65,1.74,4.26,2.1,6.31,3.34,3.86,2.32,5.11,8.08,2.56,11.79-.81,1.18-1.98,2.27-2.07,3.7-.09,1.31.76,2.47,1.16,3.72,1.02,3.22-1.62,7.04-4.99,7.24-1.7.1-3.52-.57-5.05.2-1.52.76-2.08,2.58-3.05,3.97-1.91,2.73-5.89,3.76-8.88,2.29-1.25-.61-2.43-1.63-3.82-1.53-1.39.09-2.48,1.28-3.85,1.54-1.79.35-3.49-.97-4.55-2.45-1.06-1.48-1.8-3.22-3.16-4.43-1.78-1.58-4.29-1.98-6.54-2.75-4.98-1.71-9.13-5.66-11.1-10.54-1.97-4.88-1.71-10.61.69-15.3" style="fill: #25201b; stroke-width: 0px;"/>
          <path d="M226.31,156.01c.51-.55,1.24-1.06,1.99-1.31h-.15c.14-.05.28-.06.43-.08.55-.13,1.09-.1,1.55.19h-.01c.85.31,1.6.94,2.01,1.75.71,1.42.45,3.22-.51,4.49-.84,1.1-2.27,1.82-3.61,1.49-1.23-.3-2.14-1.42-2.49-2.63-.38-1.33-.14-2.88.81-3.9Z" style="fill: #455a64; stroke-width: 0px;"/>
          <path d="M193.98,182.08l-2.6-47.8c-.1-2.1,1.42-3.94,3.51-4.22l21.37-6.05c6.87-.92,11.7,7.43,12.33,14.34.7,7.67,1.26,17.07.51,22.83-1.5,11.58-10.99,13.34-10.99,13.34,0-.04-.07,11.8,0,15.99l2.63,12.99-26.76-21.42Z" style="fill: #ffbf9d; stroke-width: 0px;"/>
          <g>
            <g>
              <path d="M225.61,148.42c.05.78-.57,1.47-1.38,1.53-.81.07-1.51-.51-1.56-1.29-.05-.78.57-1.47,1.38-1.53.81-.07,1.51.51,1.56,1.29Z" style="fill: #25201b; stroke-width: 0px;"/>
              <path d="M226.69,143.29c-.18.2-1.32-.6-2.91-.55-1.59.03-2.74.88-2.91.69-.09-.08.09-.44.59-.82.49-.38,1.33-.77,2.33-.79.99-.02,1.84.32,2.33.68.5.36.68.71.59.79Z" style="fill: #25201b; stroke-width: 0px;"/>
            </g>
            <g>
              <path d="M211.89,148.42c.05.78-.57,1.47-1.38,1.53-.81.07-1.51-.51-1.56-1.29s.57-1.47,1.38-1.53c.81-.07,1.51.51,1.56,1.29Z" style="fill: #25201b; stroke-width: 0px;"/>
              <path d="M211.05,144.03c-.18.2-1.32-.6-2.91-.55-1.59.03-2.74.88-2.91.69-.09-.08.09-.44.59-.82.49-.38,1.33-.77,2.33-.79.99-.02,1.84.32,2.33.68.5.36.68.71.59.79Z" style="fill: #25201b; stroke-width: 0px;"/>
            </g>
            <path d="M217.16,155.67c0-.09.97-.29,2.57-.54.41-.05.79-.15.85-.42.09-.3-.09-.73-.31-1.2-.41-.97-.84-1.99-1.29-3.06-1.79-4.36-3.11-7.95-2.93-8.02.18-.07,1.77,3.4,3.57,7.76.43,1.07.85,2.1,1.24,3.08.17.46.45.97.26,1.59-.1.31-.39.54-.65.61-.26.09-.49.1-.69.12-1.61.13-2.61.17-2.62.08Z" style="fill: #25201b; stroke-width: 0px;"/>
            <path d="M218.1,174.51s-7.05.69-14.87-3.72c0,0,3.34,8.58,14.85,7.17l.02-3.45Z" style="fill: #ff9a6c; stroke-width: 0px;"/>
            <path d="M217.04,159.46c-.8-1.07-2.08-1.7-3.27-1.62-.83.06-1.63.46-2.06,1.2-.43.74-.43,1.82.11,2.57.61.85,1.72,1.1,2.61.86.89-.24,1.62-.88,2.3-1.52.19-.18.38-.36.49-.61.1-.25.1-.58-.09-.81" style="fill: #ff9a6c; stroke-width: 0px;"/>
            <path d="M212.51,156.91c.26-.02.31,1.71,1.82,2.89,1.51,1.19,3.35.94,3.37,1.18.03.11-.4.35-1.18.39-.76.05-1.88-.17-2.81-.89-.92-.73-1.34-1.72-1.42-2.43-.09-.72.09-1.15.21-1.15Z" style="fill: #25201b; stroke-width: 0px;"/>
          </g>
          <path d="M211.57,137.46c-.14.44-1.74.28-3.6.56-1.87.24-3.36.83-3.62.45-.12-.18.14-.6.73-1.03.59-.44,1.54-.86,2.66-1.02,1.12-.15,2.15,0,2.84.25.69.26,1.05.59.99.79Z" style="fill: #25201b; stroke-width: 0px;"/>
          <path d="M225.97,137.83c-.27.37-1.38.03-2.7.05-1.32-.03-2.43.31-2.7-.06-.12-.18.05-.55.53-.9.47-.35,1.27-.66,2.17-.65.91,0,1.7.31,2.17.67.48.36.64.73.52.91Z" style="fill: #25201b; stroke-width: 0px;"/>
          <path d="M236.36,135.92c-.54-1.73-1.53-3.38-3.04-4.36-.83-.54-1.8-.87-2.57-1.49-1.67-1.35-2.05-3.69-3.08-5.57-1.33-2.42-3.89-4.12-6.64-4.4-2.29-.23-4.64.45-6.87-.11-1.65-.42-3.08-1.48-4.75-1.8-3.25-.62-6.27,1.71-8.62,4.04,0,2.33,1.84,3.88,3.63,5.37,1.78,1.49,4.24,2.14,6.53,1.72,1.77-.32,3.72-1.22,5.26-.28,1.62.99,1.68,3.43,3.12,4.67,2.05,1.78,5.3.11,7.9.88,2.01.6,3.26,2.51,4.6,4.13,1.33,1.61,3.33,3.15,5.34,2.55-.13-1.8-.26-3.63-.8-5.36Z" style="fill: #25201b; stroke-width: 0px;"/>
          <path d="M211.97,126.09c-1.46-.42-4.44-1.36-5.22-2.62-1.7-2.74-4.69-4.62-7.74-4.45-3.06.17-5.99,2.58-6.61,5.81-3.7.03-7.31,2.35-9.08,5.85-.22.44-.41.89-.58,1.36-1.15,2.03-1.37,4.57-.54,6.75.5,1.32,1.36,2.78.69,4.01-.69,1.26-2.43,1.3-3.78,1.76-2.36.81-3.89,3.52-3.36,5.96.19.88.61,1.75.42,2.63-.19.91-.97,1.56-1.57,2.27-1.49,1.77-1.95,4.35-1.17,6.53.78,2.18,2.78,3.87,5.06,4.28,1.04.19,2.16.14,3.06.7,1.03.63,1.48,1.87,2.2,2.84,1.39,1.85,4.01,2.67,6.21,1.94.45-.15.86-.37,1.25-.63.69.96,1.78,1.61,3.65,1.61l-.43-24.32c.23.51.68.97,1.47,1.15,3.9.88,4.47-7.16,3.6-9.34,1.41-1.25,2.84-2.52,3.92-4.12,1.08-1.59,2.03-5.94,1.8-7.89,1.41.08,7.4-1.9,6.76-2.08Z" style="fill: #25201b; stroke-width: 0px;"/>
          <path d="M195.5,150.34c-.12-2.47-3.15-3-5.29-1.76-1.18.68-2.08,2.05-1.97,4.67.29,7,7.25,5.26,7.26,5.06,0-.12.14-5.08,0-7.97Z" style="fill: #ffbf9d; stroke-width: 0px;"/>
          <path d="M193.25,155.75s-.12.09-.32.19c-.2.1-.54.18-.91.06-.75-.24-1.42-1.39-1.51-2.65-.04-.64.06-1.25.27-1.76.19-.52.51-.89.88-.97.37-.1.64.11.73.3.1.19.06.33.1.34.02.02.15-.12.08-.41-.03-.14-.12-.3-.29-.43-.17-.13-.42-.19-.68-.15-.54.06-1,.58-1.23,1.14-.25.57-.39,1.25-.34,1.97.1,1.41.88,2.7,1.9,2.95.5.11.9-.06,1.11-.23.21-.18.24-.34.22-.35Z" style="fill: #ff9a6c; stroke-width: 0px;"/>
          <path d="M202.34,124.2c.05.07-.71.2-1.4,1.17-.69.95-.95,2.78-.51,4.84l.04.18-.17.04c-1.73.43-3.64,1.81-4.51,3.97-.21.53-.34,1.13-.36,1.71,0,.59.1,1.21.22,1.85.11.64.24,1.29.27,1.99.05.68-.14,1.48-.55,2.06-.87,1.32-2.27,1.98-3.47,2.61-1.24.61-2.38,1.24-3.25,2.13-1.77,1.74-2.56,4-2.61,5.86-.07,1.89.46,3.38.92,4.32.46.96.86,1.41.82,1.44-.01.01-.12-.1-.3-.31-.17-.22-.43-.56-.69-1.04-.52-.94-1.12-2.46-1.1-4.42,0-1.94.8-4.32,2.64-6.18.91-.94,2.13-1.62,3.35-2.24,1.2-.63,2.52-1.28,3.28-2.45.78-1.06.43-2.45.22-3.7-.11-.64-.22-1.28-.22-1.94.03-.67.18-1.29.41-1.87.96-2.32,3-3.74,4.85-4.16l-.13.22c-.41-2.16-.09-4.05.71-5.04.38-.49.8-.76,1.09-.89.3-.12.46-.17.47-.16Z" style="fill: #455a64; stroke-width: 0px;"/>
          <path d="M190.64,158.37c.51-.55,1.24-1.06,1.99-1.31h-.15c.14-.05.28-.06.43-.08.55-.13,1.09-.1,1.55.19h-.01c.85.31,1.6.94,2.01,1.75.71,1.42.45,3.22-.51,4.49-.84,1.1-2.27,1.82-3.61,1.49-1.23-.3-2.14-1.42-2.49-2.63-.38-1.33-.14-2.88.81-3.9Z" style="fill: #455a64; stroke-width: 0px;"/>
        </g>
        <g>
          <path d="M205.41,443.39l22.27,1.62c-1.95,5.07-2.78,9.81-2.78,9.81-6.24,2.13-14.13,1.57-20.81-.92l1.33-10.5Z" style="fill: #ffbf9d; stroke-width: 0px;"/>
          <g>
            <path d="M225.33,451.56l.02,1.33s22.58,8.76,22.87,13.02l-44.63.31.5-14.86c6.66,3.03,13.6,3.33,21.23.2Z" style="fill: #7e998f; stroke-width: 0px;"/>
            <path d="M208.65,456.07c-.86.24-1.45,1.22-1.25,2.09.21.87,1.19,1.48,2.06,1.25.87-.23,1.61-1.38,1.31-2.22-.3-.84-1.5-1.49-2.29-1.07" style="fill: #fff; stroke-width: 0px;"/>
            <path d="M203.59,466.21l.12-3.57,42.73,1.01s1.99.85,1.78,2.25l-44.63.31Z" style="fill: #25201b; stroke-width: 0px;"/>
            <path d="M225.5,453.01c0,.22-1.09.32-2.16,1.03-1.09.68-1.63,1.63-1.83,1.54-.2-.04.11-1.35,1.42-2.18,1.3-.85,2.62-.6,2.57-.4Z" style="fill: #25201b; stroke-width: 0px;"/>
            <path d="M230.2,454.91c.05.21-.89.59-1.62,1.52-.76.9-.94,1.9-1.16,1.9-.2.04-.36-1.24.57-2.37.92-1.14,2.21-1.24,2.21-1.04Z" style="fill: #25201b; stroke-width: 0px;"/>
            <path d="M232.9,460.5c-.2.05-.51-1.04.04-2.24.54-1.2,1.57-1.68,1.66-1.5.12.18-.53.82-.97,1.81-.46.98-.52,1.9-.73,1.92Z" style="fill: #25201b; stroke-width: 0px;"/>
          </g>
        </g>
        <g>
          <path d="M129.1,429.48c-1.39,5.81-6.83,23.34-6.83,23.34l19.82,1.98c.48-2.92,8.25-15.04,9.5-18.73l-22.49-6.59Z" style="fill: #ffbf9d; stroke-width: 0px;"/>
          <g>
            <path d="M143.47,452.04l-.23,1.31s20.49,12.91,19.97,17.15l-43.87-8.23,4.14-13.4c3.34,3.23,11.92,4.78,20,3.18Z" style="fill: #7e998f; stroke-width: 0px;"/>
            <path d="M126.24,453.28c-.89.07-1.66.92-1.62,1.81.04.9.89,1.68,1.78,1.62.89-.06,1.84-1.04,1.71-1.93-.14-.89-1.19-1.75-2.04-1.48" style="fill: #fff; stroke-width: 0px;"/>
            <path d="M119.34,462.27l.8-3.48,41.75,9.16s1.79,1.22,1.31,2.55l-43.87-8.23Z" style="fill: #25201b; stroke-width: 0px;"/>
            <path d="M143.37,453.5c-.05.21-1.14.11-2.32.6-1.2.46-1.91,1.29-2.09,1.16-.19-.08.37-1.3,1.81-1.87,1.44-.58,2.68-.08,2.6.1Z" style="fill: #25201b; stroke-width: 0px;"/>
            <path d="M147.61,456.26c0,.22-.99.41-1.88,1.18-.92.74-1.29,1.69-1.5,1.64-.21,0-.12-1.29,1.01-2.22,1.12-.95,2.4-.8,2.37-.59Z" style="fill: #25201b; stroke-width: 0px;"/>
            <path d="M149.19,462.26c-.2,0-.3-1.12.47-2.19.76-1.08,1.86-1.35,1.92-1.15.09.2-.68.71-1.3,1.59-.64.87-.87,1.76-1.09,1.75Z" style="fill: #25201b; stroke-width: 0px;"/>
          </g>
        </g>
        <path d="M194.77,196.93c.47.85,17.25,38.64,17.25,38.64l31.7-11.22,8.32,14.68s-35.88,23.59-45.37,22.95c-9.49-.64-11.11-2.41-14.62-9.85-4.3-9.13-17.34-42.69-17.34-42.69,0,0-4.11-18.54,8.38-19.8,7.8-.79,11.68,7.28,11.68,7.28Z" style="fill: #7e998f; stroke-width: 0px;"/>
        <g>
          <path d="M221.4,275.05s32.67,86.05,31,97.06c-1.67,11.02-21.58,76.75-21.58,76.75l-28.68-1.94,15.34-76.38-25.84-53,4.45-53.74,26.97,2.78-1.66,8.48Z" style="fill: #25201b; stroke-width: 0px;"/>
          <path d="M173.87,259.5l-2.28,5.99c-4.31,5.72-11.41,16.54-13.59,23.13-3.09,9.32-1.37,38.69-1.37,38.69l-3.05,43.24s-8.43,16.82-12.95,26.27c-3.91,8.17-16.36,44.7-16.36,44.7l24.78,7.35s34.55-59.63,37.64-67.35c3.09-7.72,9.8-69.76,9.8-69.76l11.21-46.75-33.81-5.5Z" style="fill: #25201b; stroke-width: 0px;"/>
          <path d="M165.88,276.49c.03-.11,1.52.31,3.98.49,1.23.1,2.7.08,4.32-.06,1.62-.18,3.38-.51,5.17-1.06,1.79-.58,3.42-1.32,4.85-2.09,1.41-.81,2.63-1.63,3.58-2.42,1.91-1.56,2.89-2.75,2.98-2.68.03.03-.2.34-.64.88-.22.28-.49.6-.85.95-.35.35-.74.77-1.22,1.17-.93.84-2.15,1.72-3.58,2.57-1.44.82-3.11,1.59-4.94,2.18-1.84.57-3.64.89-5.3,1.04-1.66.12-3.16.1-4.4-.06-.63-.04-1.18-.17-1.67-.25-.49-.08-.91-.19-1.24-.29-.67-.19-1.04-.32-1.03-.35Z" style="fill: #455a64; stroke-width: 0px;"/>
          <path d="M217.92,372.69c-.09-.11,2.33-2.01,5.8-3.46,3.46-1.47,6.51-1.88,6.52-1.74.04.17-2.9.83-6.3,2.27-3.4,1.42-5.92,3.08-6.02,2.93Z" style="fill: #455a64; stroke-width: 0px;"/>
          <path d="M154.16,370.36c.04-.15,1.78.19,3.72,1.2,1.94.99,3.23,2.22,3.13,2.33-.1.13-1.52-.86-3.39-1.82-1.87-.97-3.5-1.55-3.45-1.71Z" style="fill: #455a64; stroke-width: 0px;"/>
          <path d="M216.56,268.2s-.05.25-.18.72c-.16.51-.36,1.19-.62,2.04-.58,1.82-1.39,4.35-2.39,7.46-1.03,3.16-2.25,6.9-3.6,11.04-.35,1.04-.66,2.1-1.08,3.19-.43,1.08-.98,2.14-1.64,3.14-.66,1-1.46,1.97-2.35,2.81-.87.87-1.75,1.75-2.64,2.65-1.56,1.56-3.09,3.09-4.55,4.56l.07-.15c-1.05,8.46-1.97,15.91-2.63,21.3-.35,2.63-.63,4.75-.83,6.28-.1.7-.18,1.25-.25,1.69-.06.38-.1.58-.12.58s0-.2.02-.59c.04-.43.09-1,.16-1.7.16-1.53.39-3.66.67-6.3.62-5.4,1.48-12.85,2.46-21.32v-.09s.07-.06.07-.06c1.46-1.47,2.99-3,4.54-4.56.89-.89,1.77-1.77,2.64-2.64.9-.85,1.65-1.75,2.3-2.74.65-.98,1.18-2,1.6-3.05.41-1.04.73-2.13,1.09-3.16,1.39-4.13,2.65-7.85,3.71-11,1.06-3.09,1.92-5.6,2.54-7.4.3-.83.54-1.5.72-2,.17-.46.27-.69.28-.69Z" style="fill: #455a64; stroke-width: 0px;"/>
        </g>
        <g>
          <g style="opacity: .3;">
            <path d="M278.3,230.25c-.26-.41-.8-.53-1.29-.61l-7.63-1.3c.44-1.25,1.76-1.97,3.05-2.31,1.28-.34,2.65-.43,3.85-.98,1.21-.56,2.26-1.79,2.02-3.1-3.62.6-7.39.29-10.87-.88,2.73-1.03,5.46-2.06,8.19-3.09.6-.23,1.21-.46,1.69-.88.48-.42.81-1.08.66-1.7-.28-1.17-1.86-1.4-3.04-1.15-1.49.31-2.89.97-4.37,1.37-1.47.4-3.12.51-4.46-.22,1.7-.74,3.41-1.49,4.86-2.65,1.44-1.16,2.61-2.79,2.8-4.63-5.13,1.73-9.34,5.42-13.16,9.26-3.82,3.84-7.46,7.95-12.03,10.85l2.87,9.82c5.01-2.45,10.2-4.95,15.77-5.25,3.18-.17,6.45.38,9.52-.46.49-.14.99-.32,1.34-.68s.51-.96.23-1.39Z" style="fill: #000; stroke-width: 0px;"/>
          </g>
          <g>
            <path d="M274.16,204.65c-.34.26-8.54,5.07-8.54,5.07l-5.89,4.97,2.7-8.03s-.55-2.05-2.08.29c-1.53,2.34-6.92,11.33-6.92,11.33l-4.75,6.72,6.26,9.06s4.62-2.66,6.78-3.55c2.16-.89,6.89-1.65,8.27-1.31,1.38.34,8-.16,8.26-.94.26-.78-.74-1.49-2.53-1.35-1.79.14-7.89-.17-8.11-1.36-.22-1.19,11.14-2.83,11.99-3.54.86-.7,1.05-2.01-1.97-1.9-3.01.1-9.05,1.42-10.03.29-.98-1.14,1.74-1.84,2.07-2.1.34-.26,6.68-2.59,7.98-3.94.83-.86-.07-2.61-1.86-2.09-1.79.52-8.64,3.95-9.95,3.75-1.46-.22,1.81-2.99,2.3-3.32,3.31-2.23,6.8-3.9,6.85-6.14.03-1.29-.85-1.9-.85-1.9Z" style="fill: #ffbf9d; stroke-width: 0px;"/>
            <polygon points="254.94 234.06 238.18 241.71 236.77 227.94 248.68 225 254.94 234.06" style="fill: #ffbf9d; stroke-width: 0px;"/>
          </g>
          <g>
            <g>
              <path d="M193.38,175.78c.71.36,19.67,9.66,19.67,9.66l6.08,8.34s8.56,39.35,7.49,45.6c-1.07,6.25-7.86,27.64-8.58,27.46l-44.17-7.34-.02-.1c-.58-2.84-.16-5.79,1.18-8.36l4.03-7.74-7.46-35.72s-1.43-10.41,3.32-15.34c4.94-5.13,15.97-11.72,15.97-11.72l2.49-4.74Z" style="fill: #7e998f; stroke-width: 0px;"/>
              <path d="M217.24,192.94s-.49-.51-1.27-1.48c-.84-1.06-1.93-2.44-3.23-4.09l.37-.07c-.36,1.37-.77,2.88-1.2,4.49l-.07.26-.26-.1c-1.7-.66-3.54-1.44-5.42-2.32-4.44-2.07-8.27-4.32-10.94-6.09-1.34-.88-2.4-1.63-3.12-2.16-.72-.54-1.1-.85-1.08-.88.02-.03.45.23,1.2.71.76.48,1.84,1.19,3.2,2.02,2.72,1.68,6.55,3.86,10.97,5.93,1.87.87,3.7,1.66,5.38,2.33l-.33.16c.46-1.61.88-3.11,1.27-4.47l.12-.41.25.34c1.24,1.69,2.28,3.11,3.08,4.2.73,1.01,1.12,1.59,1.08,1.62Z" style="fill: #25201b; stroke-width: 0px;"/>
            </g>
            <path d="M218.34,193.93l.06,5.72-4.36,66.93h9.02s12.28-28.86,11.92-37.97c-.26-6.62-5.37-18.91-7.85-26.56-1.24-3.83-3.61-8.68-3.61-8.68-1.91-1.7-2.29-2.03-2.29-2.42l.81-3.68-3.98-3.67.03,6.89.24,3.43Z" style="fill: #7e998f; stroke-width: 0px;"/>
            <path d="M220.55,264.65s.08-.25.27-.71c.22-.5.51-1.16.87-1.97.4-.85.84-1.9,1.34-3.14.25-.62.53-1.27.81-1.97.26-.71.53-1.46.81-2.24,2.33-6.24,4.54-15.4,3.86-25.6-.36-5.09-1.35-9.86-2.44-14.13-1.2-4.25-2.5-8.02-3.74-11.13-.63-1.54-1.19-2.94-1.7-4.19-.54-1.2-1.01-2.24-1.4-3.11-.36-.81-.65-1.47-.87-1.98-.19-.45-.29-.7-.27-.71s.15.22.37.66c.25.49.57,1.14.97,1.93.42.86.92,1.89,1.5,3.08.53,1.24,1.12,2.63,1.78,4.17,1.29,3.1,2.64,6.87,3.87,11.14,1.13,4.3,2.15,9.1,2.51,14.24.68,10.3-1.61,19.56-4.05,25.78-.3.78-.58,1.53-.86,2.24-.3.69-.59,1.34-.86,1.96-.53,1.22-1,2.27-1.43,3.1-.4.8-.72,1.44-.97,1.93-.23.44-.36.66-.37.66Z" style="fill: #25201b; stroke-width: 0px;"/>
            <path d="M225.71,198.25s.27.35.66,1.03c.4.68.92,1.69,1.53,2.95,1.21,2.54,2.69,6.14,3.89,10.26,1.22,4.11,1.92,7.95,2.2,10.75.13,1.4.17,2.54.15,3.33-.03.79-.06,1.22-.1,1.22-.1,0-.08-1.73-.46-4.5-.38-2.76-1.13-6.55-2.34-10.64-1.19-4.09-2.6-7.69-3.71-10.25-1.12-2.56-1.91-4.1-1.83-4.15Z" style="fill: #25201b; stroke-width: 0px;"/>
          </g>
          <g>
            <path d="M194.77,196.93c.47.85,17.25,38.64,17.25,38.64l31.7-11.22,8.32,14.68s-35.88,23.59-45.37,22.95c-9.49-.64-11.11-2.41-14.62-9.85-3.2-6.79-12.16-25.59-16.53-34.76-2.2-4.62-3.14-9.76-2.53-14.84.7-5.81,3.08-12.21,10.1-12.89,7.8-.75,11.68,7.28,11.68,7.28Z" style="fill: #7e998f; stroke-width: 0px;"/>
            <path d="M192.53,193.78c-.07.08-.88-.88-2.61-1.78-1.71-.91-4.41-1.53-7.37-1.45-2.94.24-5.4,1.64-6.91,2.82-1.54,1.2-2.14,2.3-2.22,2.24-.03-.01.09-.3.4-.77.3-.47.83-1.09,1.59-1.75,1.5-1.29,3.99-2.8,7.11-3.06,3.07-.09,5.84.61,7.58,1.64.87.51,1.5,1.03,1.88,1.43.39.4.57.65.55.67Z" style="fill: #25201b; stroke-width: 0px;"/>
            <path d="M204.4,246.38c-.06-.02.13-.77.61-1.92.48-1.15,1.26-2.69,2.34-4.25,1.08-1.56,2.24-2.85,3.15-3.7.9-.85,1.53-1.3,1.58-1.25.11.12-2.18,2.16-4.29,5.24-2.14,3.07-3.23,5.93-3.38,5.87Z" style="fill: #25201b; stroke-width: 0px;"/>
            <path d="M175.52,217.38s.09.15.25.46c.16.33.39.78.68,1.37.6,1.23,1.46,3,2.57,5.28,2.22,4.62,5.41,11.27,9.35,19.47.98,2.06,2.02,4.21,3.09,6.46,1.1,2.23,2.09,4.64,3.63,6.8.77,1.07,1.73,2.03,2.91,2.69,1.18.66,2.53,1.05,3.92,1.3,1.39.25,2.83.41,4.29.51,1.44.14,2.88-.15,4.32-.55,2.88-.81,5.71-2.06,8.56-3.38,2.85-1.34,5.71-2.83,8.58-4.39,5.75-3.14,11.59-6.61,17.49-10.29,2.28-1.42,4.53-2.85,6.73-4.29l-.08.34c-2.85-5.03-5.63-9.94-8.31-14.68l.3.11c-11.61,4.09-22.33,7.87-31.71,11.18l-.19.07-.08-.18c-5.19-11.72-9.47-21.39-12.46-28.15-1.47-3.36-2.63-6-3.42-7.81-.38-.89-.68-1.57-.88-2.06-.2-.47-.28-.71-.28-.71,0,0,.12.23.34.68.22.48.53,1.15.94,2.03.82,1.81,2.01,4.42,3.53,7.76,3.03,6.74,7.37,16.39,12.64,28.09l-.26-.11c9.37-3.33,20.09-7.14,31.69-11.25l.2-.07.1.18c2.69,4.74,5.47,9.65,8.32,14.68l.12.21-.2.13c-2.21,1.44-4.46,2.87-6.74,4.29-5.91,3.68-11.76,7.15-17.53,10.29-2.89,1.57-5.75,3.06-8.62,4.4-2.87,1.32-5.71,2.58-8.65,3.4-1.45.4-2.98.71-4.48.55-1.47-.1-2.92-.27-4.34-.53-1.41-.26-2.81-.66-4.05-1.36-1.24-.7-2.25-1.72-3.04-2.83-1.57-2.23-2.55-4.65-3.64-6.88-1.06-2.25-2.08-4.41-3.06-6.47-3.88-8.24-7.02-14.91-9.2-19.54-1.07-2.3-1.9-4.09-2.48-5.33-.27-.6-.48-1.06-.63-1.39-.14-.31-.2-.48-.2-.48Z" style="fill: #25201b; stroke-width: 0px;"/>
          </g>
        </g>
      </g>
      <g style="opacity: .3;">
        <polygon points="311.7 221.34 294.95 209.36 299.13 203.52 310.36 211.55 325.22 193.1 330.82 197.61 311.7 221.34" style="fill: #000; stroke-width: 0px;"/>
      </g>
    </g>
  </g>
</svg>