<?xml version="1.0" encoding="UTF-8"?>
<svg id="Layer_1" data-name="Layer 1" xmlns="http://www.w3.org/2000/svg" version="1.1" viewBox="0 0 750 500">
  <defs>
    <style>
      .cls-1 {
        fill: #ff9a6c;
      }

      .cls-1, .cls-2, .cls-3, .cls-4, .cls-5, .cls-6, .cls-7, .cls-8, .cls-9, .cls-10, .cls-11, .cls-12, .cls-13, .cls-14, .cls-15, .cls-16 {
        stroke-width: 0px;
      }

      .cls-2 {
        fill: #000;
      }

      .cls-3 {
        fill: #e0e0e0;
      }

      .cls-4 {
        fill: #f4f0e9;
      }

      .cls-5 {
        fill: #4d5a64;
      }

      .cls-6 {
        fill: #960036;
      }

      .cls-7 {
        fill: #f5f5f5;
      }

      .cls-8 {
        fill: #fcedd7;
      }

      .cls-9 {
        fill: #eeeae3;
      }

      .cls-10 {
        fill: #282521;
      }

      .cls-11 {
        fill: #5c9c92;
      }

      .cls-17 {
        opacity: .3;
      }

      .cls-12 {
        fill: #fffbf4;
      }

      .cls-13 {
        fill: #ffbf9d;
      }

      .cls-14 {
        fill: #fff;
      }

      .cls-18 {
        display: none;
      }

      .cls-15 {
        fill: #e5e0da;
      }

      .cls-16 {
        fill: #faf0e3;
      }
    </style>
  </defs>
  <g id="Background_Complete" data-name="Background Complete">
    <path class="cls-9" d="M433.8,221.9v-12.8l.2.2h-48.6c.1-.1-.2.2.2-.2h0v12.7l-.2-.2c13.9,0,26,0,34.7.1h14-13.8c-8.7,0-20.9,0-34.8.1h-.2v-12.7h0v-.2h0c.5-.5.1-.2.3-.3h48.8v13l-.6.3Z"/>
    <path class="cls-9" d="M527.4,87.2v-12.8l.2.2h-48.6c.1,0-.2.2.2-.2h0v12.7l-.2-.2c13.9,0,26,0,34.7,0h14-13.8c-8.7,0-20.9,0-34.8,0h-.2v-12.7h0v-.2h0c.5-.5.1-.2.3-.3h48.8v13l-.6.3Z"/>
    <g>
      <path class="cls-9" d="M707.8,280v-12.8l.2.2h-48.6c0-.1-.3.2.2-.2h0v12.7l-.2-.2c13.9,0,26,0,34.7.1h14-13.8c-8.7,0-20.9,0-34.8.1h-.2v-12.7h0v-.2h0c.5-.5,0-.2.3-.3h48.8v13l-.6.3Z"/>
      <path class="cls-9" d="M714.4,267.2v-12.9l.2.2h-29.2c-.2.2.3-.3.2-.2h0v12.8l-.2-.2c8.4,0,15.7,0,20.9.1h8.3-8.1c-5.2,0-12.6,0-21.1.1h-.2v-12.8h0v-.2h0s.5-.5.2-.3h29.4v13.1l-.4.3Z"/>
    </g>
    <g>
      <g>
        <g>
          <path class="cls-16" d="M254.6,424.6l-11,4.7.7-65.3c.3-7.8-3.2-11.1-5.2-13.4-17.7-20.1-44.1-5.5-44.3,14.9l-.7,58.3h-10.7c0-.1,1.1-61.1,1.1-61.1,0-6.9,5.4-18.8,10.8-23.1,29.8-23.6,60.3.8,60,26.6l-.7,58.3h0Z"/>
          <path class="cls-9" d="M254.6,424.6v-4.6c0-3,0-7.3.1-13,0-5.6.1-12.5.2-20.5,0-4,0-8.3.1-12.8,0-4.5.4-9.3-.5-14.3-.9-4.9-2.9-9.9-6.1-14.3-.4-.5-.8-1.1-1.2-1.7-.5-.5-.9-1-1.4-1.6-.9-1.1-2-2-3-2.9-.5-.5-1.1-.9-1.7-1.3-.6-.4-1.1-.9-1.7-1.3-1.2-.7-2.4-1.6-3.8-2.2-2.6-1.4-5.5-2.3-8.4-3-.7-.1-1.5-.2-2.3-.4l-1.1-.2h-1.2c-.8,0-1.5,0-2.3-.1h-2.3c-6.3.2-12.6,2.4-18.1,6-2.7,1.8-5.2,4.2-7.4,6.7-2.2,2.6-3.9,5.6-5.3,8.7-1.4,3.2-2.2,6.6-2.6,10.1-.3,3.5-.2,7.1-.3,10.7-.2,14.5-.3,29.5-.5,44.8v6.1l-.2-.3c3.6,0,7.2,0,10.7.1l-.3.2c.1-11.6.3-22.9.4-34,0-5.5.1-10.9.2-16.3v-7.9c0-2.7.5-5.3,1.3-7.7,1.7-4.9,4.8-9.2,8.9-12.2.5-.4,1-.8,1.5-1.1l1.6-.9c1.1-.5,2.2-1.1,3.4-1.5,1.1-.5,2.3-.7,3.5-1,.6-.1,1.2-.2,1.8-.3h.9c0-.1.9-.2.9-.2,2.4-.2,4.7.1,7,.6s4.4,1.4,6.4,2.5c3.9,2.2,7.2,5.4,9.4,9.1,1.2,1.8,1.9,3.8,2.6,5.7.5,2,.9,4,1,6v11.5c0,7.4-.2,14.1-.3,20.2-.2,12.2-.3,21.7-.4,28.1h10.8-10.7c0-6.3.1-15.9.3-28.1,0-6.1.1-12.9.2-20.2v-11.5c0-2-.5-3.9-1-5.9-.7-1.9-1.4-3.9-2.5-5.6-2.1-3.6-5.4-6.7-9.3-8.9-2-1-4.1-1.9-6.3-2.4-2.2-.4-4.6-.8-6.9-.6h-.9l-.9.2c-.6,0-1.2.1-1.8.3-1.2.3-2.3.5-3.4,1-1.1.4-2.2.9-3.3,1.5l-1.6.9c-.5.3-1,.7-1.5,1.1-4,2.9-7,7.1-8.7,12-.8,2.4-1.2,5-1.3,7.6v7.9c0,5.3-.1,10.8-.2,16.3-.1,11-.3,22.4-.4,34v.3h-.3c-3.5,0-7.1,0-10.7-.1h-.3v-6.4c.2-15.3.3-30.3.5-44.8,0-3.6,0-7.2.3-10.8.4-3.5,1.3-7,2.7-10.2s3.2-6.2,5.4-8.8c2.2-2.6,4.7-4.9,7.5-6.8,5.6-3.7,12-5.9,18.3-6.1h2.4l2.7.2c.5,0,1,.1,1.5.2l2.2.4c.3,0,.7.1,1,.2,2.8.7,5.5,1.6,8,2.9,1.4.6,2.6,1.5,3.8,2.2.6.4,1.2.9,1.8,1.3.6.5,1.2.9,1.7,1.3,1,1,2.1,1.9,3,3,.5.5.9,1.1,1.4,1.6.4.5.8,1.1,1.2,1.7,3.2,4.5,5.3,9.5,6.2,14.5s.5,9.8.5,14.4-.1,8.8-.2,12.8c-.1,8-.2,14.9-.3,20.5,0,5.6-.1,10-.2,12.9v4.5h-.2Z"/>
        </g>
        <path class="cls-9" d="M170.9,385.9l97,1.2c2.1,0,3.7,1.7,3.7,3.7l-.9,74.9c0,1.9-1.5,3.4-3.4,3.4l-97.3-1.2,1-82.1h0Z"/>
        <path class="cls-4" d="M170.3,385.8l85.3,1c2.2,0,4.1,1.8,4,4.1l-.9,73c0,2.7-2.3,5-5.1,4.9l-84.3-1c-2.3,0-4.2-2-4.1-4.3l.9-73.8c0-2.2,1.8-4.1,4.1-4h0Z"/>
        <path class="cls-9" d="M225.9,420.2c0-6.4-5.2-11.7-11.7-11.6-6.1.1-11.1,5.2-11.2,11.2-.1,5.3,3.4,9.7,8.2,11.2l-7.7,15.7,19.7.6-5.8-16.2c4.8-1.3,8.4-5.6,8.5-10.9h0Z"/>
      </g>
      <path class="cls-8" d="M259.2,461.1c-.1,0,0-14.3.2-31.9.3-17.6.6-31.9.7-31.9s0,14.3-.2,31.9c-.3,17.6-.6,31.9-.7,31.9Z"/>
      <path class="cls-14" d="M238.3,389c0,.1-12.6.3-28.1.3s-28.1,0-28.1-.2,12.6-.3,28.1-.3,28.1,0,28.1.2Z"/>
      <path class="cls-14" d="M202.5,426.1s-.2-.2-.5-.7-.6-1.2-.9-2.2c-.6-1.9-.8-4.8.2-7.7,1-2.9,2.9-5,4.5-6.2s1.5-1,2-1.2.8-.3.8-.3c0,0-1.1.5-2.6,1.8-1.5,1.2-3.3,3.3-4.3,6.1-.9,2.8-.8,5.5-.3,7.4.4,1.9,1.1,2.9,1,3h.1Z"/>
      <path class="cls-14" d="M207,431.5c0,.1-.7-.2-1.5-.6-.8-.5-1.3-.9-1.2-1.1,0-.1.7.2,1.5.6.8.5,1.3.9,1.2,1.1Z"/>
      <path class="cls-14" d="M216.5,333.2s-.7,0-1.9.3c-1.2.2-3,.5-5.2,1.1-4.3,1.2-10,4.1-14.5,9.2s-6.6,11.2-7.3,15.5c-.4,2.2-.5,4-.5,5.3v1.9-.5c0-.3,0-.8-.1-1.4,0-1.3,0-3.1.3-5.3.6-4.4,2.7-10.6,7.3-15.8,4.6-5.2,10.4-8.1,14.8-9.2,2.2-.6,4-.9,5.2-1h1.9Z"/>
      <path class="cls-14" d="M186.6,375.3c-.1,0-.2-1.3-.2-3s.2-3,.3-3,.2,1.3.2,3-.2,3-.3,3Z"/>
    </g>
    <g>
      <rect class="cls-16" x="199.6" y="96.8" width="48.7" height="12.9"/>
      <path class="cls-9" d="M227.7,123.2v-12.8l.2.2h-48.6c.1,0-.2.2.2-.2h0v12.7l-.2-.2c13.9,0,26,0,34.7,0h14-13.8c-8.7,0-20.9,0-34.8,0h-.2v-12.7h0v-.2h0c.5-.5.1-.2.3-.3h48.8v13l-.6.3Z"/>
    </g>
    <g>
      <rect class="cls-16" x="652" y="63.2" width="48.7" height="12.9"/>
      <path class="cls-9" d="M680.1,89.6v-12.8l.2.2h-48.6c0,0-.2.2.2-.2h0v12.7l-.2-.2c13.9,0,26,0,34.7,0h14-13.8c-8.7,0-20.9,0-34.8,0h-.2v-12.7h0v-.2h0c.5-.5,0-.2.3-.3h48.8v13l-.6.3Z"/>
    </g>
    <g>
      <rect class="cls-16" x="374.6" y="319" width="48.7" height="12.9"/>
      <path class="cls-9" d="M402.6,345.5v-12.8l.2.2h-48.6c.1-.1-.2.2.2-.2h0v12.7l-.2-.2c13.9,0,26,0,34.7.1h14-13.8c-8.7,0-20.9,0-34.8.1h-.2v-12.7h0v-.2h0c.5-.5.1-.2.3-.3h48.8v13l-.6.3Z"/>
    </g>
    <path class="cls-9" d="M104.3,76.6v-12.8l.2.2h-48.6c0,0-.2.2.2-.2h0v12.7l-.2-.2c13.9,0,26,0,34.7,0h14-13.8c-8.7,0-20.9,0-34.8,0h-.2v-12.7h0v-.2h0c.5-.5,0-.2.3-.3h48.8v13l-.6.3Z"/>
    <path class="cls-9" d="M589.4,447.7v-12.8l.2.2h-48.6c0-.1-.2.2.2-.2h0v12.7l-.2-.2c13.9,0,26,0,34.7.1h14-13.8c-8.7,0-20.9,0-34.8.1h-.2v-12.7h0v-.2h0c.5-.5,0-.2.3-.3h48.8v13l-.6.3Z"/>
    <g>
      <path class="cls-9" d="M394.4,58.1v-12.8l.2.2h-48.6c.1,0-.3.2.2-.2h0v12.7l-.2-.2c13.9,0,26,0,34.7,0h14-13.8c-8.7,0-20.9,0-34.8,0h-.2v-12.7h0v-.2h0c.5-.5.1-.2.3-.3h48.8v13l-.6.3Z"/>
      <path class="cls-9" d="M401,45.3v-12.9l.2.2h-29.2c-.2.2.3-.3.2-.2h0v12.8l-.2-.2c8.4,0,15.7,0,20.9,0h8.3-8.1c-5.2,0-12.6,0-21.1,0h-.2v-12.8h0v-.2h0s.5-.5.2-.3h29.4v13.1l-.4.3Z"/>
    </g>
    <g>
      <path class="cls-9" d="M87.4,365v-12.8l.2.2h-48.6c0-.1-.3.2.2-.2h0v12.7l-.2-.2c13.9,0,26,0,34.7.1h14-13.8c-8.7,0-20.9,0-34.8.1h-.2v-12.7h0v-.2h0c.5-.5,0-.2.3-.3h48.8v13l-.6.3Z"/>
      <path class="cls-9" d="M94,352.2v-12.9l.2.2h-29.2c-.2.2.3-.3.2-.2h0v12.8l-.2-.2c8.4,0,15.7,0,20.9.1h8.3-8.1c-5.2,0-12.6,0-21.1.1h-.2v-12.8h0v-.2h0s.5-.5.2-.3h29.4v13.1l-.4.3Z"/>
    </g>
    <g>
      <path class="cls-9" d="M240.6,259.2v-12.8l.2.2h-48.6c.1-.1-.3.2.2-.2h0v12.7l-.2-.2c13.9,0,26,0,34.7.1h14-13.8c-8.7,0-20.9,0-34.8.1h-.2v-12.7h0v-.2h0c.5-.5.1-.2.3-.3h48.8v13l-.6.3Z"/>
      <path class="cls-9" d="M247.2,246.3v-12.9l.2.2h-29.2c-.2.2.3-.3.2-.2h0v12.8l-.2-.2c8.4,0,15.7,0,20.9.1h8.3-8.1c-5.2,0-12.6,0-21.1.1h-.2v-12.8h0v-.2h0s.5-.5.2-.3h29.4v13.1l-.4.3Z"/>
    </g>
  </g>
  <g id="Background_Simple" data-name="Background Simple" class="cls-18">
    <path class="cls-7" d="M391.5,100.8l-2-3.3c-16.8-27.7-47.1-44.3-79.1-42.3-4.1.3-8.2.8-12.2,1.7-29.1,6.2-54.4,28.2-64.9,56.4-6.2,16.6-7.9,35.6-19.6,48.8-15.2,17.1-41.1,17.7-63.8,16.9s-48.6-.1-63.8,17.1c-9.5,10.8-12.5,26.1-11.7,40.5,2,38.1,28.6,72.3,62.4,89.2,33.8,17,73.6,18.5,110.6,11,51.8-10.4,101.1-39.1,130.8-83.5,29.6-44.3,37.1-104.7,13.4-152.5h-.1Z"/>
  </g>
  <g id="Floor">
    <g>
      <path class="cls-14" d="M57.6,468.9h636.7"/>
      <path class="cls-10" d="M694.4,468.9c0,.1-142.5.3-318.3.3s-318.4-.1-318.4-.3,142.5-.3,318.4-.3,318.3.1,318.3.3Z"/>
    </g>
  </g>
  <g id="Texts">
    <g>
      <g>
        <rect class="cls-12" x="456.4" y="126.9" width="227" height="291.3"/>
        <path class="cls-10" d="M683.4,418.2c0-2.1,0-118.4-.2-291.3l.2.2h-227l.3-.3v291.3l-.2-.2c137,.1,225.2.2,227,.2-1.8,0-90,0-227,.2h-.2V126.5h227.5v.2c0,172.9-.2,289.3-.2,291.3l-.2.2Z"/>
      </g>
      <g>
        <g>
          <g>
            <path class="cls-15" d="M616.3,170.2l-12.7-2.6,16.1-77.1c.7-3.5-.4-8.7-2.5-11.6-20.2-27.9-53-16.6-58,7.5l-14.4,68.9-12.7-2.6,16.2-77.6c1.7-8.1,6.9-15.1,14.3-18.9,40.8-21,75,11.6,68,45.1l-14.4,68.9h.1Z"/>
            <path class="cls-10" d="M616.3,170.2s0-.5.3-1.4c.2-.9.5-2.3.8-4,.7-3.5,1.8-8.7,3.1-15.3,1.4-6.6,3-14.8,5-24.2s2-9.8,3.1-15.1c1-5.4,2.7-10.9,2.7-17,0-6-1.2-12.4-3.9-18.4-.4-.7-.7-1.5-1.1-2.2-.4-.7-.8-1.4-1.3-2.2-.8-1.5-1.9-2.8-2.9-4.2s-1.1-1.3-1.7-2c-.6-.6-1.1-1.3-1.8-1.9-1.3-1.2-2.5-2.4-4-3.5-2.7-2.3-6-4-9.3-5.5-.9-.3-1.7-.6-2.6-1l-1.3-.5c-.4,0-.9-.2-1.3-.4-.9-.2-1.8-.5-2.7-.7s-1.9-.3-2.8-.5c-7.5-1.2-15.5,0-22.8,2.9-3.7,1.5-7.1,3.7-10.3,6.2-3.2,2.6-5.9,5.7-8.3,9.1-2.3,3.5-4.1,7.3-5.5,11.4-1.2,4.1-1.9,8.4-2.8,12.6-3.6,17.1-7.2,34.8-11,52.9-.5,2.4-1,4.8-1.5,7.2l-.2-.4c4.3.9,8.5,1.8,12.7,2.6l-.4.2c2.9-13.7,5.7-27.1,8.4-40.1,1.4-6.5,2.7-12.9,4-19.2.7-3.2,1.3-6.3,2-9.4s1.8-6.1,3.3-8.9c3.1-5.4,7.9-9.8,13.3-12.4.7-.3,1.3-.7,2.1-.9l2.1-.7c1.4-.4,2.9-.8,4.3-1,1.5-.3,2.9-.3,4.4-.4h3.3l1.1.2c2.9.3,5.6,1.3,8.2,2.3,2.6,1.2,4.9,2.7,7,4.4,4.1,3.6,7.3,8,9,12.9,1,2.4,1.4,4.9,1.7,7.4.2,2.5.2,5-.2,7.3,0,.6-.2,1.2-.3,1.8,0,.6-.2,1.2-.4,1.7-.2,1.2-.5,2.3-.7,3.4-.5,2.3-.9,4.5-1.4,6.6-1.8,8.7-3.5,16.7-5,23.9-3,14.4-5.4,25.6-7,33.1h0c4.3.8,7.4,1.5,9.5,1.9,1,.2,1.8.4,2.3.5s.8.2.8.2c0,0-.2,0-.8-.1-.5-.1-1.3-.3-2.3-.5-2.1-.4-5.3-1.1-9.6-1.9h0c1.5-7.6,3.9-18.9,6.8-33.3,1.5-7.2,3.1-15.2,4.9-23.9.5-2.2.9-4.4,1.4-6.7.2-1.1.5-2.3.7-3.4,0-.6.2-1.2.4-1.7,0-.6.2-1.2.3-1.8.4-2.3.4-4.8.2-7.2-.3-2.4-.8-4.9-1.7-7.3-1.7-4.8-4.8-9.2-8.9-12.7-2.1-1.7-4.4-3.2-6.9-4.3-2.5-1.1-5.2-2-8-2.3l-1.1-.2h-1.1c-.7,0-1.4-.2-2.1,0-1.4,0-2.9,0-4.3.4-1.4.2-2.8.6-4.3.9l-2.1.7c-.7.2-1.3.6-2,.9-5.4,2.5-10,6.8-13.1,12.2-1.5,2.7-2.6,5.6-3.3,8.7-.6,3.1-1.3,6.2-2,9.4-1.3,6.3-2.6,12.7-4,19.2-2.7,13-5.5,26.4-8.4,40.1v.3h-.4c-4.1-.9-8.3-1.7-12.7-2.6h-.3v-.4c.5-2.4,1-4.8,1.5-7.2,3.8-18.1,7.5-35.8,11-52.9.9-4.3,1.7-8.5,2.9-12.7,1.3-4.1,3.2-8,5.5-11.5,2.4-3.5,5.3-6.6,8.5-9.2,3.3-2.5,6.7-4.7,10.5-6.3,7.4-3.1,15.5-4.2,23.1-2.9.9.2,1.9.3,2.8.5l3.1.8c.6.2,1.1.4,1.7.5l2.6,1c.4.2.8.3,1.2.5,3.1,1.5,6.2,3.2,8.8,5.3,1.5,1,2.7,2.3,4,3.5.7.6,1.2,1.3,1.8,1.9.6.7,1.2,1.3,1.7,2,1,1.4,2.1,2.7,2.9,4.2.4.7.9,1.5,1.3,2.2.4.7.7,1.5,1.1,2.3,2.8,6,4.1,12.5,3.9,18.6,0,6.1-1.8,11.8-2.8,17.1-1.1,5.4-2.2,10.4-3.2,15.1-2,9.4-3.7,17.6-5.1,24.2-1.4,6.6-2.5,11.8-3.2,15.3-.4,1.7-.7,3.1-.8,4-.2.9-.3,1.3-.3,1.3l.2.7Z"/>
          </g>
          <path class="cls-11" d="M620,225.3l-113.6-23.7,20.2-96.9,113.1,23.6c3.2.7,5.3,3.9,4.6,7.1l-17.9,85.7c-.6,2.9-3.5,4.8-6.4,4.2h0Z"/>
          <g class="cls-17">
            <path class="cls-2" d="M619.5,225.3l-113-23.6,20.2-96.9,112.5,23.4c3.6.7,5.9,4.2,5.1,7.8l-17.6,84.5c-.7,3.3-3.9,5.4-7.2,4.7h0Z"/>
          </g>
          <path class="cls-11" d="M603.5,221.9l-95.9-20c-3.6-.8-6-4.3-5.2-8l17.5-84c.7-3.5,4.2-5.8,7.7-5l97.6,20.3c3.5.7,5.8,4.2,5,7.7l-17.2,82.8c-.9,4.3-5.1,7.1-9.4,6.2h0Z"/>
          <g class="cls-17">
            <path class="cls-2" d="M583.4,158.2c1.6-7.6-3.4-15.1-11.1-16.4-7.2-1.3-14.4,3.5-15.9,10.7-1.4,6.2,1.8,12.3,7.1,15.1l-12.7,16.8,23.2,5.3-3.1-20.6c6-.4,11.3-4.7,12.5-10.9h0Z"/>
          </g>
        </g>
        <path class="cls-10" d="M613.3,214.4c-.2,0,3.3-16.9,7.7-37.7s8.2-37.6,8.3-37.6c.2,0-3.3,16.9-7.7,37.7s-8.2,37.6-8.3,37.6Z"/>
        <path class="cls-14" d="M605.4,124.2c0,.2-14.9-2.6-33.3-6.2-18.4-3.6-33.2-6.6-33.2-6.8s14.9,2.6,33.3,6.2c18.4,3.6,33.2,6.6,33.2,6.8Z"/>
        <path class="cls-14" d="M554.4,159.7s-.2-.3-.4-1c-.2-.6-.4-1.6-.5-2.8-.2-2.4.2-5.8,2-9s4.6-5.3,6.8-6.3c1.1-.5,2-.8,2.7-1,.6-.2,1-.2,1-.2,0,.1-1.4.4-3.5,1.5-2,1.1-4.7,3.1-6.5,6.2-1.8,3.1-2.2,6.4-2.1,8.7,0,2.3.6,3.7.5,3.8h0Z"/>
        <path class="cls-14" d="M558.4,167.3c0,.1-.8-.4-1.6-1.1-.8-.7-1.3-1.4-1.2-1.5s.8.4,1.6,1.1c.8.7,1.3,1.4,1.2,1.5Z"/>
        <path class="cls-14" d="M592.6,53.1s-.8,0-2.3-.2c-1.5,0-3.7,0-6.4,0-5.3.5-12.8,2.5-19.3,7.5-6.5,5-10.4,11.7-12.3,16.7-.9,2.5-1.5,4.6-1.8,6.1s-.4,2.3-.5,2.3v-.6c0-.4,0-1,.2-1.7.2-1.5.7-3.7,1.6-6.2,1.7-5.1,5.7-11.9,12.3-17,6.7-5.1,14.2-7.1,19.6-7.5,2.7-.2,4.9,0,6.4,0s1.3.2,1.7.2.6,0,.6,0l.2.2Z"/>
        <path class="cls-14" d="M547.4,96c-.2,0,0-1.6.5-3.6.4-1.9.9-3.5,1.1-3.4.2,0,0,1.6-.5,3.6-.4,1.9-.9,3.5-1.1,3.4Z"/>
      </g>
    </g>
    <g>
      <path class="cls-10" d="M509.7,268.2v-14h-4.8v-2.6h12.8v2.6h-4.8v14h-3.2Z"/>
      <path class="cls-10" d="M519.9,268.2v-17h3.2v6.9c.4-.6.9-1.1,1.6-1.5s1.4-.6,2.3-.6,1.8.2,2.5.6,1.2,1,1.5,1.8.5,1.8.5,2.9v6.8h-3.2v-6.5c0-1-.2-1.7-.6-2.2-.4-.5-1-.8-1.8-.8s-1,.1-1.4.4-.8.6-1,1.1-.4,1.1-.4,1.8v6.3h-3.2,0Z"/>
      <path class="cls-10" d="M536.2,254.6c-.6,0-1.1-.2-1.4-.5s-.5-.8-.5-1.3.2-1,.5-1.3.8-.5,1.4-.5,1.1.2,1.4.5c.4.3.6.8.6,1.3s-.2.9-.6,1.3c-.4.3-.8.5-1.4.5ZM534.6,268.2v-11.9h3.2v11.9h-3.2Z"/>
      <path class="cls-10" d="M545.8,268.5c-1.1,0-2.1-.2-2.8-.5s-1.4-.8-1.9-1.4-.7-1.3-.8-2.1h3.2c0,.3.2.6.4.8.2.3.4.4.8.6s.7.2,1.1.2.8,0,1.1-.2c.3-.1.5-.3.6-.5s.2-.4.2-.6c0-.3,0-.6-.3-.8-.2-.2-.5-.3-.8-.4-.4-.1-.8-.2-1.3-.3-.6-.1-1.1-.2-1.7-.4-.5-.2-1-.4-1.5-.6s-.8-.6-1-1c-.3-.4-.4-.9-.4-1.5s.2-1.3.6-1.9c.4-.6.9-1,1.7-1.3.7-.3,1.6-.5,2.6-.5s2.6.3,3.4,1c.8.6,1.3,1.5,1.5,2.7h-3c0-.4-.3-.7-.6-.9-.3-.2-.8-.3-1.3-.3s-1,.1-1.3.3c-.3.2-.5.5-.5.8s0,.4.3.6c.2.2.5.3.8.4s.8.2,1.3.4c.9.2,1.7.4,2.4.7.7.2,1.2.6,1.6,1s.6,1.1.6,2-.2,1.4-.6,2c-.4.6-1,1.1-1.7,1.4s-1.6.5-2.7.5v-.2Z"/>
      <path class="cls-10" d="M559.1,273.4v-17.1h2.8l.4,1.6c.2-.3.5-.6.9-.9s.8-.5,1.3-.7,1-.3,1.7-.3c1.1,0,2.1.3,3,.8s1.5,1.3,2,2.2c.5.9.7,2,.7,3.2s-.3,2.3-.8,3.2c-.5.9-1.2,1.7-2,2.2-.9.5-1.8.8-2.9.8s-1.6-.2-2.3-.5c-.6-.3-1.2-.8-1.6-1.3v6.7h-3.2ZM565.4,265.7c.6,0,1.2-.1,1.6-.4.5-.3.9-.7,1.1-1.2.3-.5.4-1.1.4-1.8s0-1.3-.4-1.8-.7-.9-1.1-1.2c-.5-.3-1-.4-1.6-.4s-1.2.1-1.6.4c-.5.3-.9.7-1.1,1.2-.3.5-.4,1.1-.4,1.8s0,1.3.4,1.8c.3.5.6.9,1.1,1.2.5.3,1,.4,1.6.4Z"/>
      <path class="cls-10" d="M578.6,268.5c-1,0-1.8-.2-2.4-.5-.6-.3-1.1-.8-1.5-1.3-.3-.5-.5-1.1-.5-1.8s.2-1.4.6-1.9c.4-.6.9-1,1.7-1.3s1.7-.5,2.9-.5h2.9c0-.6,0-1.1-.2-1.5s-.4-.7-.7-.9c-.3-.2-.8-.3-1.3-.3s-1.1.1-1.5.4-.7.7-.8,1.2h-3.1c0-.9.4-1.6.8-2.2.5-.6,1.1-1.1,1.9-1.4.8-.3,1.7-.5,2.7-.5s2.1.2,2.9.6c.8.4,1.5.9,1.9,1.6s.6,1.6.6,2.6v7.4h-2.7l-.4-1.8c-.2.3-.4.6-.6.9-.2.3-.5.5-.9.7-.3.2-.7.3-1.1.4-.4.1-.8.2-1.3.2h0ZM579.4,266c.4,0,.8,0,1.1-.2s.6-.4.8-.6c.2-.3.4-.6.6-.9s.2-.7.3-1.1h-2.4c-.5,0-.9,0-1.2.2-.3.1-.5.3-.7.5s-.2.5-.2.8,0,.6.2.8.4.4.6.5c.3.1.6.2.9.2v-.2Z"/>
      <path class="cls-10" d="M588.4,268.2v-11.9h2.8l.3,2.2c.3-.5.7-.9,1.1-1.3s.9-.7,1.5-.9c.6-.2,1.2-.3,1.9-.3v3.4h-1.1c-.5,0-.9,0-1.3.2-.4.1-.8.3-1.1.5-.3.3-.5.6-.7,1s-.2,1-.2,1.6v5.5h-3.2Z"/>
      <path class="cls-10" d="M603.5,268.2c-.8,0-1.5-.1-2.2-.4-.6-.3-1.1-.7-1.5-1.3s-.5-1.4-.5-2.5v-5.1h-2.1v-2.7h2.1l.4-3.3h2.8v3.3h3.1v2.7h-3.1v5.1c0,.5,0,.9.4,1.1.2.2.6.3,1.2.3h1.5v2.7h-2.1Z"/>
      <path class="cls-10" d="M619.6,268.5c-1.2,0-2.2-.3-3.1-.8-.9-.5-1.6-1.3-2.2-2.2-.5-.9-.8-2-.8-3.2s.3-2.3.8-3.3c.5-.9,1.2-1.7,2.2-2.2s1.9-.8,3.1-.8,2.2.3,3.1.8,1.6,1.3,2.1,2.2c.5.9.8,2,.8,3.3s-.3,2.3-.8,3.3-1.2,1.7-2.2,2.2c-.9.5-1.9.8-3.1.8h.1ZM619.6,265.7c.5,0,1-.1,1.4-.4s.8-.7,1-1.2c.3-.5.4-1.2.4-1.9s0-1.4-.4-1.9c-.3-.5-.6-.9-1-1.2s-.9-.4-1.4-.4-1,.1-1.4.4-.8.6-1,1.2c-.3.5-.4,1.2-.4,1.9s0,1.4.4,1.9c.2.5.6.9,1,1.2.4.3.9.4,1.4.4Z"/>
      <path class="cls-10" d="M627.2,258.9v-2.7h7.4v2.7h-7.4ZM628.9,268.2v-13c0-1,.2-1.8.5-2.4s.8-1,1.4-1.3c.6-.3,1.4-.4,2.2-.4h1.5v2.7h-1c-.5,0-.9,0-1.1.3s-.3.5-.3,1v13h-3.2Z"/>
      <path class="cls-10" d="M519.8,296.6v-14h-4.8v-2.6h12.8v2.6h-4.8v14h-3.2Z"/>
      <path class="cls-10" d="M532,296.8c-1,0-1.8-.2-2.4-.5-.6-.3-1.1-.8-1.5-1.3-.3-.5-.5-1.1-.5-1.8s.2-1.4.6-1.9c.4-.6.9-1,1.7-1.3s1.7-.5,2.9-.5h2.9c0-.6,0-1.1-.2-1.5s-.4-.7-.7-.9c-.3-.2-.8-.3-1.3-.3s-1.1.1-1.5.4-.7.7-.8,1.2h-3.1c0-.9.4-1.6.8-2.2.5-.6,1.1-1.1,1.9-1.4.8-.3,1.7-.5,2.7-.5s2.1.2,2.9.6c.8.4,1.5.9,1.9,1.6s.6,1.6.6,2.6v7.4h-2.7l-.4-1.8c-.2.3-.4.6-.6.9-.2.3-.5.5-.9.7-.3.2-.7.3-1.1.4-.4.1-.8.2-1.3.2h0ZM532.8,294.4c.4,0,.8,0,1.1-.2s.6-.4.8-.6c.2-.3.4-.6.6-.9s.2-.7.3-1.1h-2.4c-.5,0-.9,0-1.2.2-.3.1-.5.3-.7.5s-.2.5-.2.8,0,.6.2.8.4.4.6.5c.3.1.6.2.9.2v-.2Z"/>
      <path class="cls-10" d="M539.6,301.8v-2.7h1c.5,0,.9-.1,1.1-.3.2-.2.3-.5.3-1v-13.1h3.2v13.1c0,1-.2,1.8-.5,2.4s-.8,1-1.4,1.3c-.6.3-1.3.4-2.2.4h-1.5,0ZM543.6,283c-.6,0-1.1-.2-1.4-.5-.4-.3-.5-.8-.5-1.3s.2-1,.5-1.3c.4-.3.8-.5,1.4-.5s1.1.2,1.4.5.5.8.5,1.3-.2.9-.5,1.3-.8.5-1.4.5Z"/>
      <path class="cls-10" d="M552.3,296.8c-1,0-1.8-.2-2.4-.5-.6-.3-1.1-.8-1.5-1.3-.3-.5-.5-1.1-.5-1.8s.2-1.4.6-1.9c.4-.6.9-1,1.7-1.3s1.7-.5,2.9-.5h2.9c0-.6,0-1.1-.2-1.5s-.4-.7-.7-.9c-.3-.2-.8-.3-1.3-.3s-1.1.1-1.5.4-.7.7-.8,1.2h-3.1c0-.9.4-1.6.8-2.2.5-.6,1.1-1.1,1.9-1.4.8-.3,1.7-.5,2.7-.5s2.1.2,2.9.6c.8.4,1.5.9,1.9,1.6s.6,1.6.6,2.6v7.4h-2.7l-.4-1.8c-.2.3-.4.6-.6.9-.2.3-.5.5-.9.7-.3.2-.7.3-1.1.4-.4.1-.8.2-1.3.2h0ZM553.1,294.4c.4,0,.8,0,1.1-.2s.6-.4.8-.6c.2-.3.4-.6.6-.9s.2-.7.3-1.1h-2.4c-.5,0-.9,0-1.2.2-.3.1-.5.3-.7.5s-.2.5-.2.8,0,.6.2.8.4.4.6.5c.3.1.6.2.9.2v-.2Z"/>
      <path class="cls-10" d="M564.4,296.6l-3.5-11.9h3.1l2.3,9.6h-.6l2.6-9.6h3.5l2.7,9.6h-.6l2.3-9.6h3.2l-3.5,11.9h-3.3l-2.8-9.9h.7l-2.8,9.9h-3.3Z"/>
      <path class="cls-10" d="M585.9,296.8c-1,0-1.8-.2-2.5-.6s-1.2-1-1.6-1.8-.5-1.7-.5-2.9v-6.9h3.2v6.6c0,1,.2,1.7.6,2.2.4.5,1,.7,1.9.7s1-.1,1.4-.4c.4-.2.7-.6,1-1.1s.4-1,.4-1.7v-6.4h3.2v11.9h-2.8l-.2-1.9c-.4.7-.9,1.2-1.5,1.6-.7.4-1.5.6-2.4.6h-.2Z"/>
      <path class="cls-10" d="M596,296.6v-17h3.2v17h-3.2Z"/>
      <path class="cls-10" d="M609.6,283c-.6,0-1.1-.2-1.4-.5s-.5-.8-.5-1.3.2-1,.5-1.3.8-.5,1.4-.5,1.1.2,1.4.5c.4.3.6.8.6,1.3s-.2.9-.6,1.3c-.4.3-.8.5-1.4.5ZM608,296.6v-11.9h3.2v11.9h-3.2Z"/>
      <path class="cls-10" d="M619.2,296.8c-1.1,0-2.1-.2-2.8-.5s-1.4-.8-1.9-1.4-.7-1.3-.8-2.1h3.2c0,.3.2.6.4.8.2.3.4.4.8.6s.7.2,1.1.2.8,0,1.1-.2c.3-.1.5-.3.6-.5s.2-.4.2-.6c0-.3,0-.6-.3-.8-.2-.2-.5-.3-.8-.4-.4-.1-.8-.2-1.3-.3-.6-.1-1.1-.2-1.7-.4-.5-.2-1-.4-1.5-.6s-.8-.6-1-1c-.3-.4-.4-.9-.4-1.5s.2-1.3.6-1.9c.4-.6.9-1,1.7-1.3.7-.3,1.6-.5,2.6-.5s2.6.3,3.4,1c.8.6,1.3,1.5,1.5,2.7h-3c0-.4-.3-.7-.6-.9-.3-.2-.8-.3-1.3-.3s-1,.1-1.3.3c-.3.2-.5.5-.5.8s0,.4.3.6c.2.2.5.3.8.4s.8.2,1.3.4c.9.2,1.7.4,2.4.7.7.2,1.2.6,1.6,1s.6,1.1.6,2-.2,1.4-.6,2c-.4.6-1,1.1-1.7,1.4s-1.6.5-2.7.5v-.2Z"/>
      <path class="cls-10" d="M473.2,324.9v-11.9h2.8l.3,2.2c.3-.5.7-.9,1.1-1.3s.9-.7,1.5-.9c.6-.2,1.2-.3,1.9-.3v3.4h-1.1c-.5,0-.9,0-1.3.2-.4.1-.8.3-1.1.5-.3.3-.5.6-.7,1s-.2,1-.2,1.6v5.5h-3.2,0Z"/>
      <path class="cls-10" d="M488.4,325.2c-1.2,0-2.3-.3-3.2-.8-.9-.5-1.6-1.2-2.2-2.2-.5-.9-.8-2-.8-3.2s.3-2.3.8-3.3c.5-.9,1.2-1.7,2.1-2.2.9-.6,2-.8,3.2-.8s2.2.3,3.1.8,1.6,1.2,2.1,2.1.7,1.9.7,3,0,.3,0,.5v.6h-9.6v-2h6.5c0-.7-.3-1.3-.8-1.8s-1.1-.7-1.8-.7-1.1.1-1.5.4-.8.6-1.1,1.1c-.3.5-.4,1.1-.4,1.9v.7c0,.6.1,1.2.4,1.7.2.5.6.9,1,1.1.4.3,1,.4,1.5.4s1.1-.1,1.5-.4.7-.6.9-1h3.2c-.2.7-.6,1.4-1.1,2s-1.2,1.1-1.9,1.4c-.7.3-1.6.5-2.5.5v.2Z"/>
      <path class="cls-10" d="M501.8,325.2c-1.1,0-2.1-.2-2.8-.5s-1.4-.8-1.9-1.4-.7-1.3-.8-2.1h3.2c0,.3.2.6.4.8.2.3.4.4.8.6s.7.2,1.1.2.8,0,1.1-.2c.3-.1.5-.3.6-.5s.2-.4.2-.6c0-.3,0-.6-.3-.8-.2-.2-.5-.3-.8-.4-.4-.1-.8-.2-1.3-.3-.6-.1-1.1-.2-1.7-.4-.5-.2-1-.4-1.5-.6s-.8-.6-1-1c-.3-.4-.4-.9-.4-1.5s.2-1.3.6-1.9.9-1,1.7-1.3c.7-.3,1.6-.5,2.6-.5s2.6.3,3.4,1c.8.6,1.3,1.5,1.5,2.7h-3c0-.4-.3-.7-.6-.9-.3-.2-.8-.3-1.3-.3s-1,.1-1.3.3c-.3.2-.5.5-.5.8s0,.4.3.6c.2.2.5.3.8.4s.8.2,1.3.4c.9.2,1.7.4,2.4.7.7.2,1.2.6,1.6,1s.6,1.1.6,2-.2,1.4-.6,2-1,1.1-1.7,1.4-1.6.5-2.7.5v-.2Z"/>
      <path class="cls-10" d="M515.2,325.2c-1.2,0-2.3-.3-3.2-.8-.9-.5-1.6-1.2-2.2-2.2-.5-.9-.8-2-.8-3.2s.3-2.3.8-3.3c.5-.9,1.2-1.7,2.1-2.2.9-.6,2-.8,3.2-.8s2.2.3,3.1.8c.9.5,1.6,1.2,2.1,2.1s.7,1.9.7,3,0,.3,0,.5v.6h-9.6v-2h6.5c0-.7-.3-1.3-.8-1.8s-1.1-.7-1.8-.7-1.1.1-1.5.4-.8.6-1.1,1.1-.4,1.1-.4,1.9v.7c0,.6,0,1.2.4,1.7.2.5.6.9,1,1.1.4.3,1,.4,1.5.4s1.1-.1,1.5-.4.7-.6.9-1h3.2c-.2.7-.6,1.4-1.1,2s-1.2,1.1-1.9,1.4-1.6.5-2.5.5v.2Z"/>
      <path class="cls-10" d="M523.7,324.9v-11.9h2.8l.3,2.2c.3-.5.7-.9,1.1-1.3s.9-.7,1.5-.9c.6-.2,1.2-.3,1.9-.3v3.4h-1.1c-.5,0-.9,0-1.3.2-.4.1-.8.3-1.1.5-.3.3-.5.6-.7,1s-.2,1-.2,1.6v5.5h-3.2Z"/>
      <path class="cls-10" d="M536.6,324.9l-4.4-11.9h3.4l3,8.9,3-8.9h3.3l-4.4,11.9h-3.9,0Z"/>
      <path class="cls-10" d="M551.9,325.2c-1.2,0-2.3-.3-3.2-.8s-1.6-1.2-2.2-2.2c-.5-.9-.8-2-.8-3.2s.3-2.3.8-3.3c.5-.9,1.2-1.7,2.1-2.2.9-.6,2-.8,3.2-.8s2.2.3,3.1.8c.9.5,1.6,1.2,2.1,2.1s.7,1.9.7,3,0,.3,0,.5v.6h-9.6v-2h6.5c0-.7-.3-1.3-.8-1.8s-1.1-.7-1.8-.7-1.1.1-1.5.4-.8.6-1.1,1.1-.4,1.1-.4,1.9v.7c0,.6,0,1.2.4,1.7.2.5.6.9,1,1.1.4.3,1,.4,1.5.4s1.1-.1,1.5-.4.7-.6.9-1h3.2c-.2.7-.6,1.4-1.1,2s-1.2,1.1-1.9,1.4-1.6.5-2.5.5v.2Z"/>
      <path class="cls-10" d="M565.7,325.2c-1.1,0-2.1-.3-2.9-.8-.9-.5-1.5-1.3-2-2.2-.5-.9-.7-2-.7-3.2s.2-2.3.7-3.2,1.2-1.7,2.1-2.2c.9-.5,1.9-.8,3-.8s1.6.2,2.3.5c.6.3,1.2.8,1.5,1.3v-6.6h3.2v17h-2.8l-.4-1.7c-.3.4-.6.7-.9,1s-.8.5-1.3.7-1.1.3-1.7.3h0ZM566.5,322.4c.6,0,1.2-.1,1.7-.4s.8-.7,1.1-1.2.4-1.1.4-1.8,0-1.3-.4-1.8c-.3-.5-.6-.9-1.1-1.2-.5-.3-1-.4-1.7-.4s-1.1.1-1.6.4-.9.7-1.1,1.2c-.3.5-.4,1.1-.4,1.8s0,1.3.4,1.8c.3.5.6.9,1.1,1.2.5.3,1,.4,1.6.4Z"/>
      <path class="cls-10" d="M580.4,315.7v-2.7h7.4v2.7h-7.4ZM582,324.9v-13c0-1,.2-1.8.5-2.4s.8-1,1.4-1.3c.6-.3,1.4-.4,2.2-.4h1.5v2.7h-1c-.5,0-.9,0-1.1.3s-.3.5-.3,1v13h-3.2Z"/>
      <path class="cls-10" d="M595.4,325.2c-1.2,0-2.2-.3-3.1-.8-.9-.5-1.6-1.3-2.2-2.2-.5-.9-.8-2-.8-3.2s.3-2.3.8-3.3c.5-.9,1.2-1.7,2.2-2.2s1.9-.8,3.1-.8,2.2.3,3.1.8,1.6,1.3,2.1,2.2c.5.9.8,2,.8,3.3s-.3,2.3-.8,3.3-1.2,1.7-2.2,2.2c-.9.5-1.9.8-3.1.8h.1ZM595.4,322.4c.5,0,1-.1,1.4-.4s.8-.7,1-1.2c.3-.5.4-1.2.4-1.9s0-1.4-.4-1.9c-.3-.5-.6-.9-1-1.2s-.9-.4-1.4-.4-1,.1-1.4.4-.8.6-1,1.2c-.3.5-.4,1.2-.4,1.9s0,1.4.4,1.9c.2.5.6.9,1,1.2.4.3.9.4,1.4.4Z"/>
      <path class="cls-10" d="M604.2,324.9v-11.9h2.8l.3,2.2c.3-.5.7-.9,1.1-1.3s.9-.7,1.5-.9c.6-.2,1.2-.3,1.9-.3v3.4h-1.1c-.5,0-.9,0-1.3.2-.4.1-.8.3-1.1.5-.3.3-.5.6-.7,1s-.2,1-.2,1.6v5.5h-3.2Z"/>
      <path class="cls-10" d="M618.3,315.7v-2.7h7.4v2.7h-7.4ZM620,324.9v-13c0-1,.2-1.8.5-2.4s.8-1,1.4-1.3c.6-.3,1.4-.4,2.2-.4h1.5v2.7h-1c-.5,0-.9,0-1.1.3s-.3.5-.3,1v13h-3.2Z"/>
      <path class="cls-10" d="M632.7,325.2c-1,0-1.8-.2-2.5-.6s-1.2-1-1.6-1.8-.5-1.7-.5-2.9v-6.9h3.2v6.6c0,1,.2,1.7.6,2.2.4.5,1,.7,1.9.7s1-.1,1.4-.4c.4-.2.7-.6,1-1.1s.4-1,.4-1.7v-6.4h3.2v11.9h-2.8l-.2-1.9c-.4.7-.9,1.2-1.5,1.6-.7.4-1.5.6-2.4.6h-.2Z"/>
      <path class="cls-10" d="M642.8,324.9v-17h3.2v17h-3.2Z"/>
      <path class="cls-10" d="M649.1,324.9v-17h3.2v17h-3.2Z"/>
      <path class="cls-10" d="M656.9,330.1l2.9-6.5h-.7l-4.8-10.6h3.5l3.4,7.7,3-7.7h3.4l-7.4,17.1h-3.4,0Z"/>
      <path class="cls-10" d="M486.8,353.6c-1.1,0-2.1-.2-2.8-.5s-1.4-.8-1.9-1.4-.7-1.3-.8-2.1h3.2c0,.3.2.6.4.8.2.3.4.4.8.6s.7.2,1.1.2.8,0,1.1-.2c.3-.1.5-.3.6-.5s.2-.4.2-.6c0-.3,0-.6-.3-.8-.2-.2-.5-.3-.8-.4-.4-.1-.8-.2-1.3-.3-.6-.1-1.1-.2-1.7-.4-.5-.2-1-.4-1.5-.6s-.8-.6-1-1c-.3-.4-.4-.9-.4-1.5s.2-1.3.6-1.9.9-1,1.7-1.3c.7-.3,1.6-.5,2.6-.5s2.6.3,3.4,1c.8.6,1.3,1.5,1.5,2.7h-3c0-.4-.3-.7-.6-.9-.3-.2-.8-.3-1.3-.3s-1,.1-1.3.3c-.3.2-.5.5-.5.8s0,.4.3.6c.2.2.5.3.8.4s.8.2,1.3.4c.9.2,1.7.4,2.4.7.7.2,1.2.6,1.6,1s.6,1.1.6,2-.2,1.4-.6,2-1,1.1-1.7,1.4-1.6.5-2.7.5v-.2Z"/>
      <path class="cls-10" d="M500.2,353.6c-1.2,0-2.3-.3-3.2-.8-.9-.5-1.6-1.2-2.2-2.2-.5-.9-.8-2-.8-3.2s.3-2.3.8-3.3c.5-.9,1.2-1.7,2.1-2.2.9-.6,2-.8,3.2-.8s2.2.3,3.1.8,1.6,1.2,2.1,2.1.7,1.9.7,3,0,.3,0,.5v.6h-9.6v-2h6.5c0-.7-.3-1.3-.8-1.8s-1.1-.7-1.8-.7-1.1.1-1.5.4-.8.6-1.1,1.1c-.3.5-.4,1.1-.4,1.9v.7c0,.6.1,1.2.4,1.7.2.5.6.9,1,1.1.4.3,1,.4,1.5.4s1.1-.1,1.5-.4.7-.6.9-1h3.2c-.2.7-.6,1.4-1.1,2s-1.2,1.1-1.9,1.4c-.7.3-1.6.5-2.5.5v.2Z"/>
      <path class="cls-10" d="M513.9,353.3c-.8,0-1.5-.1-2.2-.4-.6-.3-1.1-.7-1.5-1.3s-.5-1.4-.5-2.5v-5.1h-2.1v-2.7h2.1l.4-3.3h2.8v3.3h3.1v2.7h-3.1v5.1c0,.5,0,.9.4,1.1.2.2.6.3,1.2.3h1.5v2.7h-2.1Z"/>
      <path class="cls-10" d="M519.1,347.7v-2.7h10v2.7h-10Z"/>
      <path class="cls-10" d="M536.9,353.6c-1,0-1.8-.2-2.5-.6s-1.2-1-1.6-1.8-.5-1.7-.5-2.9v-6.9h3.2v6.6c0,1,.2,1.7.6,2.2.4.5,1,.7,1.9.7s1-.1,1.4-.4c.4-.2.7-.6,1-1.1s.4-1,.4-1.7v-6.4h3.2v11.9h-2.8l-.2-1.9c-.4.7-.9,1.2-1.5,1.6-.7.4-1.5.6-2.4.6h-.2Z"/>
      <path class="cls-10" d="M547,358.5v-17.1h2.8l.4,1.6c.2-.3.5-.6.9-.9s.8-.5,1.3-.7,1-.3,1.7-.3c1.1,0,2.1.3,3,.8s1.5,1.3,2,2.2c.5.9.7,2,.7,3.2s-.3,2.3-.8,3.2c-.5.9-1.2,1.7-2,2.2-.9.5-1.8.8-2.9.8s-1.6-.2-2.3-.5c-.6-.3-1.2-.8-1.6-1.3v6.7h-3.2ZM553.3,350.8c.6,0,1.2-.1,1.6-.4.5-.3.9-.7,1.1-1.2.3-.5.4-1.1.4-1.8s0-1.3-.4-1.8-.7-.9-1.1-1.2c-.5-.3-1-.4-1.6-.4s-1.2.1-1.6.4c-.5.3-.9.7-1.1,1.2-.3.5-.4,1.1-.4,1.8s0,1.3.4,1.8c.3.5.6.9,1.1,1.2.5.3,1,.4,1.6.4Z"/>
      <path class="cls-10" d="M568,358.5v-17.1h2.8l.4,1.6c.2-.3.5-.6.9-.9s.8-.5,1.3-.7,1-.3,1.7-.3c1.1,0,2.1.3,3,.8s1.5,1.3,2,2.2c.5.9.7,2,.7,3.2s-.3,2.3-.8,3.2c-.5.9-1.2,1.7-2,2.2-.9.5-1.8.8-2.9.8s-1.6-.2-2.3-.5c-.6-.3-1.2-.8-1.6-1.3v6.7h-3.2ZM574.3,350.8c.6,0,1.2-.1,1.6-.4.5-.3.9-.7,1.1-1.2.3-.5.4-1.1.4-1.8s0-1.3-.4-1.8-.7-.9-1.1-1.2c-.5-.3-1-.4-1.6-.4s-1.2.1-1.6.4c-.5.3-.9.7-1.1,1.2-.3.5-.4,1.1-.4,1.8s0,1.3.4,1.8c.3.5.6.9,1.1,1.2.5.3,1,.4,1.6.4Z"/>
      <path class="cls-10" d="M583.5,353.3v-11.9h2.8l.3,2.2c.3-.5.7-.9,1.1-1.3s.9-.7,1.5-.9c.6-.2,1.2-.3,1.9-.3v3.4h-1.1c-.5,0-.9,0-1.3.2-.4.1-.8.3-1.1.5-.3.3-.5.6-.7,1s-.2,1-.2,1.6v5.5h-3.2Z"/>
      <path class="cls-10" d="M598.7,353.6c-1.2,0-2.2-.3-3.1-.8-.9-.5-1.6-1.3-2.2-2.2-.5-.9-.8-2-.8-3.2s.3-2.3.8-3.3c.5-.9,1.2-1.7,2.2-2.2s1.9-.8,3.1-.8,2.2.3,3.1.8,1.6,1.3,2.1,2.2c.5.9.8,2,.8,3.3s-.3,2.3-.8,3.3-1.2,1.7-2.2,2.2c-.9.5-1.9.8-3.1.8h.1ZM598.7,350.8c.5,0,1-.1,1.4-.4s.8-.7,1-1.2c.3-.5.4-1.2.4-1.9s0-1.4-.4-1.9c-.3-.5-.6-.9-1-1.2s-.9-.4-1.4-.4-1,.1-1.4.4-.8.6-1,1.2c-.3.5-.4,1.2-.4,1.9s0,1.4.4,1.9c.2.5.6.9,1,1.2.4.3.9.4,1.4.4Z"/>
      <path class="cls-10" d="M608,353.3v-9.2h-1.6v-2.7h1.6v-1.1c0-1,.2-1.8.5-2.4s.8-1,1.4-1.3c.6-.3,1.3-.4,2.2-.4h1.3v2.7h-.8c-.5,0-.9,0-1.1.3s-.3.5-.3,1v1.1h7.5v11.9h-3.2v-9.2h-4.3v9.2h-3.2ZM617,339.8c-.6,0-1-.2-1.4-.5s-.6-.8-.6-1.3.2-1,.6-1.3c.4-.3.8-.5,1.4-.5s1.1.2,1.4.5.5.8.5,1.3-.2,1-.5,1.3-.8.5-1.4.5Z"/>
      <path class="cls-10" d="M621.8,353.3v-17h3.2v17h-3.2Z"/>
      <path class="cls-10" d="M633.9,353.6c-1.2,0-2.3-.3-3.2-.8s-1.6-1.2-2.2-2.2c-.5-.9-.8-2-.8-3.2s.3-2.3.8-3.3c.5-.9,1.2-1.7,2.1-2.2.9-.6,2-.8,3.2-.8s2.2.3,3.1.8c.9.5,1.6,1.2,2.1,2.1s.7,1.9.7,3,0,.3,0,.5v.6h-9.6v-2h6.5c0-.7-.3-1.3-.8-1.8s-1.1-.7-1.8-.7-1.1.1-1.5.4-.8.6-1.1,1.1-.4,1.1-.4,1.9v.7c0,.6,0,1.2.4,1.7.2.5.6.9,1,1.1.4.3,1,.4,1.5.4s1.1-.1,1.5-.4.7-.6.9-1h3.2c-.2.7-.6,1.4-1.1,2s-1.2,1.1-1.9,1.4-1.6.5-2.5.5v.2Z"/>
      <path class="cls-10" d="M647.3,353.6c-1.1,0-2.1-.2-2.8-.5s-1.4-.8-1.9-1.4-.7-1.3-.8-2.1h3.2c0,.3.2.6.4.8.2.3.4.4.8.6s.7.2,1.1.2.8,0,1.1-.2c.3-.1.5-.3.6-.5s.2-.4.2-.6c0-.3,0-.6-.3-.8-.2-.2-.5-.3-.8-.4-.4-.1-.8-.2-1.3-.3-.6-.1-1.1-.2-1.7-.4-.5-.2-1-.4-1.5-.6s-.8-.6-1-1c-.3-.4-.4-.9-.4-1.5s.2-1.3.6-1.9c.4-.6.9-1,1.7-1.3.7-.3,1.6-.5,2.6-.5s2.6.3,3.4,1c.8.6,1.3,1.5,1.5,2.7h-3c0-.4-.3-.7-.6-.9-.3-.2-.8-.3-1.3-.3s-1,.1-1.3.3c-.3.2-.5.5-.5.8s0,.4.3.6c.2.2.5.3.8.4s.8.2,1.3.4c.9.2,1.7.4,2.4.7.7.2,1.2.6,1.6,1s.6,1.1.6,2-.2,1.4-.6,2c-.4.6-1,1.1-1.7,1.4s-1.6.5-2.7.5v-.2Z"/>
      <path class="cls-10" d="M656.4,353.4c-.6,0-1.1-.2-1.4-.5-.4-.4-.5-.8-.5-1.3s.2-1,.5-1.3c.4-.4.8-.5,1.4-.5s1,.2,1.4.5c.4.4.6.8.6,1.3s-.2,1-.6,1.3c-.4.4-.8.5-1.4.5Z"/>
    </g>
  </g>
  <g id="Characters">
    <g>
      <g>
        <g>
          <path class="cls-5" d="M60.4,413.6l-18,24.4,30.3,22.5c2-3-9.4-20.5-9.4-20.5l12.2-15.2-15.1-11.3h0Z"/>
          <path class="cls-14" d="M55,431.8c-.7-.3-1.6,0-1.9.8-.3.7,0,1.6.8,1.9.7.3,1.8-.1,2-.8.2-.7-.3-1.8-1-1.9"/>
          <path class="cls-10" d="M42.4,438.1l1.9-2.6,28.3,22.8s.9,1.6,0,2.4l-30.2-22.6h0Z"/>
          <path class="cls-10" d="M63.9,440.3c0,.1-.9-.3-2-.4-1.1,0-1.9.3-2,.1,0-.1.8-.8,2.1-.7,1.3,0,2.1.9,1.9,1Z"/>
          <path class="cls-10" d="M66.1,443.9c0,.2-.9,0-1.9.2s-1.6.8-1.7.7c-.2,0,.4-1,1.6-1.3,1.2-.3,2.1.3,2,.4h0Z"/>
          <path class="cls-10" d="M65.1,449.1c-.2,0,.2-1,1.2-1.5s1.9-.3,1.9-.2c0,.2-.8.3-1.6.7-.8.4-1.3,1-1.5.9h0Z"/>
          <path class="cls-10" d="M66.3,436.5c-.2,0-.7-.6-1.6-1.2s-1.7-.8-1.7-1,1-.2,2.1.4c1,.7,1.4,1.7,1.2,1.7h0Z"/>
        </g>
        <path class="cls-10" d="M133.6,311.5c.5,3.1,1.4,29.1,2,42.8s-.8,20.5-2.4,23.6c-1.6,3.1-60.8,46.7-65.3,57.2l-15-12.1s22-39.5,31.4-46.7,27.4-13.8,27.4-13.8l-5.1-75.2,24.6-1.3,2.4,25.5Z"/>
        <g>
          <g>
            <path class="cls-5" d="M78.5,437.7l-.3,30.3,37.7.5c-.2-3.6-19.6-11.1-19.6-11.1l1-19.4-18.8-.3Z"/>
            <path class="cls-14" d="M84.8,455.7c-.7.2-1.2,1-1.1,1.7.2.7,1,1.3,1.7,1.1.7-.2,1.4-1.1,1.1-1.9-.2-.7-1.2-1.3-1.9-.9"/>
            <path class="cls-10" d="M78.3,468.1v-3.2l36.3,1.9s1.7.8,1.5,1.9l-37.7-.6h-.1Z"/>
            <path class="cls-10" d="M97,457.3c0,.2-.9.3-1.8.8-.9.6-1.4,1.3-1.6,1.3s0-1.1,1.2-1.8c1.1-.7,2.2-.5,2.2-.3Z"/>
            <path class="cls-10" d="M101,459c0,.2-.8.5-1.4,1.3-.7.8-.8,1.6-1,1.6s-.3-1.1.5-2,1.9-1,1.9-.8h0Z"/>
            <path class="cls-10" d="M103.1,463.7c-.2,0-.4-.9,0-1.9.5-1,1.4-1.4,1.4-1.2,0,.2-.5.7-.9,1.5s-.5,1.6-.7,1.6h.2Z"/>
            <path class="cls-10" d="M96.8,452.8c0,.2-.9,0-2,0s-1.9.4-2,.2c0-.1.7-.8,1.9-.9,1.2,0,2.1.5,2,.7h0Z"/>
          </g>
          <path class="cls-10" d="M136.3,282.8c0,1.8,2.9,46.6-11.8,79,0,0-5.1,10.1-6,14.6-.9,4.4-19.9,77.9-19.9,77.9l-21.9-.8s-3.5-36.8,0-58.1c3.6-21.3,10-18.8,10-32.6s-3.3-42.3-3.3-42.3c0,0-4.8-7.8-6.4-22.9-1.3-12.3,4.4-25.4,4.4-25.4l5.7-10.1,48.3-2.5.6,23.3h.3Z"/>
          <path class="cls-5" d="M136.3,282.8v-6c0-4-.2-9.8-.4-17.3h0c0-.1-.1-.1-.1-.1-11.9.6-28.4,1.4-48.3,2.5h0c-1.8,3.1-3.7,6.6-5.7,10.1h0c-1.4,3.5-2.6,7.2-3.4,11.1-.9,3.9-1.3,8-1.2,12.2.3,4.2.9,8.4,2,12.7,1.1,4.2,2.4,8.5,4.6,12.6h0c.8,7.4,1.6,15.1,2.2,23.1.3,4,.6,8,.8,12.1,0,2,.2,4.1.2,6.2v3.1c0,1-.2,2.1-.4,3.1-.4,2-1.1,4-2.1,5.9s-2.1,3.7-3,5.7c-1.9,3.9-3.1,8.1-3.9,12.4-1.7,8.6-2.1,17.5-2.2,26.5,0,11.9.6,23.6,1.5,34.9v.2h.3c7.5.3,14.8.5,21.9.8h.2v-.2c6.3-24.6,12.3-47.6,17.5-68.3.6-2.6,1.3-5.1,1.9-7.7.3-1.3.5-2.5.9-3.7s.8-2.4,1.3-3.5c.9-2.3,2-4.6,3-6.8.3-.5.5-1.1.8-1.6s.5-1.1.7-1.6c.5-1.1.9-2.2,1.3-3.3,3.5-8.7,5.5-17.2,6.9-24.9,2.8-15.5,3.2-28.1,3.3-36.7,0-8.6-.3-13.3-.3-13.3v13.4c-.2,8.6-.6,21.2-3.4,36.7-1.4,7.7-3.5,16.2-7,24.8-.4,1.1-.9,2.2-1.3,3.3-.2.6-.5,1.1-.7,1.6-.3.5-.5,1.1-.8,1.6-1,2.2-2.1,4.4-3,6.8-.5,1.2-.9,2.4-1.3,3.6s-.6,2.5-.9,3.8c-.6,2.5-1.3,5.1-1.9,7.6-5.3,20.7-11.2,43.7-17.6,68.3l.3-.2c-7.1-.3-14.4-.5-21.9-.8l.3.2c-1-11.3-1.6-22.9-1.5-34.8,0-9,.4-17.9,2.2-26.4.9-4.3,2.1-8.4,3.9-12.3.9-1.9,2-3.8,3-5.7,1-1.9,1.8-3.9,2.1-6,.2-1,.3-2.1.4-3.1v-3.1c0-2.1,0-4.1-.2-6.2-.2-4.1-.5-8.1-.8-12.1-.7-8-1.4-15.7-2.3-23.2h0c-2.2-3.9-3.5-8.2-4.6-12.4-1-4.2-1.7-8.5-2-12.6,0-4.1.3-8.2,1.2-12.1.8-3.9,2-7.6,3.4-11h0c2-3.5,3.9-7,5.7-10.1h-.2c19.9-1,36.4-1.9,48.3-2.5h-.1c.2,7.4.4,13.2.5,17.2,0,2,.1,3.5.2,4.5v1.5l-.2-.5Z"/>
        </g>
      </g>
      <g>
        <path class="cls-11" d="M120.6,191.1s-13-2.3-11.8,14.4c.8,10,3.7,27.2,5.3,38.1.6,3.8,1.8,10.6,6.8,14.5l35.9,24.8,11.3-13.5-32.1-30.5-5-30.2-10.5-17.7h0Z"/>
        <g>
          <g>
            <path class="cls-10" d="M122.1,130.8c4.1,3.3,6.5,8.7,6.1,13.9-.2,2.6-.9,5.5.8,7.4,1.6,1.9,4.9,1.9,6.5,3.9,1.9,2.3.3,5.8,1,8.7.6,2.7,3.5,4.7,6.3,4.4-3.3,2.7-7.3,4.4-11.4,5-1.1-1.4-2.1-2.7-3.2-4.1,1.2,1.4.9,3.7-.3,5.2s-3,2.3-4.8,2.8c-8.6,2.7-18.4,1.1-25.7-4.2"/>
            <path class="cls-10" d="M74.1,153.3c.6-2,1.7-3.8,2.1-5.8.9-4.3-1.2-9.2.9-13.1,1.5-2.8,4.7-4.1,7.7-5.1,3-.9,6.2-1.7,8.5-3.9,1.6-1.6,2.6-3.9,4.2-5.5,2.3-2.3,5.8-3.1,9.1-3.3,3.4-.2,6.9,0,9.9,1.6s5.6,4.3,6.1,7.6c.3,1.6,0,3.3.6,4.9.6,1.7,1.9,3.1,2.8,4.7,1.8,3.4.8,8-2.2,10.4l-23.2,29.9c-4.9,1.8-16.7-.4-20.4-4-3.8-3.6-7.7-13.6-6.1-18.5h0Z"/>
            <path class="cls-13" d="M123.2,142.1c-1-6.8-6.1-14.8-12.9-13.6l-20.8,7c-2.1.4-.6,3.7-.4,5.8l4.5,47s-2.8,2-3.8,1.6c-.3,0-.5.2-.3.4,2.5,3.6,14.3,19.5,26.5,14.7,2.7-1.1-.3-9.7,0-12.8l-.4-8.1c-.3-4.1-.4-5.8-.4-5.8,0,0,8.6-2.1,9.5-13.6.5-5.7-.5-15-1.6-22.5h.1Z"/>
            <path class="cls-10" d="M121.7,152.5c0,.8-.5,1.5-1.3,1.6s-1.5-.4-1.6-1.2c0-.8.5-1.5,1.3-1.6s1.5.4,1.6,1.2Z"/>
            <path class="cls-10" d="M107.6,153.4c0,.8-.5,1.5-1.3,1.6s-1.5-.4-1.6-1.2c0-.8.5-1.5,1.3-1.6s1.5.4,1.6,1.2Z"/>
            <path class="cls-10" d="M122.3,147.7c-.2.3-1.5-.6-3.2-.3-1.7.2-2.8,1.4-3,1.2,0,0,0-.6.5-1.1s1.3-1.1,2.4-1.3c1.1-.1,2,.2,2.6.6.6.4.8.8.8.9h-.1Z"/>
            <path class="cls-10" d="M107,149c-.2.2-1.5-.7-3.4-.6-1.8,0-3.1,1.1-3.3.9,0-.1,0-.5.7-1,.6-.5,1.5-1,2.7-1s2.1.4,2.7.8c.6.4.8.9.7,1h0Z"/>
            <path class="cls-10" d="M112.7,159.8s.9-.3,2.5-.7c.4,0,.8-.2.8-.5s0-.7-.4-1.2c-.5-.9-.9-1.9-1.4-3-2-4.2-3.4-7.7-3.3-7.8.2,0,1.9,3.3,3.9,7.5.5,1,.9,2,1.4,3s.5.9.3,1.6c0,.3-.4.5-.6.6-.3,0-.5.1-.7.1-1.6.2-2.6.3-2.6.2v.2Z"/>
            <path class="cls-1" d="M115.2,178.3s-7.6,1.1-15.6-2.9c0,0,4.4,7.7,15.8,5.8l-.2-2.9h0Z"/>
            <path class="cls-1" d="M107.9,164.4c.2-.4.4-.7.8-1,.4-.2.9-.2,1.4-.1.7.1,1.3.4,1.8.9s.7,1.2.4,1.9h0c-.2.7-1.2,1-1.8,1.1-.7.1-1.4,0-2-.4-.5-.3-1-.7-1-1.3s.2-.8.4-1.1h0Z"/>
            <path class="cls-10" d="M108.3,162.1c.3,0,.4,1.7,1.9,2.8,1.6,1.1,3.4.8,3.4,1s-.4.4-1.1.4-1.9,0-2.8-.7-1.4-1.6-1.5-2.3,0-1.1.2-1.1h0Z"/>
            <path class="cls-10" d="M106.9,142.8c0,.4-1.7.4-3.5.7s-3.3,1-3.6.6c0-.2,0-.6.7-1.1s1.5-.9,2.6-1.1c1.1-.2,2.1-.1,2.8.1.7.2,1.1.5,1,.7h0Z"/>
            <path class="cls-10" d="M121.3,142c-.3.4-1.6.1-3,.2-1.5,0-2.7.5-3,0,0-.2,0-.5.6-.9.5-.4,1.4-.7,2.4-.8,1,0,1.9.2,2.5.5s.8.7.6.9h0Z"/>
            <path class="cls-10" d="M84.9,137.1c1.1-1.6,2.9-2.5,4.7-3.1,7.8-3,15.9-5.1,24.1-6.1,1,1.7,0,4-1.5,5.2-1.6,1.2-3.5,1.7-5.4,2.4s-3.8,1.8-4.5,3.6c-.8,1.9,0,4.2-.8,6.2-1.2,3.4-6,4.5-7.2,7.9-.9,2.6.6,5.3,1,8.1.4,3.1-.7,6.3-3,8.5-1.8,1.7-4.2,2.6-6.7,2.7-.6-9.8-1.1-19.6-1.7-29.4,0-2-.2-4.2.9-5.9h0Z"/>
            <path class="cls-10" d="M65.2,161.9c1.5-1.4,3.5-2.6,4.1-4.6.9-2.9-1.4-6.3,0-8.9,1.4-2.4,5.4-2.3,6.6-4.7,1-1.9,0-3.6.2-5.3.4-1.7,2.8-3.2,4.5-3l13.4,19.4c1.2,6.5,2.5,10,1.1,13.8-.8,2.1-1.8,4.1-2.1,6.3-.3,2.2.3,4.7,2.1,6-8,.6-15.5-3.6-22.4-7.6-2.4-1.4-4.9-2.9-7.3-4.3-.8-.4-1.6-.9-2-1.7-1.1-1.8.2-4.1,1.8-5.4Z"/>
            <path class="cls-5" d="M72.5,171.3s.3.1.9.2c.6,0,1.4,0,2.5-.2,1.1-.3,2.3-.8,3.5-1.9,1.1-1.1,2.1-2.7,2.3-4.7,0-1,0-2-.3-3.1-.3-1-.9-2-1.5-3s-1.2-2-1.5-3.1-.3-2.4.4-3.4c.7-1,2.1-1.2,3.3-1.7.6-.3,1.3-.6,1.7-1.3.4-.6.6-1.4.5-2.1,0-1.5-.6-2.8-.9-4.2,0-.7-.2-1.4,0-2,.2-.7.6-1.2,1.2-1.6,1.2-.8,2.6-1,4-1.1s2.9-.4,4.1-1.2,2.2-1.8,2.8-3.1c.6-1.2.8-2.6,1-3.8.2-1.3.4-2.5.8-3.6s1.1-2.1,1.9-2.8c1.6-1.5,3.6-2.3,5.5-2.5s3.6.3,4.9,1,2.4,1.6,3.1,2.3c1.4,1.6,1.8,2.8,1.9,2.7v-.2c0,0,0-.3-.3-.6-.3-.5-.7-1.2-1.4-2.1-.7-.8-1.7-1.7-3.1-2.5-1.4-.7-3.1-1.3-5.1-1.1-2,0-4.1,1-5.8,2.6-.8.8-1.5,1.8-2,3-.4,1.2-.6,2.4-.8,3.7-.2,1.3-.4,2.5-1,3.7-.6,1.1-1.5,2.2-2.7,2.9-1.1.7-2.5,1-3.9,1.1s-3,.2-4.3,1.2c-.6.4-1.1,1.1-1.3,1.9-.2.8,0,1.5,0,2.2.3,1.4.9,2.7.9,4.1s0,1.3-.5,1.8-.9.9-1.5,1.1c-.6.3-1.2.4-1.9.7-.6.3-1.2.6-1.6,1.2-.8,1.1-.8,2.6-.5,3.8s1,2.2,1.6,3.2,1.2,1.9,1.5,2.9.4,2,.3,2.9c-.2,1.9-1.1,3.5-2.1,4.5-1.1,1.1-2.3,1.6-3.3,1.9-2.1.5-3.3.1-3.3.2h0Z"/>
            <path class="cls-10" d="M61.9,157.5s-.2.2-.3.7c0,.4,0,1.2.3,2,.2.4.6.8,1,1.1.5.3,1.1.5,1.7.5,1.3,0,2.8-.8,3.5-2.2.4-.7.6-1.6.6-2.4s-.2-1.8-.6-2.6c-.6-1.7-1.8-3.4-1.8-5.4s.2-2,.9-2.7c.7-.7,1.8-.9,2.9-.9s2.3.1,3.5-.4c.6-.2,1.1-.7,1.4-1.2s.5-1.2.6-1.8c0-1.2,0-2.4-.3-3.6-.2-1.1,0-2.2.2-3.3.6-2.1,2-3.9,3.7-4.9s3.7-1.2,5.5-1.3c1.8,0,3.6-.2,5.1-.8,1.5-.6,2.7-1.4,3.6-2.3s1.5-1.8,2-2.5c.8-1.5,1-2.5,1-2.5,0,0-.2,1-1.1,2.4-.4.7-1.1,1.6-2,2.4s-2.1,1.6-3.5,2.1c-1.4.5-3.1.6-5,.7-1.8,0-3.9.2-5.7,1.3-1.8,1.1-3.3,2.9-3.9,5.1-.3,1.1-.4,2.3-.2,3.5.2,1.2.4,2.3.3,3.4,0,1.1-.7,2.2-1.7,2.6-1,.4-2.2.3-3.3.3s-2.4.2-3.2,1c-.8.8-1.1,2-1,3.1,0,1.1.3,2.1.7,3,.4.9.8,1.7,1.1,2.6.3.8.6,1.7.6,2.5s-.2,1.6-.5,2.3c-.7,1.4-2,2.1-3.2,2.1s-1.1-.1-1.6-.4c-.4-.3-.8-.6-1-1-.4-.7-.5-1.4-.4-1.9,0-.4.2-.7.2-.7h0Z"/>
            <path class="cls-10" d="M146.1,162.3s.4.8,0,2.1c-.2.6-.8,1.4-1.7,1.7s-2.1,0-2.9-.8c-.4-.4-.6-1-.7-1.7,0-.7,0-1.3.3-2,.4-1.4,1.3-2.8,1.2-4.6,0-1.7-1-3.5-2.4-4.6-.7-.6-1.6-1-2.5-1.3s-1.9-.4-2.8-.4-1.9,0-2.8-.3c-.9-.2-1.7-.7-2.2-1.3-.5-.7-.7-1.5-.8-2.4,0-.8,0-1.7.2-2.5.3-1.6.8-3.1.7-4.7,0-1.5-.7-2.9-1.4-3.9-.8-1-1.8-1.7-2.6-2.2-.8-.5-1.6-1-2.1-1.4-1.1-.9-1.3-1.7-1.3-1.7h0c0,.1,0,.3.2.5.2.3.5.8,1,1.3s1.2,1,2.1,1.5c.8.6,1.8,1.2,2.5,2.2.7,1,1.2,2.3,1.3,3.7,0,1.4-.4,2.9-.8,4.6-.2.8-.3,1.7-.2,2.6,0,.9.3,1.8.9,2.6.6.8,1.5,1.3,2.4,1.5s1.9.3,2.9.3,1.9.1,2.7.4c.9.3,1.7.7,2.3,1.2,1.4,1.1,2.2,2.7,2.3,4.3s-.7,3-1.1,4.4c-.2.7-.4,1.4-.3,2.2,0,.7.3,1.4.8,1.9.9,1,2.3,1.2,3.3.8s1.5-1.2,1.7-1.9.2-1.3,0-1.6c-.1-.4-.2-.5-.2-.5h0Z"/>
          </g>
          <path class="cls-11" d="M136.5,240.6v-11.1c1.2-6.2.7-13.6-2.2-19.2-1.7-3.3-5.5-8.6-6.9-10.6l-11-14.3c-6.1,4.4-15.5,1.2-23.7-1.7,0,0-8,4.4-11.8,8.6-3.9,4.4,9.5,59.4,9.5,59.4-6.1,12.2-13.9,23-15.1,34.1l63.6,2.5-2.7-29.2.4-18.6h0Z"/>
        </g>
        <path class="cls-10" d="M135.7,259.5v-4.6c0-3,.1-6.9.2-11.2,0-4.4.2-8.3.3-11.2,0-1.4.1-2.6.2-3.4,0-.8.1-1.2.2-1.2v4.6c0,3-.1,6.9-.2,11.2,0,4.4-.2,8.3-.3,11.2,0,1.4-.1,2.6-.2,3.4s-.1,1.2-.2,1.2Z"/>
      </g>
      <path class="cls-13" d="M164.7,269.6s6.2.3,10,2.7c3.8,2.4,10,6.1,12.6,10.8,1.2,2.1-2.2,2.6-3.8,1.3-1.6-1.2-4.2-3.6-5.4-3.8l-1.3-.3s2.5,5.6,3.8,7.6,2.4,5.3-1.5,5.5c0,0-2.6,3.4-5.3.9,0,0-2.1,3.1-5.4-1.2,0,0-1.9,2.4-2.7,1.5s-3.4-2.4-4.2-5.5-4-10.5-4-10.5l7.2-9h0Z"/>
    </g>
    <g>
      <path class="cls-13" d="M303.5,183.7c.7,0,29.1-3,29.1-3,0,0,2.4-11.5,2.3-14.5s-2.2-22.8-2.2-22.8l10.6-5s14.2,47.9,11.1,51.9-8.9,7.5-9.4,7.6c-.5,0-27.5,12-46.3,5.8s4.8-19.8,4.8-19.8v-.2Z"/>
      <g>
        <path class="cls-11" d="M278.6,209.5c4.2,4.1,11.4,7.6,23.4,4.6,23.8-5.9,41.6-11,48.7-14.8s4.3-20.8,4.9-21.5c1.8-2.3-.2-7.3-2.7-8.1-7.3-2.2-19.9-1.3-20.6-.7-3.7,3.9-.3,8.7-.3,8.7l-31.3,4.1s-5.5-.4-11.5.7"/>
        <path class="cls-10" d="M289.1,182.6s.3,0,.8-.2c.5,0,1.2-.2,2.2-.3,2-.2,4.8-.5,8.5-.4h0c7.5-1,18.3-2.5,31.3-4.2l-.2.3c-1-1.5-1.6-3.3-1.4-5.1,0-.9.4-1.9.9-2.7.2-.4.6-.8.9-1.1.1,0,.3-.2.4-.2h.4c.2-.2.5-.2.7-.2,3.8-.5,7.7-.5,11.7-.2,2,.1,4,.4,6.1.8.5.1,1,.3,1.5.4.5.2,1,.5,1.4.8.8.7,1.4,1.7,1.8,2.7s.6,2.1.4,3.3c-.1.6-.3,1.1-.6,1.6v1.4c0,2.1.2,4.3.1,6.5,0,3.1-.4,6.3-1.5,9.2-.6,1.4-1.4,2.8-2.6,3.8s-1.3.8-2,1.2-1.4.6-2,.9c-2.7,1.2-5.5,2.1-8.2,3s-5.4,1.7-8,2.5c-10.5,3-20,5.4-27.9,7.4-2,.5-3.9.9-5.8,1.2-1.8.2-3.6.4-5.2.3-3.3,0-6.1-.8-8.2-1.8-2.1-.9-3.6-2-4.5-2.8s-1.3-1.3-1.3-1.3c0,0,.5.4,1.4,1.2.9.7,2.4,1.8,4.5,2.7s4.9,1.6,8.1,1.7c1.6,0,3.4,0,5.2-.3,1.8-.3,3.7-.7,5.7-1.2,8-2,17.5-4.5,27.9-7.5,2.6-.8,5.3-1.6,8-2.5s5.4-1.9,8.1-3c.7-.3,1.4-.6,2-.9.7-.3,1.3-.6,1.9-1.1,1.1-.9,1.9-2.2,2.4-3.6,1.1-2.8,1.4-5.9,1.5-9,0-2.2,0-4.4-.1-6.5v-1.6h0c.3-.5.4-1,.5-1.4.1-1,0-2-.4-3-.4-.9-.9-1.9-1.6-2.5-.4-.3-.8-.6-1.2-.7-.5-.1-1-.3-1.5-.4-2-.4-4-.7-6-.8-4-.3-7.9-.2-11.6.2-.2,0-.5,0-.7.1h-.3c0,.1-.1.1-.2.2-.3.3-.6.7-.8,1.1-.5.7-.8,1.6-.8,2.5-.1,1.7.4,3.5,1.3,4.8l.2.3h-.3c-13,1.7-23.9,3.1-31.3,4.1h0c-3.7-.2-6.6,0-8.5.2-1,.1-1.7.2-2.2.3h-.8v-.2Z"/>
      </g>
    </g>
    <g>
      <path class="cls-6" d="M204.3,215l-12.7-22.9L432.9,57.8c5.8-3.2,13.1-1.1,16.3,4.6l1.1,2c3.2,5.8,1.1,13.1-4.6,16.3l-241.3,134.3h0Z"/>
      <path class="cls-6" d="M406.7,93.9l-29.6-53.1c-.6-1-.2-2.4.9-3l13.5-7.5c1-.6,2.4-.2,3,.9l29.6,53.1-17.5,9.7h0Z"/>
      <rect class="cls-6" x="358" y="58.2" width="20" height="50.8" rx="3.2" ry="3.2" transform="translate(5.8 189.5) rotate(-29.1)"/>
      <rect class="cls-6" x="372.3" y="57.6" width="31.1" height="27.4" transform="translate(14.3 197.6) rotate(-29.1)"/>
      <path class="cls-10" d="M429.4,59.9c0,0-47.3,26.6-105.8,59.2-58.5,32.6-106,58.9-106,58.7s47.3-26.6,105.8-59.2c58.5-32.6,106-58.9,106-58.7h0Z"/>
      <path class="cls-6" d="M106.6,259.4c17.8,32,55.3,45,83.8,29.1s37.2-54.6,19.4-86.6-55.3-45-83.8-29.1-37.2,54.6-19.4,86.6h0ZM194.3,210.5c12.5,22.4,6.4,49.6-13.6,60.7s-46.3,2-58.7-20.4c-12.5-22.4-6.4-49.6,13.6-60.7,20-11.1,46.3-2,58.7,20.4h0Z"/>
      <path class="cls-6" d="M245.3,193l-13.2-23.7c-1.8-3.1-.6-7.1,2.5-8.8l1-.6c3.1-1.8,7.1-.6,8.8,2.5l13.2,23.7c1.8,3.1.6,7.1-2.5,8.8l-1,.6c-3.1,1.8-7.1.6-8.8-2.5Z"/>
      <path class="cls-6" d="M270.7,178.9l-13.2-23.7c-1.8-3.1-.6-7.1,2.5-8.8l1-.6c3.1-1.8,7.1-.6,8.8,2.5l13.2,23.7c1.8,3.1.6,7.1-2.5,8.8l-1,.6c-3.1,1.8-7.1.6-8.8-2.5Z"/>
      <path class="cls-10" d="M244.4,162c.1,0,3.2,5.3,6.8,12s6.5,12.2,6.4,12.2-3.2-5.3-6.8-12-6.5-12.2-6.4-12.2h0Z"/>
      <path class="cls-10" d="M232.8,170.3c.1,0,3.1,5.1,6.7,11.4,3.6,6.4,6.3,11.6,6.2,11.7-.1,0-3.1-5.1-6.7-11.4-3.6-6.4-6.3-11.6-6.2-11.7Z"/>
      <path class="cls-10" d="M269.8,148.1c.1,0,3.2,5.3,6.9,11.9,3.7,6.7,6.6,12.1,6.5,12.2-.1,0-3.2-5.3-6.9-11.9-3.7-6.7-6.6-12.1-6.5-12.2Z"/>
      <path class="cls-10" d="M257.6,155.4c.1,0,3.2,5.2,6.8,11.9,3.6,6.6,6.5,12,6.3,12.1-.1,0-3.2-5.2-6.8-11.9-3.6-6.6-6.5-12-6.3-12.1Z"/>
    </g>
    <g>
      <g>
        <g>
          <g>
            <path class="cls-10" d="M330.1,119.4c2.3.3,4.7-1.4,5.2-3.7.5-2.3-.9-4.8-3.1-5.5,1.4-1.5,1.8-3.9.9-5.7-.9-1.8-3.1-2.9-5.1-2.6,0-2-1.3-4-3.1-4.9-1.8-1-4.1-.9-5.8,0-2.2-1.9-5.8-2-8.1-.2-2-.4-4.1.7-5,2.4-.9,1.8-.6,4.1.9,5.5"/>
            <g>
              <g>
                <path class="cls-13" d="M309.8,101.5h1c10.5,0,19.1,8.1,19.9,18.5.8,9.7,1.5,20.4,1.4,25.6-.2,10.8-10.9,12.4-10.9,12.4l.9,12.9-26.1-.9-2.2-46.9c-.9-11.2,4.8-21,16-21.7h0Z"/>
                <path class="cls-1" d="M321.3,158s-6.9.4-14.1-4.2c0,0,3.5,8.1,14.2,7.2v-3h-.1Z"/>
                <path class="cls-10" d="M324.9,130.1c0,.8-.6,1.5-1.5,1.5s-1.6-.6-1.6-1.4.6-1.5,1.5-1.5,1.6.6,1.6,1.4Z"/>
                <path class="cls-10" d="M328.5,125.3c-.2.2-1.4-.7-3-.7s-2.9.8-3,.6c0,0,.1-.5.6-.8.5-.4,1.4-.8,2.4-.7,1,0,1.9.4,2.4.8s.7.8.6.8Z"/>
                <path class="cls-10" d="M310,129.4c0,.8-.6,1.5-1.5,1.5s-1.6-.6-1.6-1.4.6-1.5,1.5-1.5,1.6.6,1.6,1.4Z"/>
                <path class="cls-10" d="M312.2,125.6c-.2.2-1.4-.7-3-.7s-2.9.8-3,.6c0,0,.1-.5.6-.8.5-.4,1.4-.8,2.4-.7,1,0,1.9.4,2.4.8s.7.8.6.8Z"/>
                <path class="cls-10" d="M318.2,137.8s1-.3,2.7-.5c.4,0,.8-.1.9-.4.1-.3,0-.8-.3-1.3-.4-1-.8-2.1-1.2-3.2-1.7-4.6-3-8.4-2.8-8.4s1.7,3.6,3.5,8.2c.4,1.1.8,2.2,1.2,3.2s.4,1,.2,1.7c-.1.3-.4.5-.7.6h-3.5Z"/>
                <path class="cls-10" d="M313.7,119.2c-.2.4-1.6,0-3.4,0-1.7,0-3.2.2-3.4-.2,0-.2.2-.6.9-.9.6-.3,1.6-.6,2.6-.5,1,0,2,.4,2.5.8.6.4.8.8.7,1h0Z"/>
                <path class="cls-10" d="M328.6,118.5c-.3.4-1.7,0-3.4,0s-3,.2-3.4-.2c-.1-.2,0-.6.7-.9.6-.4,1.6-.6,2.7-.6s2.1.4,2.7.8.8.8.6,1h0Z"/>
                <path class="cls-10" d="M329.8,115.1s-2.8-6.7-6.1-8.3c-3.9-1.9-5.6,2.4-9.4,1.3-3.7-1.1-7.5-2.9-11.3,0-4.2,3.2-2.2,5.4-2.5,10.2-1.1,19.4-4.7,24.8-5.6,15.7-.1-1-2.9-1.8-3.3-6-.5-5.5-.7-12.1.5-16,1-3.3,2.9-5.5,6.3-8,5.3-3.9,12.6-4,17.5-3.5s14.4,6.2,13.9,14.6Z"/>
                <path class="cls-13" d="M295.5,133.7c0-1.7-1.5-3-3.1-2.8-2,.2-4.2,1.3-4.1,5.5.2,7.4,7.6,5.6,7.6,5.4s-.2-5-.3-8.1h-.1Z"/>
                <path class="cls-1" d="M294.2,139s-.1,0-.3.2c-.2.1-.6.2-1,0-.8-.3-1.5-1.5-1.5-2.8s0-1.3.3-1.8c.2-.5.5-.9.9-1s.7.1.8.3c.1.2,0,.4.1.4,0,0,.2-.1,0-.4,0-.1-.1-.3-.3-.5-.2-.1-.4-.2-.7-.2-.6,0-1.1.6-1.3,1.2-.3.6-.4,1.3-.4,2.1,0,1.5.9,2.8,2,3.1.5.1.9,0,1.2-.2.2-.2.3-.4.2-.4h0Z"/>
              </g>
              <path class="cls-10" d="M295.7,119.4c1,.7,2,1.3,3.1,1.4,1.2,0,2.5-.5,2.7-1.7,0-.5,0-1.1.3-1.5.4-.5,1.1-.3,1.8-.3,2.1.2,4.6-2.1,5.2-4.2.5.8,1.7,1.1,2.6.5.8-.5,1.1-.8,1.8-1.6.6-.7,1.6-1.4,2.5-1.3.5,0,1.1.4,1.6.4,1,0,1.4-1.2,1.6-2.2.1-1,.3-2.1,1.1-2.6.8-.5,1.7-.2,2.6,0,.9,0,2,0,2.3-.9.1-.5,0-.9-.3-1.3-1.1-1.8-3.6-2.6-5.6-1.8-.7-2.4-3-4.3-5.5-4.6-2.5-.3-5.1,1.1-6.4,3.3-1.6-1.4-3.8-2-5.9-1.6-2,.5-3.8,2-4.6,3.9-1.8-.5-3.8.2-5,1.7-1.1,1.5-1.3,3.6-.4,5.2-1.3.8-2.5,2.1-2.5,3.6s1.4,3,2.9,2.6c-.6,1.2-.1,2.8,1,3.5s2.8.3,3.5-.8"/>
              <path class="cls-5" d="M319.4,104.5h0v.5c0,.3-.2.8-.5,1.4s-.9,1.2-1.6,1.7c-.8.5-1.8.9-3,.9v-.2c.4.6.3,1.4,0,2-.3.7-.8,1.2-1.3,1.8-.3.3-.5.6-.8.8-.3.2-.7.4-1.2.4-.8,0-1.8-.2-2.4-.9h.3c-.2,1.4-1,2.8-2.4,3.7-.7.5-1.6.8-2.4.8s-1.6-.3-2.4-.5h.2c-.4.8-1,1.6-1.7,2.2s-1.7.9-2.6.7c-1.7-.4-2.9-1.8-3.1-3.2h.2c-.9.5-1.8.6-2.5.4-.8,0-1.3-.5-1.8-.8-.4-.3-.7-.7-.8-.9-.1-.2-.2-.4-.2-.4,0,0,.2.6,1.1,1.2.4.3,1,.6,1.7.7s1.6,0,2.4-.4h.1c.2,1.3,1.3,2.6,2.9,2.9.8.2,1.6,0,2.3-.7.7-.5,1.3-1.3,1.6-2.1h0c0,0,.1,0,.1,0,.7.3,1.5.5,2.3.5s1.6-.3,2.2-.7c1.3-.8,2-2.2,2.2-3.6v-.3l.3.3c.5.6,1.3.8,2.1.8s.7-.2,1-.4c.3-.2.5-.5.8-.8.5-.6,1-1.1,1.2-1.7.3-.6.4-1.3.2-1.8v-.2h.1c1.1,0,2.1-.3,2.9-.8s1.3-1.1,1.6-1.6c.7-1.1.7-1.9.7-1.9l.2.2Z"/>
            </g>
          </g>
          <path class="cls-10" d="M318.2,143.3c0-.3-1.8.2-3.5-1s-1.9-3.2-2.2-3.1c-.1,0-.2.5,0,1.3s.7,1.9,1.7,2.6c1,.7,2.2.9,2.9.8.8-.1,1.2-.4,1.1-.5h0Z"/>
        </g>
        <g>
          <g>
            <path class="cls-5" d="M373.6,423.1l7.1,24.2s27,.9,28.7,5.2l-46.4,15.5-12.6-37.2,23.2-7.7h0Z"/>
            <path class="cls-3" d="M365.7,450.1c-.8.5-1.1,1.8-.6,2.6.5.8,1.7,1.1,2.6.6.8-.5,1.2-2,.6-2.8s-2.1-1-2.7-.3"/>
            <path class="cls-10" d="M406.8,450.8s2.4.2,2.6,1.7l-46.4,15.5-1.1-3.8,44.9-13.4"/>
            <path class="cls-14" d="M381.4,446.8c0,.2-1,.7-1.9,1.8-.9,1.1-1.1,2.3-1.4,2.2-.2,0-.3-1.4.7-2.8,1.1-1.3,2.5-1.5,2.5-1.3h0Z"/>
            <path class="cls-14" d="M386.9,447.2c.1.2-.7.9-1.2,2.1s-.3,2.3-.6,2.4c-.2.1-.8-1.2-.2-2.7.6-1.5,1.9-2,2-1.8h0Z"/>
            <path class="cls-14" d="M391.6,452.1c-.2.1-.9-.9-.7-2.3.2-1.4,1.1-2.3,1.2-2.1.2.1-.3,1-.4,2.2s.1,2.2-.1,2.3h0Z"/>
            <path class="cls-14" d="M379.2,441.5c0,.2-1.2.3-2.4.8-1.3.5-2.1,1.2-2.3,1.1-.2-.1.5-1.3,2-1.9s2.8-.2,2.7,0h0Z"/>
          </g>
          <g>
            <path class="cls-5" d="M265.3,423.3l-10.1,23.1s20.1,18,18.6,22.5l-45.5-18,14.3-36.6,22.7,9Z"/>
            <path class="cls-3" d="M241.9,438.9c-1-.1-2,.6-2.1,1.6s.6,2,1.6,2.1,2.2-.7,2.2-1.7-.9-2.1-1.9-2"/>
            <path class="cls-10" d="M272.9,465.9s1.7,1.7.9,3l-45.5-18,1.6-3.6,43,18.6"/>
            <path class="cls-14" d="M256,446.5c0,.2-1.2-.1-2.6.2-1.4.2-2.3,1-2.5.8-.2-.1.7-1.3,2.3-1.6,1.7-.3,2.9.5,2.8.7h0Z"/>
            <path class="cls-14" d="M260,450.3c0,.2-1.1.2-2.3.9-1.1.6-1.7,1.5-2,1.5s.1-1.4,1.6-2.2c1.4-.8,2.8-.4,2.7-.1h0Z"/>
            <path class="cls-14" d="M260.5,457.1c-.2,0,0-1.3,1-2.3s2.3-1.1,2.3-.8-.9.6-1.7,1.4c-.9.8-1.3,1.7-1.5,1.7h0Z"/>
            <path class="cls-14" d="M257.7,441c-.2.2-1.1-.5-2.4-1-1.3-.4-2.4-.4-2.5-.6,0-.2,1.2-.7,2.7-.2,1.5.5,2.3,1.6,2.1,1.7h.1Z"/>
          </g>
          <path class="cls-10" d="M282.3,296.4l-15.9,64.7s-28.8,48.4-33.6,72.6l26.3,10.3s19.1-46.6,24.7-55.2c3.1-4.7,6.3-8.3,8.7-10.7s3.6-4.7,4.4-7.6l12.1-46.1-26.6-28h-.1Z"/>
          <g>
            <path class="cls-10" d="M275.5,286.1s2.2,17.3,18.9,25l35.1,57.2s2.8,18.6,8.1,34.3c5.3,15.6,15.9,45.9,15.9,45.9l28.9-10.8-18.4-62.9-3-21.8-28.7-73-24.6-14.8-32.1,21h0Z"/>
            <path class="cls-5" d="M275.5,286.1s.2-.1.5-.4c.4-.2.9-.6,1.6-1.1,1.4-.9,3.5-2.3,6.2-4.1,5.5-3.6,13.5-8.9,23.7-15.5h0c7.2,4.3,15.5,9.2,24.6,14.7h0c8,20.4,17.8,45.2,28.7,72.9h0c1,6.9,2,14.3,3,21.8h0c5,17,10.3,35.2,15.8,53.9.9,3,1.8,6,2.6,9v.2h-.2c-9.8,3.7-19.5,7.3-28.9,10.8h-.2v-.2c-5-14.5-9.8-28.5-14.4-41.7-1.1-3.3-2.3-6.6-3.2-9.9-.9-3.3-1.8-6.5-2.6-9.8-1.5-6.4-2.7-12.7-3.7-18.8h0c-14.4-23.4-26.3-42.9-35.1-57.2h0c-4.8-2.2-8.4-5.3-11-8.3-2.6-3.1-4.3-6.1-5.4-8.7-1.1-2.5-1.7-4.6-2-6-.2-.7-.3-1.2-.3-1.6v-.5s0,.2.1.5c0,.4.2.9.4,1.6.4,1.4.9,3.4,2.1,5.9,1.1,2.5,2.8,5.5,5.4,8.6,2.6,3,6.3,6.1,11,8.3h0c8.8,14.2,20.8,33.7,35.2,57.2h0c1,6.1,2.2,12.4,3.7,18.8.8,3.2,1.6,6.5,2.6,9.7.9,3.3,2.1,6.5,3.2,9.8,4.6,13.3,9.4,27.2,14.4,41.7l-.3-.2c9.4-3.5,19-7.1,28.9-10.8l-.2.3c-.9-3-1.8-6-2.6-9-5.5-18.7-10.8-36.9-15.8-53.9h0c-1-7.5-2.1-14.9-3-21.8h0c-10.9-27.7-20.6-52.5-28.6-72.9h0c-9.2-5.4-17.4-10.4-24.6-14.7h.2c-10.2,6.6-18.2,11.8-23.7,15.4-2.7,1.8-4.9,3.1-6.3,4.1-.7.5-1.3.8-1.6,1-.4.2-.6.3-.6.3l.4.6Z"/>
          </g>
          <path class="cls-11" d="M291,162.5s-8.4,6.5-12.5,13.7c-4.9,8.7-5.4,21.5-5.6,41.5-.1,18.5,2.6,23.6,1.6,30.5-2.1,13.6-3.6,59.2-3.6,59.2,0,0,27-10.4,32.2-15l5.3-4.6,33.8,11.2-6.8-41.5-4.7-51.8-6-27.5-1-10.8-28.9-11.7-3.6,6.6-.2.2Z"/>
          <path class="cls-10" d="M322.5,167c.4,0-.8,2.4-2.9,5.9h0c0,.1-.2,0-.2,0-2.9-1.1-6.8-2.6-11.1-4.1-4.8-1.7-9.1-3.4-12.2-4.6-1.5-.6-2.8-1.2-3.6-1.5-.8-.4-1.3-.6-1.3-.6,0,0,.5.1,1.4.5,1,.4,2.2.8,3.7,1.4,3.2,1.2,7.5,2.7,12.2,4.5,4.2,1.5,8.1,3,11,4.2h-.2c2.2-3.4,3.5-5.6,3.3-5.6h0Z"/>
        </g>
      </g>
      <g>
        <path class="cls-13" d="M357.4,145.4s-2.1-3.3-4.2-6.4c-2-3.1-5.1-4.6-5.6-6.2-.5-1.6-3.2-8.7-3.6-10.5-.6-2.5-.5-5.2-.5-5.2,0,0,2.2-.9,3.3,2.2.6,1.9,2.7,8.4,3.1,8.7.4.3,1,0,1,0,0,0-2.3-6.2-2.4-7.4,0-1.2.3-8.9.3-8.9,0,0,1.6-.5,2.7,1.5,1,2,1.1,7,1.1,7l1.6,5.6-.6-5.5.8-10.1s2.5.2,3.2,3c.7,2.7-.2,6.6.2,7.4.5.8.9,5.7.9,5.7,0,0,.5-11.9,1.8-12.2,1.3-.3,2.3.9,2.1,3.3s-.2,7.5.4,9.7c.7,2.2,7.4,11,6.9,14.8-.6,3.9-.6,7-.6,7h-11.6l-.5-3.2.2-.2Z"/>
        <path class="cls-13" d="M316.8,175.4c.6.2,28.4,7.1,28.4,7.1,0,0,6.2-10,7.1-12.9s5.8-22.2,5.8-22.2l11.7-1.1s-3,49.9-7.2,52.6c-4.3,2.7-11,4.1-11.4,3.9-.5-.2-29.9,1.9-45.5-10.3s11.3-17,11.3-17h-.2Z"/>
        <g>
          <g class="cls-17">
            <path class="cls-2" d="M296.9,201.8s4,5,11.3,6.7c7.4,1.6,23,4.5,23,4.5l-.8-7.7-34-3.6"/>
          </g>
          <g>
            <path class="cls-11" d="M284.6,191.3c2.5,5.3,8.1,11,20.4,12.3,24.4,2.5,42.8,3.9,50.8,2.7s11.1-18.1,12-18.6c2.5-1.6,2.3-6.9.2-8.5-6.1-4.5-18.3-8-19.1-7.6-4.8,2.4-3.3,8-3.3,8l-30.9-6.8s-5-2.2-11.1-3.2"/>
            <path class="cls-10" d="M303.6,169.5s.3,0,.8.1c.5,0,1.2.2,2.2.4,1.9.4,4.7,1.2,8.2,2.6h0c7.4,1.6,18,3.9,30.9,6.7l-.3.3c-.4-1.7-.4-3.6.4-5.3.4-.9,1-1.6,1.7-2.2.4-.3.8-.5,1.2-.8h.9c.2,0,.5.1.7.2,3.7.8,7.4,2.1,11.1,3.7,1.8.8,3.7,1.7,5.4,2.9.4.3.9.6,1.3.9.4.3.8.8,1.1,1.3.5,1,.7,2.1.7,3.2s-.2,2.2-.7,3.2c-.3.5-.6,1-1.1,1.3-.1,0-.2.3-.3.6l-.3.8c-.7,2-1.3,4.1-2.1,6.2-1.2,2.9-2.5,5.8-4.5,8.2s-2.3,2.2-3.8,2.7c-.7.3-1.5.3-2.3.4-.7.1-1.5.1-2.2.2-3,.2-5.9.1-8.7,0-2.9,0-5.6-.2-8.4-.4-10.9-.7-20.6-1.7-28.8-2.5-2-.2-4-.5-5.8-.8-1.8-.4-3.5-.9-5-1.5-3.1-1.2-5.4-2.9-7.1-4.5s-2.7-3.1-3.3-4.2c-.6-1.1-.8-1.7-.8-1.7,0,0,.3.6.9,1.6s1.7,2.5,3.3,4.1c1.7,1.6,4,3.2,7.1,4.3,1.5.6,3.2,1.1,5,1.5s3.7.6,5.8.8c8.2.8,17.9,1.8,28.8,2.4,2.7.2,5.5.3,8.3.4,2.8,0,5.7.1,8.7,0,.7,0,1.5,0,2.2-.2.7,0,1.5-.1,2.1-.4,1.4-.5,2.6-1.4,3.5-2.6,2-2.3,3.3-5.1,4.4-8,.8-2,1.4-4.1,2.1-6.2l.3-.8c0-.1.1-.3.2-.4,0,0,0-.1.1-.2h.1c.4-.4.7-.8,1-1.3.5-.9.7-1.9.7-3s-.2-2-.7-2.9c-.2-.4-.5-.8-.9-1.1s-.8-.6-1.3-.9c-1.7-1.1-3.5-2-5.4-2.8-3.7-1.6-7.3-2.9-11-3.7-.2,0-.5,0-.7-.1h-.5c-.4.2-.8.4-1.1.7-.7.5-1.3,1.2-1.6,2-.7,1.6-.8,3.4-.4,5v.4h-.3c-12.8-2.9-23.5-5.3-30.8-6.9h0c-3.4-1.4-6.2-2.2-8.1-2.7-1-.2-1.7-.4-2.2-.5s-.7-.2-.7-.2v-.3Z"/>
          </g>
          <path class="cls-10" d="M355.8,189.2s-.8-.2-2-.9c-1.2-.6-2.7-1.7-4.2-3.1-1.5-1.4-2.6-3-3.3-4.1-.7-1.2-1-1.9-.9-2,.1,0,1.7,2.9,4.6,5.7s5.9,4.2,5.8,4.4h0Z"/>
        </g>
      </g>
    </g>
    <g>
      <g>
        <path class="cls-13" d="M138.2,271.5s6.2.3,10,2.7c3.8,2.4,10,6.1,12.6,10.8,1.2,2.1-2.2,2.6-3.8,1.3s-4.2-3.6-5.4-3.8l-1.3-.3s2.5,5.6,3.8,7.6,2.4,5.3-1.5,5.5c0,0-2.6,3.4-5.3.9,0,0-2.1,3.1-5.4-1.2,0,0-1.9,2.4-2.7,1.5s-3.4-2.4-4.2-5.5-4-10.5-4-10.5l7.1-9h0Z"/>
        <path class="cls-11" d="M85.5,190s-4.8,1.3-7.8,5.9c-2.4,3.7-3.1,10-2.4,14.7,1.4,9.9,6,26.7,8.6,37.5.9,3.7,2.7,10.4,8,13.9l37.9,22.7,10.1-15-34.5-28.1-6.8-38.6-13-13h0Z"/>
      </g>
      <path class="cls-10" d="M78.9,227.9s0,.1,0,.4c0,.3.2.7.3,1.2.3,1.1.7,2.6,1.2,4.5,1,4,2.4,9.7,4.2,16.7.9,3.5,3,7.1,6.2,9.9s3.6,2.5,5.5,3.7c2,1.2,4,2.4,6.1,3.7,8.3,5,17.6,10.6,27.3,16.5h-.3c1.2-1.6,2.4-3.5,3.6-5.3,2.2-3.3,4.4-6.5,6.5-9.6v.3c-13-10.7-24.8-20.4-34.2-28.2h0c-2.3-9.6-3.9-17.4-4.9-22.8s-.9-4.8-1.1-6.3c0-.7-.2-1.2-.2-1.6v-.6s0,.2,0,.6c0,.4.2.9.3,1.6.3,1.4.7,3.5,1.2,6.2,1.1,5.4,2.8,13.2,5.1,22.7h0c9.5,7.6,21.3,17.3,34.3,28h.2c0,.1-.1.3-.1.3-2.1,3.1-4.3,6.4-6.5,9.6-1.2,1.9-2.5,3.7-3.6,5.4v.2c-.1,0-.3-.1-.3-.1-9.7-5.9-18.9-11.5-27.3-16.5-2.1-1.3-4.1-2.5-6.1-3.7-1.9-1.2-4-2.3-5.6-3.7-3.3-2.9-5.4-6.5-6.3-10.1-1.7-7.1-3.1-12.8-4-16.8-.5-2-.8-3.5-1.1-4.6,0-.5-.2-.9-.3-1.2v-.4h-.3Z"/>
      <path class="cls-10" d="M79.5,195.3s.3-.2.8-.3c.5-.2,1.3-.4,2.2-.5,1.9-.3,4.7-.3,7.4,1,2.7,1.4,4.5,3.4,5.5,5s.8,1.5,1,2,.2.8.2.8c0,0-.4-1.1-1.5-2.7-1.1-1.5-2.9-3.5-5.4-4.8-2.6-1.2-5.3-1.3-7.1-1.1-1.9.2-3,.5-3,.5h0Z"/>
    </g>
  </g>
</svg>