<svg width="120" height="46" viewBox="0 0 120 46" fill="none" xmlns="http://www.w3.org/2000/svg">
<g clip-path="url(#clip0_4003_4477)">
<path d="M37.3011 30.8416C36.5897 31.3561 35.912 31.6128 35.2656 31.6128C34.7525 31.6128 34.3175 31.4308 33.963 31.0657C33.6074 30.7006 33.4295 30.1113 33.4295 29.2992V10.5566H32.7843C32.1547 11.9014 31.2415 13.0052 30.0423 13.8668C28.8419 14.7308 27.531 15.5261 26.1071 16.2575C25.1314 16.7539 24.1797 17.295 23.2533 17.8746C21.8462 18.7036 20.6807 19.817 19.7543 21.21C18.8279 22.603 18.34 24.0888 18.2896 25.6649V31.6887C18.2896 32.684 18.4758 33.501 18.8483 34.1409C19.2208 34.7795 19.6918 35.2567 20.2626 35.5712C20.8345 35.8857 21.4341 36.052 22.0625 36.0701H22.3605C23.353 36.0701 24.1545 35.8291 24.7673 35.3471C25.6108 34.7 26.5036 33.6131 27.448 32.0863C27.6619 31.7381 27.895 31.3886 28.1438 31.0404V31.7381C28.1438 33.0479 28.449 34.0649 29.0618 34.7855C29.6734 35.5085 30.4268 35.8688 31.3208 35.8688C31.9492 35.8688 32.6029 35.6893 33.2817 35.3338C33.9582 34.9771 34.6287 34.4252 35.292 33.6781L37.551 31.1886L37.3023 30.8404L37.3011 30.8416ZM28.1438 29.2498C26.9842 30.8271 25.9665 31.614 25.0893 31.614C24.6928 31.614 24.3492 31.4537 24.0596 31.1284C23.7688 30.8054 23.6162 30.3198 23.6006 29.6727V24.5202C23.6006 22.9766 23.8193 21.7282 24.2578 20.7738C24.6952 19.8207 25.2131 19.0651 25.8091 18.5084C26.4051 17.9529 26.9674 17.5095 27.4973 17.1769C27.7448 17.0118 27.9599 16.854 28.1426 16.7045V29.2486L28.1438 29.2498Z" fill="#221A14"/>
<path d="M33.8255 7.95847C32.5507 9.16949 31.4344 9.77681 30.4743 9.77681C29.8291 9.77681 29.2463 9.56112 28.7248 9.12973C28.2045 8.69834 27.7227 8.13079 27.2853 7.42345C26.8467 6.71974 26.4454 5.93528 26.0825 5.0713L25.6836 5.91721C25.5022 6.3498 25.3039 6.78119 25.0876 7.21137C24.0795 9.05261 22.9368 9.97443 21.6631 9.97443C20.8797 9.97443 20.172 9.59606 19.5399 8.83812C18.2999 9.68885 17.2882 10.7589 16.5035 12.0494C15.6768 13.4099 15.1301 15.2354 14.8658 17.5261V34.1262C14.8658 35.2215 14.6639 36.1132 14.259 36.8025C13.8528 37.4905 13.2785 38.0665 12.5347 38.5316L11.839 38.9787C10.796 39.6764 9.53073 40.4476 8.04077 41.2935L7.76921 40.8705L7.99271 40.5476C8.40605 40.0331 8.77373 39.4269 9.09696 38.7305C9.41898 38.0328 9.5812 37.0374 9.5812 35.7433V19.9144C9.61364 18.1564 9.90683 16.7248 10.462 15.621C11.0171 14.5185 11.7392 13.6051 12.6332 12.8845C13.5272 12.1615 14.4692 11.5024 15.4617 10.9059C15.9244 10.6239 16.381 10.3335 16.8279 10.0347C16.3305 10.1684 15.8186 10.2335 15.2887 10.2335C14.593 10.2335 13.8709 10.154 13.1175 9.99733C12.3641 9.83947 11.5794 9.64788 10.76 9.42495C9.94047 9.20082 9.09696 9.002 8.22822 8.82607C7.35947 8.65255 6.48592 8.56459 5.60997 8.56459C3.64177 8.56459 1.92111 9.196 0.447965 10.4564L0.000976562 10.1082C1.04395 8.31515 2.05809 6.91374 3.04218 5.90154C4.02628 4.88935 5.00797 4.18322 5.98246 3.78557C6.95934 3.38792 7.95185 3.18789 8.96118 3.18789C9.78787 3.18789 10.6362 3.28429 11.5049 3.47348C12.3737 3.66507 13.2701 3.88438 14.1977 4.13381C15.2731 4.43145 16.411 4.70619 17.6102 4.95562C18.8106 5.20385 20.0878 5.32917 21.4444 5.32917C22.6352 5.32917 23.8945 5.18337 25.221 4.89055C25.2486 4.59774 25.2631 4.28444 25.2631 3.95066C25.2631 3.22043 25.215 2.54804 25.1141 1.9347L27.7215 0.839355C28.1841 2.31548 28.7801 3.71809 29.5083 5.046C30.5668 6.98604 31.6759 7.95727 32.8342 7.95727C33.1154 7.95727 33.405 7.89099 33.7018 7.75844L33.8267 7.95727L33.8255 7.95847Z" fill="#221A14"/>
<path d="M31.4214 45.2278V44.829C32.7119 44.2976 33.726 43.642 34.4614 42.8624C35.198 42.0828 35.7351 41.2067 36.0751 40.2367C36.414 39.2655 36.6291 38.2087 36.7204 37.064C36.8117 35.9192 36.8574 34.7239 36.8574 33.4803V19.0191L36.2373 17.1526L42.1443 14.3401V33.7285C42.1443 37.0965 41.2095 39.7933 39.3398 41.8177C37.4702 43.8421 34.8315 44.9784 31.4226 45.2278H31.4214ZM37.7742 13.0218L34.9444 9.21405L39.1139 5.10742L41.9437 8.91521L37.7742 13.0218Z" fill="#221A14"/>
<path d="M48.7197 36.0686H48.4217C47.7933 36.0517 47.1937 35.8855 46.6229 35.571C46.0522 35.2564 45.5799 34.7793 45.2086 34.1394C44.8361 33.5008 44.6499 32.6838 44.6499 31.6872V25.6635C44.6992 24.0873 45.187 22.6016 46.1146 21.2086C47.0411 19.8144 48.2078 18.7034 49.6137 17.8732C50.5401 17.2924 51.4917 16.7525 52.4674 16.2549C53.8901 15.5246 55.201 14.7281 56.4014 13.8654C57.6006 13.0026 58.515 11.8988 59.1434 10.5552H59.7887V29.2965C59.7887 30.1099 59.9665 30.6992 60.3222 31.0631C60.6779 31.4282 61.1116 31.6101 61.6247 31.6101C62.27 31.6101 62.9488 31.3535 63.6602 30.8389L63.9089 31.1872L61.6499 33.6767C60.9879 34.4238 60.3174 34.9757 59.6397 35.3324C58.9608 35.689 58.3071 35.8674 57.6787 35.8674C56.7847 35.8674 56.0325 35.5071 55.4197 34.7853C54.8069 34.0635 54.5017 33.0477 54.5017 31.7367V31.0402C54.253 31.3884 54.0211 31.7367 53.8072 32.0849C52.8639 33.6116 51.9712 34.6985 51.1264 35.3456C50.5136 35.8264 49.7122 36.0674 48.7185 36.0674L48.7197 36.0686ZM48.0252 9.71053C47.0483 9.71053 46.1891 9.12129 45.4442 7.9428L47.5782 5.95215C47.744 6.43415 48.0083 6.82336 48.3724 7.1222C48.7365 7.42104 49.1246 7.57046 49.5392 7.57046C50.1676 7.57046 50.6723 7.23065 51.0532 6.54983C51.4341 5.87021 51.6239 4.91585 51.6239 3.68796C51.6239 2.95773 51.5746 2.28655 51.4749 1.672L54.0811 0.57666C54.5438 2.05399 55.1397 3.4554 55.8679 4.7833C56.9265 6.72455 58.0356 7.69578 59.1939 7.69578C59.4751 7.69578 59.7646 7.6295 60.0626 7.49695L60.1864 7.69578C58.9115 8.9068 57.7953 9.51291 56.8364 9.51291C56.1911 9.51291 55.6084 9.29722 55.0869 8.86583C54.5654 8.43444 54.086 7.86689 53.6474 7.16076C53.2088 6.45584 52.8075 5.67138 52.4434 4.80861L52.0469 5.65451C51.8642 6.0859 51.666 6.51729 51.4509 6.94868C50.4415 8.78991 49.3 9.71173 48.0264 9.71173L48.0252 9.71053ZM51.4497 31.6137C52.3268 31.6137 53.3446 30.8257 54.5029 29.2495V16.7055C54.3203 16.855 54.1064 17.0128 53.8577 17.1779C53.3278 17.5105 52.7654 17.9539 52.1706 18.5094C51.5746 19.0661 51.058 19.8204 50.6194 20.7748C50.1808 21.7292 49.9621 22.9775 49.9621 24.5211V29.6737C49.9789 30.3208 50.1315 30.8064 50.4211 31.1293C50.7107 31.4535 51.0544 31.6149 51.4509 31.6149L51.4497 31.6137Z" fill="#221A14"/>
<path d="M80.0159 36.6902H79.8417C78.5668 36.6902 77.471 36.3576 76.5529 35.6949C75.6349 35.0309 74.9524 34.285 74.5054 33.4548L72.1227 36.1178C71.1626 36.3672 70.3023 36.4914 69.5417 36.4914C68.6982 36.4914 67.8451 36.3455 66.9859 36.0551C66.1256 35.7647 65.3554 35.1345 64.6777 34.1633C63.9988 33.1921 63.6599 31.4966 63.6599 29.0734V19.0177L63.064 17.1512L68.9457 14.3387C68.9457 23.7304 68.9373 28.7661 68.9205 29.4469V29.6711C68.9205 31.6461 69.7231 32.6498 71.3285 32.6824C72.2381 32.6824 72.9999 32.1678 73.6115 31.1388V19.0177L73.0155 17.1512L78.8972 14.3387V29.3216C78.8972 31.5617 79.6663 32.6812 81.2055 32.6812C82.2148 32.6812 82.943 32.3413 83.39 31.6605L83.4152 16.2788L88.0317 13.9146V30.0675L82.8697 36.2154C82.0586 36.5299 81.107 36.6878 80.0159 36.6878V36.6902Z" fill="#221A14"/>
<path d="M94.9575 36.1688C94.2125 36.1688 93.5348 35.97 92.922 35.5712C92.3092 35.1723 91.8177 34.571 91.4452 33.7661C91.0728 32.9611 90.8865 31.9453 90.8865 30.7174V19.0194L90.2905 17.1528L96.1723 14.3404V29.498C96.1723 30.5596 96.2924 31.2693 96.5316 31.626C96.7707 31.9827 97.0819 32.161 97.4628 32.161C98.3892 32.0285 99.1714 31.5766 99.8083 30.8042C100.445 30.033 100.995 29.2076 101.459 28.3279L101.484 16.3563L106.77 14.3404V29.2992C106.77 30.1125 106.948 30.7018 107.304 31.0657C107.659 31.4308 108.086 31.6128 108.582 31.6128C109.227 31.6128 109.905 31.3561 110.618 30.8416L110.866 31.1898L108.607 33.6793C107.945 34.4264 107.271 34.9783 106.585 35.335C105.898 35.6917 105.249 35.87 104.637 35.87C103.743 35.87 102.991 35.5097 102.378 34.7879C101.766 34.0661 101.46 33.0503 101.46 31.7393V30.5198L101.212 30.9681C100.666 31.9803 100.049 32.9262 99.3625 33.8058C98.6752 34.6855 97.7944 35.3579 96.719 35.8218C96.1062 36.0544 95.5186 36.17 94.9563 36.17L94.9575 36.1688ZM96.9918 12.2256L94.287 9.48784L97.0422 6.62598L99.723 9.36373L96.993 12.2256H96.9918ZM102.726 12.2256L100.045 9.48784L102.8 6.62598L105.481 9.36373L102.726 12.2256Z" fill="#221A14"/>
<path d="M113.77 36.0938C112.876 36.0938 112.124 35.7865 111.511 35.1732C110.898 34.5598 110.593 33.6223 110.593 32.3607L110.618 9.38742L109.998 7.52088C110.924 7.08949 112.894 6.14356 115.905 4.68311V29.5229C115.905 30.3363 116.083 30.8882 116.439 31.1786C116.794 31.469 117.221 31.6136 117.717 31.6136C118.362 31.6136 119.04 31.3569 119.753 30.8424L120.001 31.1906L117.742 33.6802C116.32 35.2901 114.995 36.095 113.771 36.095L113.77 36.0938Z" fill="#221A14"/>
</g>
<defs>
<clipPath id="clip0_4003_4477">
<rect width="120" height="44.6512" fill="white" transform="translate(0 0.57666)"/>
</clipPath>
</defs>
</svg>
